<?xml version="1.0" encoding="UTF-8" standalone="no"?>
<svg
   xmlns:dc="http://purl.org/dc/elements/1.1/"
   xmlns:cc="http://creativecommons.org/ns#"
   xmlns:rdf="http://www.w3.org/1999/02/22-rdf-syntax-ns#"
   xmlns:svg="http://www.w3.org/2000/svg"
   xmlns="http://www.w3.org/2000/svg"
   viewBox="0 0 666.66669 666.66669"
   height="666.66669"
   width="666.66669"
   xml:space="preserve"
   id="svg2"
   version="1.1"><metadata
     id="metadata8"><rdf:RDF><cc:Work
         rdf:about=""><dc:format>image/svg+xml</dc:format><dc:type
           rdf:resource="http://purl.org/dc/dcmitype/StillImage" /></cc:Work></rdf:RDF></metadata><defs
     id="defs6"><clipPath
       id="clipPath18"
       clipPathUnits="userSpaceOnUse"><path
         id="path16"
         d="M 0,500 H 500 V 0 H 0 Z" /></clipPath><clipPath
       id="clipPath46"
       clipPathUnits="userSpaceOnUse"><path
         id="path44"
         d="M 0,500 H 500 V 0 H 0 Z" /></clipPath><clipPath
       id="clipPath86"
       clipPathUnits="userSpaceOnUse"><path
         id="path84"
         d="m 105.215,359.991 h 82.531 v -54.239 h -82.531 z" /></clipPath><clipPath
       id="clipPath106"
       clipPathUnits="userSpaceOnUse"><path
         id="path104"
         d="m 105.215,277.758 h 82.531 V 245.95 h -82.531 z" /></clipPath><clipPath
       id="clipPath130"
       clipPathUnits="userSpaceOnUse"><path
         id="path128"
         d="m 207.823,287.959 h 82.531 v -31.285 h -82.531 z" /></clipPath><clipPath
       id="clipPath178"
       clipPathUnits="userSpaceOnUse"><path
         id="path176"
         d="m 128.744,343.085 c 0,0 -3.99,1.055 -3.404,-2.466 v 0 c 0.587,-3.52 4.225,-2.347 4.225,-2.347 v 0 c 0,0 0.822,-6.573 7.628,-7.628 v 0 c 6.808,-1.057 10.563,4.021 10.563,6.294 v 0 c 0,2.273 -0.469,10.606 -3.168,14.127 v 0 c -1.002,1.307 -3.541,2.209 -6.301,2.21 v 0 c -4.675,0 -9.986,-2.59 -9.543,-10.19" /></clipPath><clipPath
       id="clipPath194"
       clipPathUnits="userSpaceOnUse"><path
         id="path192"
         d="M 0,500 H 500 V 0 H 0 Z" /></clipPath><clipPath
       id="clipPath234"
       clipPathUnits="userSpaceOnUse"><path
         id="path232"
         d="m 152.955,352.451 h 8.493 v -12.715 h -8.493 z" /></clipPath><clipPath
       id="clipPath286"
       clipPathUnits="userSpaceOnUse"><path
         id="path284"
         d="m 207.823,367.102 h 82.531 v -22.346 h -82.531 z" /></clipPath><clipPath
       id="clipPath410"
       clipPathUnits="userSpaceOnUse"><path
         id="path408"
         d="m 249.078,275.953 c -2.771,-0.407 -6.857,-2.336 -7.346,-5.694 v 0 c 0,0 -1.362,-8.827 -1.342,-11.479 v 0 c 0.02,-2.653 1.544,-7.593 7.136,-8.172 v 0 c 5.592,-0.58 9.455,1.962 10.37,7.452 v 0 c 0,0 3.864,-0.102 4.575,2.947 v 0 c 0.711,3.051 -3.761,3.864 -3.761,3.864 v 0 c 0,0 1.017,3.964 -1.118,7.218 v 0 c -1.842,2.806 -4.779,3.948 -7.33,3.949 v 0 c -0.407,0 -0.803,-0.029 -1.184,-0.085" /></clipPath><clipPath
       id="clipPath426"
       clipPathUnits="userSpaceOnUse"><path
         id="path424"
         d="M 0,500 H 500 V 0 H 0 Z" /></clipPath><clipPath
       id="clipPath498"
       clipPathUnits="userSpaceOnUse"><path
         id="path496"
         d="m 132.61,269.668 c -1.748,-4.326 -1.012,-7.547 -1.012,-7.547 v 0 c -1.656,2.025 -5.061,1.473 -4.693,-2.392 v 0 c 0.368,-3.864 4.509,-2.208 4.509,-2.208 v 0 c 0,0 0.46,-2.393 1.749,-4.509 v 0 c 1.288,-2.117 8.097,-4.601 10.858,-4.509 v 0 c 2.761,0.091 9.387,4.325 9.921,5.521 v 0 c 0.536,1.196 0.214,11.669 0,14.54 v 0 c -0.226,3.048 -3.296,7.913 -9.369,8.28 v 0 c -0.318,0.02 -0.63,0.029 -0.937,0.029 v 0 c -5.563,0 -9.368,-3.107 -11.026,-7.205" /></clipPath><clipPath
       id="clipPath518"
       clipPathUnits="userSpaceOnUse"><path
         id="path516"
         d="M 0,500 H 500 V 0 H 0 Z" /></clipPath><clipPath
       id="clipPath662"
       clipPathUnits="userSpaceOnUse"><path
         id="path660"
         d="M 38.0487,320.898 H 115.376 V 168.459 H 38.0487 Z" /></clipPath><clipPath
       id="clipPath768"
       clipPathUnits="userSpaceOnUse"><path
         id="path766"
         d="M 332.707,103.413 H 497.303 V 0 H 332.707 Z" /></clipPath></defs><g
     transform="matrix(1.3333333,0,0,-1.3333333,0,666.66667)"
     id="g10"><g
       id="g12"><g
         clip-path="url(#clipPath18)"
         id="g14"><g
           transform="translate(478.9166,288.1349)"
           id="g20"><path
             id="path22"
             style="fill:#a8cdbd;fill-opacity:1;fill-rule:nonzero;stroke:none"
             d="m 0,0 c 0,-93.819 -76.055,-169.874 -169.874,-169.874 -93.818,0 -169.873,76.055 -169.873,169.874 0,93.818 76.055,169.873 169.873,169.873 C -76.055,169.873 0,93.818 0,0" /></g><g
           transform="translate(240.3898,351.3361)"
           id="g24"><path
             id="path26"
             style="fill:#a8cdbd;fill-opacity:1;fill-rule:nonzero;stroke:none"
             d="m 0,0 c 0,-53.962 -43.745,-97.707 -97.707,-97.707 -53.962,0 -97.707,43.745 -97.707,97.707 0,53.962 43.745,97.707 97.707,97.707 C -43.745,97.707 0,53.962 0,0" /></g><g
           transform="translate(301.9987,168.0612)"
           id="g28"><path
             id="path30"
             style="fill:#a8cdbd;fill-opacity:1;fill-rule:nonzero;stroke:none"
             d="m 0,0 c 0,-67.622 -54.819,-122.441 -122.441,-122.441 -67.623,0 -122.442,54.819 -122.442,122.441 0,67.623 54.819,122.442 122.442,122.442 C -54.819,122.442 0,67.623 0,0" /></g><g
           transform="translate(220.5285,451.8957)"
           id="g32"><path
             id="path34"
             style="fill:#a8cdbd;fill-opacity:1;fill-rule:nonzero;stroke:none"
             d="m 0,0 c 0,-7.427 -6.021,-13.447 -13.447,-13.447 -7.427,0 -13.448,6.02 -13.448,13.447 0,7.427 6.021,13.447 13.448,13.447 C -6.021,13.447 0,7.427 0,0" /></g><g
           transform="translate(39.0416,268.631)"
           id="g36"><path
             id="path38"
             style="fill:#a8cdbd;fill-opacity:1;fill-rule:nonzero;stroke:none"
             d="m 0,0 c 0,-4.723 -3.829,-8.552 -8.552,-8.552 -4.723,0 -8.552,3.829 -8.552,8.552 0,4.723 3.829,8.552 8.552,8.552 C -3.829,8.552 0,4.723 0,0" /></g></g></g><g
       id="g40"><g
         clip-path="url(#clipPath46)"
         id="g42"><g
           transform="translate(404.7086,182.2429)"
           id="g48"><path
             id="path50"
             style="fill:#ffffff;fill-opacity:1;fill-rule:nonzero;stroke:none"
             d="m 0,0 h -326.868 c -3.192,0 -5.78,2.587 -5.78,5.779 v 217.77 c 0,3.192 2.588,5.78 5.78,5.78 H 0 c 3.192,0 5.78,-2.588 5.78,-5.78 V 5.779 C 5.78,2.587 3.192,0 0,0" /></g><path
           id="path52"
           style="fill:#ffffff;fill-opacity:1;fill-rule:nonzero;stroke:none"
           d="m 261.907,152.902 h -41.265 v 29.341 h 41.265 z" /><g
           transform="translate(284.8893,144.8483)"
           id="g54"><path
             id="path56"
             style="fill:#ffffff;fill-opacity:1;fill-rule:nonzero;stroke:none"
             d="m 0,0 h -87.229 c -2.224,0 -4.027,1.803 -4.027,4.026 0,2.225 1.803,4.028 4.027,4.028 L 0,8.054 C 2.224,8.054 4.026,6.251 4.026,4.026 4.026,1.803 2.224,0 0,0" /></g><path
           id="path58"
           style="fill:#00173a;fill-opacity:1;fill-rule:nonzero;stroke:none"
           d="m 261.907,178.278 h -41.265 v 3.965 h 41.265 z" /><g
           transform="translate(431.7731,118.2614)"
           id="g60"><path
             id="path62"
             style="fill:#f4cb69;fill-opacity:1;fill-rule:nonzero;stroke:none"
             d="m 0,0 h -387.782 c -7.278,0 -13.178,5.9 -13.178,13.178 0,7.278 5.9,13.178 13.178,13.178 H 0 c 7.278,0 13.178,-5.9 13.178,-13.178 C 13.178,5.9 7.278,0 0,0" /></g><g
           transform="translate(393.3961,193.2526)"
           id="g64"><path
             id="path66"
             style="fill:#0097b8;fill-opacity:1;fill-rule:nonzero;stroke:none"
             d="m 0,0 h -304.243 c -3.193,0 -5.78,2.589 -5.78,5.78 v 195.748 c 0,3.193 2.587,5.781 5.78,5.781 H 0 c 3.192,0 5.78,-2.588 5.78,-5.781 V 5.78 C 5.78,2.589 3.192,0 0,0" /></g><g
           transform="translate(382.3199,212.3307)"
           id="g68"><path
             id="path70"
             style="fill:#ffffff;fill-opacity:1;fill-rule:nonzero;stroke:none"
             d="m 0,0 h -282.09 c -1.204,0 -2.18,0.976 -2.18,2.18 v 173.013 c 0,1.204 0.976,2.18 2.18,2.18 H 0 c 1.204,0 2.18,-0.976 2.18,-2.18 V 2.18 C 2.18,0.976 1.204,0 0,0" /></g><g
           transform="translate(384.4996,379.0554)"
           id="g72"><path
             id="path74"
             style="fill:#99c9de;fill-opacity:1;fill-rule:nonzero;stroke:none"
             d="m 0,0 h -286.45 v 8.571 c 0,1.147 0.93,2.077 2.077,2.077 H -2.077 C -0.93,10.648 0,9.718 0,8.571 Z" /></g><g
           transform="translate(185.548,305.8557)"
           id="g76"><path
             id="path78"
             style="fill:#00aad0;fill-opacity:1;fill-rule:nonzero;stroke:none"
             d="m 0,0 h -78.135 c -1.214,0 -2.198,0.984 -2.198,2.198 v 56.851 c 0,1.214 0.984,2.198 2.198,2.198 H 0 c 1.214,0 2.198,-0.984 2.198,-2.198 V 2.198 C 2.198,0.984 1.214,0 0,0" /></g><g
           id="g80"><g
             id="g82" /><g
             id="g94"><g
               style="opacity:0.19999701"
               id="g92"
               clip-path="url(#clipPath86)"><g
                 id="g90"
                 transform="translate(105.2155,331.7189)"><path
                   id="path88"
                   style="fill:#ffffff;fill-opacity:1;fill-rule:nonzero;stroke:none"
                   d="M 0,0 C 0,0 7.855,9.61 20.348,12.331 32.84,15.052 69.838,9.208 82.53,28.272 v -51.739 c 0,-1.324 -1.072,-2.398 -2.396,-2.399 L 2.403,-25.967 C 1.076,-25.968 0,-24.894 0,-23.567 Z" /></g></g></g></g><g
           transform="translate(185.548,226.7126)"
           id="g96"><path
             id="path98"
             style="fill:#f4b394;fill-opacity:1;fill-rule:nonzero;stroke:none"
             d="m 0,0 h -78.135 c -1.214,0 -2.198,0.983 -2.198,2.197 v 56.852 c 0,1.213 0.984,2.197 2.198,2.197 H 0 c 1.214,0 2.198,-0.984 2.198,-2.197 V 2.197 C 2.198,0.983 1.214,0 0,0" /></g><g
           id="g100"><g
             id="g102" /><g
             id="g114"><g
               style="opacity:0.19999701"
               id="g112"
               clip-path="url(#clipPath106)"><g
                 id="g110"
                 transform="translate(105.2155,271.2829)"><path
                   id="path108"
                   style="fill:#ffffff;fill-opacity:1;fill-rule:nonzero;stroke:none"
                   d="m 0,0 v -24.563 c 0,0 22.683,-3.704 42.252,5.136 19.57,8.84 32.939,13.737 40.278,13.092 V 5.9 c 0,0 -12.906,4.123 -47.635,-9.713 C 18.414,-10.379 0,0 0,0" /></g></g></g></g><g
           transform="translate(288.1559,305.8557)"
           id="g116"><path
             id="path118"
             style="fill:#f4b394;fill-opacity:1;fill-rule:nonzero;stroke:none"
             d="m 0,0 h -78.135 c -1.214,0 -2.198,0.984 -2.198,2.198 v 56.851 c 0,1.214 0.984,2.198 2.198,2.198 H 0 c 1.214,0 2.198,-0.984 2.198,-2.198 V 2.198 C 2.198,0.984 1.214,0 0,0" /></g><g
           transform="translate(288.1559,226.7126)"
           id="g120"><path
             id="path122"
             style="fill:#00aad0;fill-opacity:1;fill-rule:nonzero;stroke:none"
             d="m 0,0 h -78.135 c -1.214,0 -2.198,0.983 -2.198,2.197 v 56.852 c 0,1.213 0.984,2.197 2.198,2.197 H 0 c 1.214,0 2.198,-0.984 2.198,-2.197 V 2.197 C 2.198,0.983 1.214,0 0,0" /></g><g
           id="g124"><g
             id="g126" /><g
             id="g138"><g
               style="opacity:0.19999701"
               id="g136"
               clip-path="url(#clipPath130)"><g
                 id="g134"
                 transform="translate(207.8234,256.675)"><path
                   id="path132"
                   style="fill:#ffffff;fill-opacity:1;fill-rule:nonzero;stroke:none"
                   d="m 0,0 c 0,0 18.109,-0.185 30.613,3.996 12.505,4.18 21.124,11.312 31.229,12.501 10.106,1.19 20.689,-4.157 20.689,-4.157 v 16.614 c 0,1.287 -1.044,2.33 -2.331,2.33 H 2.331 C 1.043,31.284 0,30.241 0,28.954 Z" /></g></g></g></g><g
           transform="translate(384.4996,226.7126)"
           id="g140"><path
             id="path142"
             style="fill:#7cdde9;fill-opacity:1;fill-rule:nonzero;stroke:none"
             d="m 0,0 h -76.011 c -1.01,0 -1.829,0.818 -1.829,1.829 V 138.56 c 0,1.01 0.819,1.83 1.829,1.83 l 76.011,0 z" /></g><g
           transform="translate(105.2155,384.1071)"
           id="g144"><path
             id="path146"
             style="fill:#e94e51;fill-opacity:1;fill-rule:nonzero;stroke:none"
             d="m 0,0 c 0,-1.051 -0.852,-1.903 -1.903,-1.903 -1.051,0 -1.903,0.852 -1.903,1.903 0,1.051 0.852,1.903 1.903,1.903 C -0.852,1.903 0,1.051 0,0" /></g><g
           transform="translate(112.1852,384.1071)"
           id="g148"><path
             id="path150"
             style="fill:#f4cb69;fill-opacity:1;fill-rule:nonzero;stroke:none"
             d="m 0,0 c 0,-1.051 -0.852,-1.903 -1.903,-1.903 -1.051,0 -1.903,0.852 -1.903,1.903 0,1.051 0.852,1.903 1.903,1.903 C -0.852,1.903 0,1.051 0,0" /></g><g
           transform="translate(119.1554,384.1071)"
           id="g152"><path
             id="path154"
             style="fill:#0097b8;fill-opacity:1;fill-rule:nonzero;stroke:none"
             d="m 0,0 c 0,-1.051 -0.852,-1.903 -1.903,-1.903 -1.051,0 -1.903,0.852 -1.903,1.903 0,1.051 0.852,1.903 1.903,1.903 C -0.852,1.903 0,1.051 0,0" /></g><g
           transform="translate(129.2814,323.3762)"
           id="g156"><path
             id="path158"
             style="fill:#546699;fill-opacity:1;fill-rule:nonzero;stroke:none"
             d="m 0,0 c 0,0 -5.097,-2.07 -5.247,-3.774 -0.149,-1.705 -0.897,-13.747 -0.897,-13.747 h 34.853 c 0,0 -5.31,12.565 -6.208,14.959 -0.897,2.393 -2.004,3.658 -3.463,3.924 C 17.58,1.628 0,0 0,0" /></g><g
           transform="translate(165.7433,328.8391)"
           id="g160"><path
             id="path162"
             style="fill:#ef7f6d;fill-opacity:1;fill-rule:nonzero;stroke:none"
             d="m 0,0 v -5.375 c 0,0 -2.423,-1.447 -5.776,1.304 l 0.85,3.541 c 0,0 2.437,2.007 4.926,0.53" /></g><g
           transform="translate(158.8761,325.257)"
           id="g164"><path
             id="path166"
             style="fill:#5a7faa;fill-opacity:1;fill-rule:nonzero;stroke:none"
             d="m 0,0 8.02,-1.637 3.307,-17.764 H -1.406 Z" /></g><g
           transform="translate(128.7438,343.0842)"
           id="g168"><path
             id="path170"
             style="fill:#ef7f6d;fill-opacity:1;fill-rule:nonzero;stroke:none"
             d="m 0,0 c 0,0 -3.99,1.056 -3.404,-2.465 0.587,-3.52 4.225,-2.347 4.225,-2.347 0,0 0.822,-6.572 7.629,-7.628 6.807,-1.057 10.562,4.021 10.562,6.294 0,2.273 -0.469,10.605 -3.168,14.126 C 13.145,11.501 -0.704,12.088 0,0" /></g></g></g><g
       id="g172"><g
         clip-path="url(#clipPath178)"
         id="g174"><g
           transform="translate(136.3717,336.9704)"
           id="g180"><path
             id="path182"
             style="fill:#e94e51;fill-opacity:1;fill-rule:nonzero;stroke:none"
             d="m 0,0 c 0,-1.692 -1.373,-3.065 -3.065,-3.065 -1.693,0 -3.065,1.373 -3.065,3.065 0,1.693 1.372,3.065 3.065,3.065 C -1.373,3.065 0,1.693 0,0" /></g><g
           transform="translate(149.4503,339.3141)"
           id="g184"><path
             id="path186"
             style="fill:#e94e51;fill-opacity:1;fill-rule:nonzero;stroke:none"
             d="m 0,0 c 0,-1.693 -1.372,-3.065 -3.065,-3.065 -1.692,0 -3.065,1.372 -3.065,3.065 0,1.692 1.373,3.065 3.065,3.065 C -1.372,3.065 0,1.692 0,0" /></g></g></g><g
       id="g188"><g
         clip-path="url(#clipPath194)"
         id="g190"><g
           transform="translate(135.0343,331.2253)"
           id="g196"><path
             id="path198"
             style="fill:#ef7f6d;fill-opacity:1;fill-rule:nonzero;stroke:none"
             d="m 0,0 c 0,0 0.372,-3.558 0,-4.308 -0.373,-0.749 -5.753,-3.541 -5.753,-3.541 0,0 2.929,-4.155 10.08,-3.746 7.152,0.408 8.958,5.108 8.958,5.108 0,0 -6.846,1.09 -7.255,2.452 -0.408,1.362 -0.259,3.468 -0.259,3.468 0,0 -1.108,1.946 -5.771,0.567" /></g><g
           transform="translate(140.11,344.5837)"
           id="g200"><path
             id="path202"
             style="fill:none;stroke:#e94e51;stroke-width:0.26100001;stroke-linecap:round;stroke-linejoin:round;stroke-miterlimit:10;stroke-dasharray:none;stroke-opacity:1"
             d="M 0,0 C 0,0 1.158,-4.223 1.294,-5.312 1.43,-6.402 0.647,-7.152 0.647,-7.152" /></g><g
           transform="translate(137.1139,336.2487)"
           id="g204"><path
             id="path206"
             style="fill:none;stroke:#e94e51;stroke-width:0.26100001;stroke-linecap:round;stroke-linejoin:round;stroke-miterlimit:10;stroke-dasharray:none;stroke-opacity:1"
             d="M 0,0 C 0,0 1.462,-2.248 4.103,-1.294" /></g><g
           transform="translate(137.5294,343.0558)"
           id="g208"><path
             id="path210"
             style="fill:#00173a;fill-opacity:1;fill-rule:nonzero;stroke:none"
             d="m 0,0 c 0,-0.32 -0.259,-0.579 -0.579,-0.579 -0.32,0 -0.579,0.259 -0.579,0.579 0,0.32 0.259,0.579 0.579,0.579 C -0.259,0.579 0,0.32 0,0" /></g><g
           transform="translate(134.9733,343.6603)"
           id="g212"><path
             id="path214"
             style="fill:#00173a;fill-opacity:1;fill-rule:nonzero;stroke:none"
             d="M 0,0 C -0.034,0.531 0.269,1.017 0.673,1.356 0.873,1.535 1.119,1.637 1.356,1.733 1.604,1.802 1.855,1.841 2.104,1.812 2.353,1.783 2.53,1.558 2.501,1.31 2.482,1.143 2.374,1.008 2.23,0.946 L 2.202,0.934 C 1.83,0.775 1.494,0.711 1.159,0.583 0.83,0.454 0.506,0.256 0.202,-0.051 L 0.185,-0.069 C 0.143,-0.112 0.074,-0.112 0.032,-0.07 0.012,-0.05 0.001,-0.025 0,0" /></g><g
           transform="translate(125.34,340.6193)"
           id="g216"><path
             id="path218"
             style="fill:none;stroke:#e94e51;stroke-width:0.26100001;stroke-linecap:round;stroke-linejoin:round;stroke-miterlimit:10;stroke-dasharray:none;stroke-opacity:1"
             d="m 0,0 c 0,0 1.625,1.555 4.486,-0.25 0,0 -2.16,0.216 -2,-2.259" /></g><g
           transform="translate(151.6329,339.6765)"
           id="g220"><path
             id="path222"
             style="fill:#f4b394;fill-opacity:1;fill-rule:nonzero;stroke:none"
             d="m 0,0 c 0,0 2.094,-1.211 5.759,-1.211 3.665,0 6.283,1.57 6.283,1.57 v -12.49 c 0,0 -2.618,-1.122 -6.021,-1.122 -3.403,0 -6.021,1.822 -6.021,1.822 z" /></g><g
           transform="translate(151.6329,339.6765)"
           id="g224"><path
             id="path226"
             style="fill:#00173a;fill-opacity:1;fill-rule:nonzero;stroke:none"
             d="m 0,0 c 0,0 0.149,1.332 6.021,1.332 5.871,0 6.021,-0.973 6.021,-0.973 0,0 -2.546,-1.57 -6.283,-1.57 C 2.022,-1.211 0,0 0,0" /></g><g
           id="g228"><g
             id="g230" /><g
             id="g242"><g
               style="opacity:0.5"
               id="g240"
               clip-path="url(#clipPath234)"><g
                 id="g238"
                 transform="translate(156.9044,339.7365)"><path
                   id="path236"
                   style="fill:#ffffff;fill-opacity:1;fill-rule:nonzero;stroke:none"
                   d="m 0,0 c 0,0 -3.477,0.586 -3.925,2.574 -0.449,1.988 5.46,3.783 5.908,5.653 0.449,1.87 -0.526,3.291 -1.983,4.487 0,0 3.928,-1.869 4.452,-4.338 C 4.975,5.908 3.18,3.204 1.385,2.574 -0.41,1.944 2.656,0 2.656,0 Z" /></g></g></g></g><g
           transform="translate(163.8239,336.7936)"
           id="g244"><path
             id="path246"
             style="fill:#ef7f6d;fill-opacity:1;fill-rule:nonzero;stroke:none"
             d="m 0,0 c 0,0 -5.534,-1.395 -6.357,-1.694 -0.823,-0.3 -0.673,-1.721 0,-1.87 l 0.673,-0.15 c 0,0 -0.972,-1.047 -0.149,-1.72 0.822,-0.673 1.196,-0.858 1.196,-0.858 0,0 -0.524,-0.937 0.075,-1.685 0.598,-0.748 3.889,-0.598 5.385,-0.449 1.496,0.15 1.645,1.425 1.645,2.134 0,0.709 0.674,4.395 0.598,4.982 -0.074,0.588 -3.141,2.981 -3.141,2.981 z" /></g><g
           transform="translate(142.3146,343.8439)"
           id="g248"><path
             id="path250"
             style="fill:#00173a;fill-opacity:1;fill-rule:nonzero;stroke:none"
             d="M 0,0 C 0.114,-0.299 0.449,-0.449 0.748,-0.334 1.046,-0.221 1.196,0.114 1.082,0.413 0.968,0.711 0.633,0.861 0.334,0.747 0.036,0.633 -0.114,0.298 0,0" /></g><g
           transform="translate(144.3165,345.1999)"
           id="g252"><path
             id="path254"
             style="fill:#00173a;fill-opacity:1;fill-rule:nonzero;stroke:none"
             d="m 0,0 c -0.394,0.179 -0.767,0.249 -1.12,0.251 -0.358,0 -0.695,-0.06 -1.1,-0.044 l -0.03,0.001 c -0.25,0.01 -0.444,0.221 -0.434,0.47 0.006,0.168 0.104,0.311 0.243,0.384 0.222,0.116 0.47,0.169 0.726,0.193 C -1.458,1.25 -1.192,1.243 -0.942,1.147 -0.443,0.974 0.013,0.628 0.171,0.12 0.188,0.063 0.157,0.002 0.1,-0.015 0.073,-0.023 0.046,-0.021 0.023,-0.01 Z" /></g><g
           transform="translate(140.8058,330.6579)"
           id="g256"><path
             id="path258"
             style="fill:none;stroke:#e94e51;stroke-width:0.26100001;stroke-linecap:round;stroke-linejoin:round;stroke-miterlimit:10;stroke-dasharray:none;stroke-opacity:1"
             d="M 0,0 C 0,0 -2.19,-0.429 -4.706,0.216" /></g><g
           transform="translate(158.1398,333.0798)"
           id="g260"><path
             id="path262"
             style="fill:none;stroke:#e94e51;stroke-width:0.26100001;stroke-linecap:round;stroke-linejoin:round;stroke-miterlimit:10;stroke-dasharray:none;stroke-opacity:1"
             d="M 0,0 5.888,1.032" /></g><g
           transform="translate(159.1871,330.5012)"
           id="g264"><path
             id="path266"
             style="fill:none;stroke:#e94e51;stroke-width:0.26100001;stroke-linecap:butt;stroke-linejoin:miter;stroke-miterlimit:10;stroke-dasharray:none;stroke-opacity:1"
             d="M 0,0 4.84,0.373" /></g><g
           transform="translate(147.1691,355.759)"
           id="g268"><path
             id="path270"
             style="fill:#00173a;fill-opacity:1;fill-rule:nonzero;stroke:none"
             d="m 0,0 c -1.291,1.408 -3.095,1.761 -4.342,-0.587 0,0 -0.352,3.873 -4.577,5.399 -4.225,1.525 -7.628,-3.756 -7.628,-3.756 0,0 -1.878,2.582 -3.052,1.291 -1.173,-1.291 0.118,-2.699 0.118,-2.699 0,0 -3.756,1.878 -4.226,0.352 -0.469,-1.525 1.057,-2.485 1.057,-2.485 0,0 -1.761,-1.622 -1.761,-4.557 0,-2.934 2.523,-3.99 2.523,-3.99 l 0.768,-1.846 c 0,0 1.052,0.438 2.695,0.203 0,0 0.927,0.191 1.155,1.194 0.638,-0.121 1.513,-0.095 2.6,0.449 2.347,1.174 1.408,3.873 1.408,3.873 0,0 1.057,-1.995 3.521,-2.347 2.465,-0.352 3.991,0.587 4.46,2.817 0,0 1.975,-3.091 4.626,-2.367 C 1.995,-8.333 1.291,-1.408 0,0" /></g><g
           transform="translate(130.63,310.8327)"
           id="g272"><path
             id="path274"
             style="fill:none;stroke:#5a7faa;stroke-width:0.26100001;stroke-linecap:round;stroke-linejoin:miter;stroke-miterlimit:10;stroke-dasharray:none;stroke-opacity:1"
             d="M 0,0 V -4.977" /></g><g
           transform="translate(128.2975,322.9391)"
           id="g276"><path
             id="path278"
             style="fill:none;stroke:#5a7faa;stroke-width:0.26100001;stroke-linecap:round;stroke-linejoin:miter;stroke-miterlimit:10;stroke-dasharray:1.042;stroke-dashoffset:0;stroke-opacity:1"
             d="m 0,0 c 0,0 3.75,-5.554 12.266,-4.218 8.516,1.336 8.877,5.569 8.877,5.569" /></g><g
           id="g280"><g
             id="g282" /><g
             id="g294"><g
               style="opacity:0.19999701"
               id="g292"
               clip-path="url(#clipPath286)"><g
                 id="g290"
                 transform="translate(207.8234,361.5773)"><path
                   id="path288"
                   style="fill:#ffffff;fill-opacity:1;fill-rule:nonzero;stroke:none"
                   d="m 0,0 c 0,0 7.639,-9.342 23.976,-12.15 16.337,-2.808 24.765,1.398 35.841,3.17 11.076,1.771 22.714,-7.841 22.714,-7.841 V 3.135 c 0,1.32 -1.071,2.39 -2.391,2.39 H 2.39 C 1.07,5.525 0,4.455 0,3.135 Z" /></g></g></g></g><g
           transform="translate(238.8756,337.0817)"
           id="g296"><path
             id="path298"
             style="fill:#00173a;fill-opacity:1;fill-rule:nonzero;stroke:none"
             d="m 0,0 -0.439,-14.575 c 0,0 4.979,-2.758 13.966,-2.048 8.988,0.71 13.062,2.947 13.062,2.947 0,0 -4.018,9.181 -4.081,15.93 z" /></g><g
           transform="translate(240.8698,323.6052)"
           id="g300"><path
             id="path302"
             style="fill:#00aad0;fill-opacity:1;fill-rule:nonzero;stroke:none"
             d="m 0,0 c 0,0 -8.822,-3.826 -9.991,-5.42 -1.169,-1.595 -3.507,-12.33 -3.507,-12.33 h 45.171 c 0,0 -0.85,9.672 -2.444,12.967 -1.594,3.295 -9.495,7.709 -9.495,7.709 z" /></g><g
           transform="translate(262.9772,305.8557)"
           id="g304"><path
             id="path306"
             style="fill:none;stroke:#00173a;stroke-width:0.26100001;stroke-linecap:round;stroke-linejoin:miter;stroke-miterlimit:10;stroke-dasharray:none;stroke-opacity:1"
             d="M 0,0 -0.956,7.44" /></g><g
           transform="translate(236.0807,305.8557)"
           id="g308"><path
             id="path310"
             style="fill:none;stroke:#00173a;stroke-width:0.26100001;stroke-linecap:round;stroke-linejoin:miter;stroke-miterlimit:10;stroke-dasharray:none;stroke-opacity:1"
             d="M 0,0 1.51,7.44" /></g><g
           transform="translate(238.6378,348.2634)"
           id="g312"><path
             id="path314"
             style="fill:#ef7f6d;fill-opacity:1;fill-rule:nonzero;stroke:none"
             d="m 0,0 c -0.319,-1.594 -0.212,-8.715 0,-10.203 0.213,-1.488 1.488,-5.909 10.628,-5.984 9.141,-0.075 12.118,7.259 12.118,7.259 0,0 2.869,0.92 2.762,3.755 -0.106,2.835 -3.188,3.048 -3.188,3.048 L 22.426,0 c 0,0 -4.251,2.976 -10.947,2.764 C 4.783,2.551 0,0 0,0" /></g><g
           transform="translate(264.1451,342.9016)"
           id="g316"><path
             id="path318"
             style="fill:none;stroke:#e94e51;stroke-width:0.26100001;stroke-linecap:round;stroke-linejoin:round;stroke-miterlimit:10;stroke-dasharray:none;stroke-opacity:1"
             d="m 0,0 c 0,0 -2.011,1.474 -3.316,-0.378 0,0 1.492,-0.605 1.462,-2.744" /></g><g
           transform="translate(237.8082,351.822)"
           id="g320"><path
             id="path322"
             style="fill:#e94e51;fill-opacity:1;fill-rule:nonzero;stroke:none"
             d="m 0,0 c 0,0 1.145,3.35 4.92,6.857 3.775,3.508 15.791,4.783 21.421,-0.85 5.631,-5.633 5.098,-15.85 4.887,-17.703 l -1.702,-0.346 c 0,0 -0.743,4.519 -2.019,6.289 -1.276,1.769 -1.132,-0.32 -3.162,0.123 -2.03,0.443 0.08,3.688 -3.853,4.846 C 16.56,0.374 5.187,-0.525 1.999,-1.723 -1.19,-2.921 0,0 0,0" /></g><g
           transform="translate(265.858,339.0114)"
           id="g324"><path
             id="path326"
             style="fill:#ffffff;fill-opacity:1;fill-rule:nonzero;stroke:none"
             d="m 0,0 c 0,-1.406 1.14,-2.546 2.545,-2.546 1.406,0 2.546,1.14 2.546,2.546 0,1.406 -1.14,2.545 -2.546,2.545 C 1.14,2.545 0,1.406 0,0" /></g><g
           transform="translate(246.4557,345.4753)"
           id="g328"><path
             id="path330"
             style="fill:none;stroke:#e94e51;stroke-width:0.26100001;stroke-linecap:round;stroke-linejoin:round;stroke-miterlimit:10;stroke-dasharray:none;stroke-opacity:1"
             d="M 0,0 C 0,0 -0.686,-4.508 0,-5.696 0.685,-6.884 1.74,-6.464 1.74,-6.464" /></g><g
           transform="translate(246.6554,335.8522)"
           id="g332"><path
             id="path334"
             style="fill:none;stroke:#e94e51;stroke-width:0.26100001;stroke-linecap:round;stroke-linejoin:round;stroke-miterlimit:10;stroke-dasharray:none;stroke-opacity:1"
             d="M 0,0 C 0,0 4.366,0.305 5.748,3.66" /></g><g
           transform="translate(260.6041,340.1257)"
           id="g336"><path
             id="path338"
             style="fill:#e94e51;fill-opacity:1;fill-rule:nonzero;stroke:none"
             d="m 0,0 c 0,-1.976 -1.602,-3.578 -3.578,-3.578 -1.976,0 -3.577,1.602 -3.577,3.578 0,1.976 1.601,3.578 3.577,3.578 C -1.602,3.578 0,1.976 0,0" /></g><g
           transform="translate(246.151,332.3005)"
           id="g340"><path
             id="path342"
             style="fill:#ef7f6d;fill-opacity:1;fill-rule:nonzero;stroke:none"
             d="m 0,0 c 0,0 1.4,-4.023 0.504,-5.296 -0.896,-1.273 -5.785,-3.399 -5.785,-3.399 0,0 5.813,-2.87 12.579,-0.638 6.764,2.232 7.155,3.563 7.155,3.563 0,0 -4.11,0.901 -5.173,2.389 C 8.217,-1.893 7.298,0.322 7.298,0.322 7.298,0.322 4.431,2.106 0,0" /></g><g
           transform="translate(238.4367,344.8625)"
           id="g344"><path
             id="path346"
             style="fill:#00173a;fill-opacity:1;fill-rule:nonzero;stroke:none"
             d="M 0,0 C 0,0 4.968,0.485 9.759,6.035 9.759,6.035 5.113,8.29 0,4.783 0,4.783 -2.646,1.913 0,0" /></g><g
           transform="translate(251.2931,351.611)"
           id="g348"><path
             id="path350"
             style="fill:#00173a;fill-opacity:1;fill-rule:nonzero;stroke:none"
             d="m 0,0 c 0,0 1.055,-2.285 2.969,-3.879 1.913,-1.594 4.889,-1.807 4.889,-1.807 0,0 -1.275,-5.739 2.232,-6.589 L 9.771,-3.348 C 9.771,-3.348 8.462,0.146 0,0" /></g><g
           transform="translate(249.7921,352.7033)"
           id="g352"><path
             id="path354"
             style="fill:none;stroke:#00173a;stroke-width:0.52100003;stroke-linecap:round;stroke-linejoin:miter;stroke-miterlimit:10;stroke-dasharray:none;stroke-opacity:1"
             d="M 0,0 C 0,0 0.364,-4.765 4.966,-6.339" /></g><g
           transform="translate(237.2609,351.6154)"
           id="g356"><path
             id="path358"
             style="fill:#ffffff;fill-opacity:1;fill-rule:nonzero;stroke:none"
             d="m 0,0 c 0,0 -1.28,-0.27 -1.174,-2.396 0.107,-2.125 -0.108,-3.204 0.584,-3.082 0.692,0.123 4.399,3.359 12.171,3.72 7.771,0.362 11.345,-3.568 12.116,-3.72 0.77,-0.152 2.019,-0.266 2.019,2.099 0,2.365 -0.106,2.267 -2.231,3.379 C 21.359,1.112 12.971,5.053 0,0" /></g><g
           transform="translate(251.5514,344.1642)"
           id="g360"><path
             id="path362"
             style="fill:#00173a;fill-opacity:1;fill-rule:nonzero;stroke:none"
             d="m 0,0 c 0,-0.337 -0.273,-0.611 -0.611,-0.611 -0.338,0 -0.611,0.274 -0.611,0.611 0,0.338 0.273,0.611 0.611,0.611 C -0.273,0.611 0,0.338 0,0" /></g><g
           transform="translate(250.5192,346.1559)"
           id="g364"><path
             id="path366"
             style="fill:none;stroke:#00173a;stroke-width:0.52100003;stroke-linecap:round;stroke-linejoin:miter;stroke-miterlimit:10;stroke-dasharray:none;stroke-opacity:1"
             d="M 0,0 C 0,0 0.965,0.162 1.432,-0.565" /></g><g
           transform="translate(243.4005,344.1642)"
           id="g368"><path
             id="path370"
             style="fill:#00173a;fill-opacity:1;fill-rule:nonzero;stroke:none"
             d="m 0,0 c 0,-0.337 0.273,-0.611 0.611,-0.611 0.338,0 0.611,0.274 0.611,0.611 0,0.338 -0.273,0.611 -0.611,0.611 C 0.273,0.611 0,0.338 0,0" /></g><g
           transform="translate(244.4328,346.1559)"
           id="g372"><path
             id="path374"
             style="fill:none;stroke:#00173a;stroke-width:0.52100003;stroke-linecap:round;stroke-linejoin:miter;stroke-miterlimit:10;stroke-dasharray:none;stroke-opacity:1"
             d="M 0,0 C 0,0 -0.965,0.162 -1.431,-0.565" /></g><g
           transform="translate(246.151,332.3005)"
           id="g376"><path
             id="path378"
             style="fill:none;stroke:#e94e51;stroke-width:0.26100001;stroke-linecap:round;stroke-linejoin:round;stroke-miterlimit:10;stroke-dasharray:none;stroke-opacity:1"
             d="M 0,0 C 0,0 3.806,-0.413 6.478,0.303" /></g><g
           transform="translate(239.6979,323.0837)"
           id="g380"><path
             id="path382"
             style="fill:none;stroke:#00173a;stroke-width:0.26100001;stroke-linecap:round;stroke-linejoin:miter;stroke-miterlimit:10;stroke-dasharray:1.042;stroke-dashoffset:0;stroke-opacity:1"
             d="m 0,0 c 0,0 3.147,-2.743 9.391,-2.319 6.244,0.423 10.595,2.953 12.932,4.929" /></g><g
           transform="translate(242.4699,239.7888)"
           id="g384"><path
             id="path386"
             style="fill:#546699;fill-opacity:1;fill-rule:nonzero;stroke:none"
             d="m 0,0 c 0,0 -4.716,-2.422 -6.096,-4.02 -1.38,-1.598 -2.324,-5.692 -2.905,-9.056 h 32.977 c 0,0 -0.218,7.312 -1.743,10.001 -1.525,2.687 -5.844,4.156 -5.844,4.156 z" /></g><g
           transform="translate(247.5265,250.6076)"
           id="g388"><path
             id="path390"
             style="fill:#ef7f6d;fill-opacity:1;fill-rule:nonzero;stroke:none"
             d="m 0,0 c 0,0 0.707,-3.434 0.646,-4.935 -0.06,-1.501 -0.96,-3.122 -5.703,-5.884 0,0 1.021,-1.681 4.383,-2.281 3.362,-0.6 9.845,0.421 12.007,3.362 0,0 -4.923,2.221 -5.164,4.923 -0.24,2.701 -0.52,5.539 -0.52,5.539 0,0 -2.454,1.57 -5.649,-0.724" /></g><g
           transform="translate(234.0553,280.5344)"
           id="g392"><path
             id="path394"
             style="fill:#f4b394;fill-opacity:1;fill-rule:nonzero;stroke:none"
             d="M 0,0 C -0.02,0.462 0.338,0.853 0.8,0.873 1.275,0.896 1.652,0.535 1.672,0.073 1.751,-1.73 2.406,-2.698 3.092,-3.22 2.674,-1.763 2.549,0.045 2.422,1.907 L 2.339,3.092 C 2.305,3.553 2.65,3.955 3.112,3.989 3.583,4.038 3.975,3.678 4.009,3.217 L 4.093,2.02 c 0.075,-1.109 0.15,-2.195 0.283,-3.163 0.242,0.07 0.449,0.187 0.62,0.364 C 5.717,-0.032 5.763,1.526 5.72,2.063 5.683,2.523 6.025,2.928 6.485,2.965 6.95,3.008 7.35,2.663 7.388,2.203 7.412,1.929 7.575,-0.51 6.206,-1.936 5.797,-2.361 5.285,-2.638 4.705,-2.78 c 0.289,-0.983 0.732,-1.678 1.448,-1.888 2.248,-0.655 4.743,-0.42 4.767,-0.418 0.46,0.056 0.87,-0.289 0.915,-0.75 0.046,-0.46 -0.29,-0.87 -0.749,-0.915 -0.048,-0.005 -0.551,-0.054 -1.308,-0.054 -1.054,0 -2.6,0.095 -4.093,0.53 C 5.133,-6.114 4.686,-5.838 4.314,-5.476 2.708,-5.28 0.173,-3.973 0,0" /></g><g
           transform="translate(240.3898,269.2878)"
           id="g396"><path
             id="path398"
             style="fill:#00173a;fill-opacity:1;fill-rule:nonzero;stroke:none"
             d="M 0,0 C 0,0 -3.131,-1.366 -3.437,-4.67 -3.742,-7.975 0,-8.789 0,-8.789 c 0,0 2.053,-2.033 8.051,-2.846 5.998,-0.813 9.455,0.406 9.455,0.406 0,0 4.863,-1.608 6.905,0.721 2.042,2.329 0.477,7.566 -0.469,9.167 0,0 -0.739,12.58 -11.822,11.564 C 12.12,10.223 2.115,14.176 0,0" /></g><g
           transform="translate(241.7316,270.259)"
           id="g400"><path
             id="path402"
             style="fill:#ef7f6d;fill-opacity:1;fill-rule:nonzero;stroke:none"
             d="m 0,0 c 0,0 -1.361,-8.827 -1.341,-11.479 0.019,-2.652 1.544,-7.592 7.136,-8.172 5.591,-0.58 9.454,1.962 10.37,7.451 0,0 3.863,-0.101 4.575,2.949 0.711,3.05 -3.762,3.863 -3.762,3.863 0,0 1.017,3.965 -1.118,7.218 C 13.724,5.083 10.118,6.1 7.346,5.693 4.575,5.287 0.489,3.358 0,0" /></g></g></g><g
       id="g404"><g
         clip-path="url(#clipPath410)"
         id="g406"><g
           transform="translate(257.5328,262.4299)"
           id="g412"><path
             id="path414"
             style="fill:#e94e51;fill-opacity:1;fill-rule:nonzero;stroke:none"
             d="m 0,0 c 0,-1.606 -1.303,-2.909 -2.909,-2.909 -1.607,0 -2.908,1.303 -2.908,2.909 0,1.607 1.301,2.909 2.908,2.909 C -1.303,2.909 0,1.607 0,0" /></g><g
           transform="translate(243.4088,263.2819)"
           id="g416"><path
             id="path418"
             style="fill:#e94e51;fill-opacity:1;fill-rule:nonzero;stroke:none"
             d="m 0,0 c 0,-1.606 -1.302,-2.909 -2.909,-2.909 -1.607,0 -2.909,1.303 -2.909,2.909 0,1.606 1.302,2.909 2.909,2.909 C -1.302,2.909 0,1.606 0,0" /></g></g></g><g
       id="g420"><g
         clip-path="url(#clipPath426)"
         id="g422"><g
           transform="translate(250.4747,275.0373)"
           id="g428"><path
             id="path430"
             style="fill:#00173a;fill-opacity:1;fill-rule:nonzero;stroke:none"
             d="m 0,0 c 0,0 -5.123,-5.705 -10.085,-5.75 0,0 -0.935,-0.045 0.001,2.192 0.934,2.236 3.329,7.677 11.078,6.227 7.749,-1.449 8.664,-5.922 8.664,-7.244 0,-1.321 -0.492,-5.845 -0.492,-5.845 l -0.931,0.253 C 8.235,-10.167 -0.61,-7.32 0,0" /></g><g
           transform="translate(268.8961,280.5344)"
           id="g432"><path
             id="path434"
             style="fill:#f4b394;fill-opacity:1;fill-rule:nonzero;stroke:none"
             d="m 0,0 c 0.021,0.462 -0.338,0.853 -0.799,0.873 -0.476,0.023 -0.853,-0.338 -0.873,-0.8 -0.079,-1.803 -0.733,-2.771 -1.42,-3.293 0.419,1.457 0.543,3.265 0.67,5.127 l 0.083,1.185 C -2.305,3.553 -2.65,3.955 -3.111,3.989 -3.582,4.038 -3.975,3.678 -4.009,3.217 L -4.093,2.02 c -0.075,-1.109 -0.15,-2.195 -0.283,-3.163 -0.242,0.07 -0.449,0.187 -0.619,0.364 -0.721,0.747 -0.768,2.305 -0.725,2.842 0.037,0.46 -0.305,0.865 -0.765,0.902 -0.464,0.043 -0.865,-0.302 -0.903,-0.762 -0.023,-0.274 -0.186,-2.713 1.182,-4.139 0.409,-0.425 0.922,-0.702 1.502,-0.844 -0.289,-0.983 -0.732,-1.678 -1.449,-1.888 -2.247,-0.655 -4.743,-0.42 -4.767,-0.418 -0.459,0.056 -0.869,-0.289 -0.915,-0.75 -0.046,-0.46 0.29,-0.87 0.749,-0.915 0.048,-0.005 0.551,-0.054 1.309,-0.054 1.053,0 2.599,0.095 4.092,0.53 0.552,0.161 1,0.437 1.371,0.799 C -2.708,-5.28 -0.173,-3.973 0,0" /></g><g
           transform="translate(249.4288,264.989)"
           id="g436"><path
             id="path438"
             style="fill:#e94e51;fill-opacity:1;fill-rule:nonzero;stroke:none"
             d="m 0,0 c -0.087,-0.842 -1.016,-1.436 -2.074,-1.326 -1.057,0.11 -1.844,0.882 -1.757,1.723 0.088,0.843 1.016,1.436 2.074,1.327 C -0.699,1.614 0.087,0.842 0,0" /></g><g
           transform="translate(245.5919,267.4938)"
           id="g440"><path
             id="path442"
             style="fill:#00173a;fill-opacity:1;fill-rule:nonzero;stroke:none"
             d="m 0,0 c 0,-0.348 -0.282,-0.63 -0.63,-0.63 -0.349,0 -0.631,0.282 -0.631,0.63 0,0.348 0.282,0.63 0.631,0.63 C -0.282,0.63 0,0.348 0,0" /></g><g
           transform="translate(245.8947,257.9216)"
           id="g444"><path
             id="path446"
             style="fill:none;stroke:#e94e51;stroke-width:0.26100001;stroke-linecap:round;stroke-linejoin:round;stroke-miterlimit:10;stroke-dasharray:none;stroke-opacity:1"
             d="M 0,0 C 0,0 3.992,-0.66 5.373,3.242" /></g><g
           transform="translate(261.3522,263.2819)"
           id="g448"><path
             id="path450"
             style="fill:none;stroke:#e94e51;stroke-width:0.26100001;stroke-linecap:round;stroke-linejoin:round;stroke-miterlimit:10;stroke-dasharray:none;stroke-opacity:1"
             d="m 0,0 c 0,0 -3.458,-0.219 -3.456,-5.223 0,0 1.424,3.141 4.164,1.931" /></g><g
           transform="translate(252.3454,266.8635)"
           id="g452"><path
             id="path454"
             style="fill:#00173a;fill-opacity:1;fill-rule:nonzero;stroke:none"
             d="m 0,0 c 0,-0.348 -0.282,-0.63 -0.63,-0.63 -0.349,0 -0.631,0.282 -0.631,0.63 0,0.348 0.282,0.63 0.631,0.63 C -0.282,0.63 0,0.348 0,0" /></g><g
           transform="translate(251.4684,268.5236)"
           id="g456"><path
             id="path458"
             style="fill:none;stroke:#00173a;stroke-width:0.52100003;stroke-linecap:round;stroke-linejoin:miter;stroke-miterlimit:10;stroke-dasharray:none;stroke-opacity:1"
             d="M 0,0 C 0,0 1.038,0.191 1.443,-1.03" /></g><g
           transform="translate(245.2965,269.009)"
           id="g460"><path
             id="path462"
             style="fill:none;stroke:#00173a;stroke-width:0.52100003;stroke-linecap:round;stroke-linejoin:miter;stroke-miterlimit:10;stroke-dasharray:none;stroke-opacity:1"
             d="M 0,0 C 0,0 -0.873,0.109 -1.228,-0.6" /></g><g
           transform="translate(247.5265,250.6076)"
           id="g464"><path
             id="path466"
             style="fill:none;stroke:#e94e51;stroke-width:0.26100001;stroke-linecap:round;stroke-linejoin:round;stroke-miterlimit:10;stroke-dasharray:none;stroke-opacity:1"
             d="M 0,0 C 0,0 2.368,-0.198 3.558,0.093" /></g><g
           transform="translate(241.2746,239.1452)"
           id="g468"><path
             id="path470"
             style="fill:none;stroke:#5a7faa;stroke-width:0.26100001;stroke-linecap:round;stroke-linejoin:miter;stroke-miterlimit:10;stroke-dasharray:1.042;stroke-dashoffset:0;stroke-opacity:1"
             d="m 0,0 c 0,0 1.829,-3.634 8.683,-3.484 6.854,0.148 10.175,4.682 10.175,4.682" /></g><g
           transform="translate(258.3707,231.4255)"
           id="g472"><path
             id="path474"
             style="fill:none;stroke:#5a7faa;stroke-width:0.26100001;stroke-linecap:round;stroke-linejoin:miter;stroke-miterlimit:10;stroke-dasharray:none;stroke-opacity:1"
             d="M 0,0 0.488,-4.713" /></g><g
           transform="translate(239.9747,231.0534)"
           id="g476"><path
             id="path478"
             style="fill:none;stroke:#5a7faa;stroke-width:0.26100001;stroke-linecap:round;stroke-linejoin:miter;stroke-miterlimit:10;stroke-dasharray:none;stroke-opacity:1"
             d="M 0,0 -0.7,-4.341" /></g><g
           transform="translate(134.7272,240.8649)"
           id="g480"><path
             id="path482"
             style="fill:#0097b8;fill-opacity:1;fill-rule:nonzero;stroke:none"
             d="m 0,0 c 0,0 -6.497,-2.669 -7.85,-4.325 -1.352,-1.656 -1.813,-6.625 -2.548,-9.478 h 37.452 c 0,0 -1.288,7.915 -1.748,9.985 -0.461,2.07 -5.648,4.534 -7.73,5.291 C 15.494,2.229 0,0 0,0" /></g><g
           transform="translate(165.8834,275.6823)"
           id="g484"><path
             id="path486"
             style="fill:#00173a;fill-opacity:1;fill-rule:nonzero;stroke:none"
             d="m 0,0 c 0,-4.433 -3.708,-8.027 -8.282,-8.027 -4.574,0 -8.282,3.594 -8.282,8.027 0,4.433 3.708,8.027 8.282,8.027 C -3.708,8.027 0,4.433 0,0" /></g><g
           transform="translate(153.9425,268.5632)"
           id="g488"><path
             id="path490"
             style="fill:#ef7f6d;fill-opacity:1;fill-rule:nonzero;stroke:none"
             d="m 0,0 c 0.213,-2.871 0.535,-13.343 0,-14.539 -0.535,-1.196 -7.161,-5.43 -9.921,-5.522 -2.761,-0.091 -9.571,2.393 -10.859,4.51 -1.288,2.116 -1.748,4.509 -1.748,4.509 0,0 -4.141,-1.657 -4.509,2.208 -0.368,3.865 3.037,4.417 4.693,2.393 0,0 -0.737,3.22 1.012,7.545 1.749,4.325 5.89,7.546 11.963,7.178 C -3.296,7.914 -0.226,3.048 0,0" /></g></g></g><g
       id="g492"><g
         clip-path="url(#clipPath498)"
         id="g494"><g
           transform="translate(139.3405,260.0436)"
           id="g500"><path
             id="path502"
             style="fill:#e94e51;fill-opacity:1;fill-rule:nonzero;stroke:none"
             d="m 0,0 c 0,-2.02 -1.637,-3.657 -3.656,-3.657 -2.02,0 -3.657,1.637 -3.657,3.657 0,2.02 1.637,3.656 3.657,3.656 C -1.637,3.656 0,2.02 0,0" /></g><g
           transform="translate(157.1149,259.778)"
           id="g504"><path
             id="path506"
             style="fill:#e94e51;fill-opacity:1;fill-rule:nonzero;stroke:none"
             d="m 0,0 c -0.147,-2.014 -1.898,-3.528 -3.913,-3.381 -2.014,0.147 -3.527,1.898 -3.381,3.912 0.147,2.014 1.898,3.528 3.913,3.382 C -1.367,3.766 0.146,2.014 0,0" /></g><g
           transform="translate(126.2916,261.1691)"
           id="g508"><path
             id="path510"
             style="fill:none;stroke:#e94e51;stroke-width:0.26100001;stroke-linecap:round;stroke-linejoin:round;stroke-miterlimit:10;stroke-dasharray:none;stroke-opacity:1"
             d="m 0,0 c 0,0 3.015,1.315 5.147,-1.125 0,0 -2.573,-1.282 -2.279,-3.369" /></g></g></g><g
       id="g512"><g
         clip-path="url(#clipPath518)"
         id="g514"><g
           transform="translate(139.6979,249.3356)"
           id="g520"><path
             id="path522"
             style="fill:#ef7f6d;fill-opacity:1;fill-rule:nonzero;stroke:none"
             d="m 0,0 0.458,-3.041 c 0,0 0,-1.289 -0.828,-2.024 -0.828,-0.737 -4.601,-3.406 -4.601,-3.406 0,0 3.129,-3.129 9.478,-3.129 6.35,0 8.098,4.602 8.098,4.602 0,0 -3.681,1.104 -4.141,2.116 -0.46,1.013 -1.967,4.599 -1.967,4.599 0,0 -3.459,1.576 -6.497,0.283" /></g><g
           transform="translate(145.0333,275.7409)"
           id="g524"><path
             id="path526"
             style="fill:#00173a;fill-opacity:1;fill-rule:nonzero;stroke:none"
             d="m 0,0 c 0,0 -3.865,-6.35 -10.306,-7.454 0,0 0.644,-5.337 -3.129,-6.165 0,0 -1.697,1.908 -3.425,0.862 0,0 -0.808,3.371 -0.808,5.303 0,1.933 0.736,10.031 13.987,11.043 13.251,1.012 14.422,-7.213 12.674,-12.182 0,0 -6.14,2.98 -8.993,8.593" /></g><g
           transform="translate(134.1071,273.2785)"
           id="g528"><path
             id="path530"
             style="fill:#00173a;fill-opacity:1;fill-rule:nonzero;stroke:none"
             d="m 0,0 c 0,-4.433 -3.708,-8.027 -8.282,-8.027 -4.574,0 -8.281,3.594 -8.281,8.027 0,4.433 3.707,8.027 8.281,8.027 C -3.708,8.027 0,4.433 0,0" /></g><g
           transform="translate(133.0582,277.1833)"
           id="g532"><path
             id="path534"
             style="fill:#e94e51;fill-opacity:1;fill-rule:nonzero;stroke:none"
             d="M 0,0 -2.84,7.208 H 1.049 Z" /></g><g
           transform="translate(133.0582,277.1833)"
           id="g536"><path
             id="path538"
             style="fill:#e94e51;fill-opacity:1;fill-rule:nonzero;stroke:none"
             d="M 0,0 4.062,5.919 5.718,3.604 Z" /></g><g
           transform="translate(149.8307,278.4484)"
           id="g540"><path
             id="path542"
             style="fill:#e94e51;fill-opacity:1;fill-rule:nonzero;stroke:none"
             d="M 0,0 -0.511,6.955 -3.325,5.942 Z" /></g><g
           transform="translate(149.8307,278.4484)"
           id="g544"><path
             id="path546"
             style="fill:#e94e51;fill-opacity:1;fill-rule:nonzero;stroke:none"
             d="M 0,0 5.011,5.942 7.166,3.477 Z" /></g><g
           transform="translate(144.8493,267.6555)"
           id="g548"><path
             id="path550"
             style="fill:none;stroke:#e94e51;stroke-width:0.26100001;stroke-linecap:round;stroke-linejoin:round;stroke-miterlimit:10;stroke-dasharray:none;stroke-opacity:1"
             d="M 0,0 C 0.276,-0.657 2.024,-6.178 0.92,-6.914" /></g><g
           transform="translate(142.2516,265.4743)"
           id="g552"><path
             id="path554"
             style="fill:#00173a;fill-opacity:1;fill-rule:nonzero;stroke:none"
             d="m 0,0 c 0,-0.291 -0.236,-0.527 -0.527,-0.527 -0.29,0 -0.526,0.236 -0.526,0.527 0,0.291 0.236,0.526 0.526,0.526 C -0.236,0.526 0,0.291 0,0" /></g><g
           transform="translate(140.2492,267.4694)"
           id="g556"><path
             id="path558"
             style="fill:none;stroke:#00173a;stroke-width:0.52100003;stroke-linecap:round;stroke-linejoin:miter;stroke-miterlimit:10;stroke-dasharray:none;stroke-opacity:1"
             d="M 0,0 C 0.465,0.353 1.124,0.664 1.982,0.634" /></g><g
           transform="translate(162.5939,246.3434)"
           id="g560"><path
             id="path562"
             style="fill:#00aad0;fill-opacity:1;fill-rule:nonzero;stroke:none"
             d="M 0,0 -1.604,-19.281 H 12.245 L 6.879,-1.073 c 0,0 -1.585,2.34 -6.879,1.073" /></g><g
           transform="translate(149.1017,258.5563)"
           id="g564"><path
             id="path566"
             style="fill:#00173a;fill-opacity:1;fill-rule:nonzero;stroke:none"
             d="m 0,0 c -1.447,-0.339 -4.937,-1.034 -8.526,2.25 -0.169,0.153 -0.44,0.074 -0.478,-0.15 -0.234,-1.371 -0.505,-5.142 3.27,-6.294 3.802,-1.159 5.552,2.463 6.063,3.817 C 0.409,-0.164 0.222,0.052 0,0" /></g><g
           transform="translate(146.277,254.4284)"
           id="g568"><path
             id="path570"
             style="fill:#e94e51;fill-opacity:1;fill-rule:nonzero;stroke:none"
             d="m 0,0 c 0,0 -1.077,4.919 -6.298,4.806 0,0 -0.224,-2.392 1.318,-3.869 C -4.055,0.051 -1.49,-0.789 0,0" /></g><g
           transform="translate(147.4469,265.4743)"
           id="g572"><path
             id="path574"
             style="fill:#00173a;fill-opacity:1;fill-rule:nonzero;stroke:none"
             d="m 0,0 c 0,-0.291 0.236,-0.527 0.527,-0.527 0.291,0 0.527,0.236 0.527,0.527 0,0.291 -0.236,0.526 -0.527,0.526 C 0.236,0.526 0,0.291 0,0" /></g><g
           transform="translate(149.4494,267.4694)"
           id="g576"><path
             id="path578"
             style="fill:none;stroke:#00173a;stroke-width:0.52100003;stroke-linecap:round;stroke-linejoin:miter;stroke-miterlimit:10;stroke-dasharray:none;stroke-opacity:1"
             d="M 0,0 C -0.465,0.353 -1.124,0.664 -1.981,0.634" /></g><g
           transform="translate(146.1945,249.0524)"
           id="g580"><path
             id="path582"
             style="fill:none;stroke:#e94e51;stroke-width:0.26100001;stroke-linecap:round;stroke-linejoin:round;stroke-miterlimit:10;stroke-dasharray:none;stroke-opacity:1"
             d="M 0,0 C 0,0 -1.44,-0.437 -2.898,-0.552 -4.356,-0.667 -5.638,0 -5.638,0" /></g><g
           transform="translate(162.6598,252.5651)"
           id="g584"><path
             id="path586"
             style="fill:#ef7f6d;fill-opacity:1;fill-rule:nonzero;stroke:none"
             d="m 0,0 c -0.178,-0.702 -0.999,-1.004 -1.588,-0.583 -0.346,0.246 -0.741,0.494 -1.14,0.676 -1.163,0.531 -2.307,0.879 -2.875,0.082 -0.567,-0.797 3.478,-2.41 3.869,-3.535 0.39,-1.124 0.729,-3.588 3.778,-4.485 3.05,-0.896 4.608,-0.467 6.805,3.453 2.196,3.92 4.737,10.746 5.168,11.992 0.43,1.245 -0.419,2.493 -1.536,0.716 C 11.364,6.54 9.995,3.136 9.235,2.412 8.475,1.689 8.653,3.326 9.642,5.46 10.63,7.594 12.006,11.869 10.891,12.125 9.975,12.335 5.959,3.653 5.584,3.708 5.208,3.763 4.807,4.27 6.125,7.731 c 1.317,3.462 2.571,5.982 1.979,6.358 -0.799,0.508 -2.026,-0.351 -4.973,-9.71 0,0 -1.309,-0.778 -0.888,1.484 0.421,2.262 0.996,4.828 1.276,5.729 0.279,0.9 -1.28,1.695 -1.864,-1.706 C 1.071,6.485 0.57,3.179 0.35,1.687 0.266,1.122 0.133,0.525 0,0" /></g><g
           transform="translate(139.1696,268.717)"
           id="g588"><path
             id="path590"
             style="fill:none;stroke:#00173a;stroke-width:0.52100003;stroke-linecap:round;stroke-linejoin:miter;stroke-miterlimit:10;stroke-dasharray:none;stroke-opacity:1"
             d="M 0,0 C 0,0 4.918,2.301 5.864,7.024" /></g><g
           transform="translate(327.8619,345.967)"
           id="g592"><path
             id="path594"
             style="fill:#00aad0;fill-opacity:1;fill-rule:nonzero;stroke:none"
             d="m 0,0 c 0,-3.398 -2.756,-6.154 -6.154,-6.154 -3.399,0 -6.155,2.756 -6.155,6.154 0,3.399 2.756,6.154 6.155,6.154 C -2.756,6.154 0,3.399 0,0" /></g><g
           transform="translate(374.8639,348.5534)"
           id="g596"><path
             id="path598"
             style="fill:#ffffff;fill-opacity:1;fill-rule:nonzero;stroke:none"
             d="m 0,0 h -42.275 c -0.74,0 -1.338,0.599 -1.338,1.338 0,0.739 0.598,1.338 1.338,1.338 H 0 C 0.739,2.676 1.338,2.077 1.338,1.338 1.338,0.599 0.739,0 0,0" /></g><g
           transform="translate(360.9186,344.0676)"
           id="g600"><path
             id="path602"
             style="fill:#ffffff;fill-opacity:1;fill-rule:nonzero;stroke:none"
             d="m 0,0 h -28.33 c -0.739,0 -1.338,0.599 -1.338,1.337 0,0.74 0.599,1.338 1.338,1.338 H 0 C 0.738,2.675 1.338,2.077 1.338,1.337 1.338,0.599 0.738,0 0,0" /></g><g
           transform="translate(327.8619,320.819)"
           id="g604"><path
             id="path606"
             style="fill:#00aad0;fill-opacity:1;fill-rule:nonzero;stroke:none"
             d="m 0,0 c 0,-3.398 -2.756,-6.154 -6.154,-6.154 -3.399,0 -6.155,2.756 -6.155,6.154 0,3.399 2.756,6.154 6.155,6.154 C -2.756,6.154 0,3.399 0,0" /></g><g
           transform="translate(374.8639,323.4059)"
           id="g608"><path
             id="path610"
             style="fill:#ffffff;fill-opacity:1;fill-rule:nonzero;stroke:none"
             d="m 0,0 h -42.275 c -0.74,0 -1.338,0.599 -1.338,1.337 0,0.74 0.598,1.338 1.338,1.338 H 0 C 0.739,2.675 1.338,2.077 1.338,1.337 1.338,0.599 0.739,0 0,0" /></g><g
           transform="translate(360.9186,318.9196)"
           id="g612"><path
             id="path614"
             style="fill:#ffffff;fill-opacity:1;fill-rule:nonzero;stroke:none"
             d="m 0,0 h -28.33 c -0.739,0 -1.338,0.599 -1.338,1.338 0,0.739 0.599,1.337 1.338,1.337 H 0 C 0.738,2.675 1.338,2.077 1.338,1.338 1.338,0.599 0.738,0 0,0" /></g><g
           transform="translate(327.8619,295.6711)"
           id="g616"><path
             id="path618"
             style="fill:#00aad0;fill-opacity:1;fill-rule:nonzero;stroke:none"
             d="m 0,0 c 0,-3.398 -2.756,-6.154 -6.154,-6.154 -3.399,0 -6.155,2.756 -6.155,6.154 0,3.399 2.756,6.154 6.155,6.154 C -2.756,6.154 0,3.399 0,0" /></g><g
           transform="translate(374.8639,298.258)"
           id="g620"><path
             id="path622"
             style="fill:#ffffff;fill-opacity:1;fill-rule:nonzero;stroke:none"
             d="m 0,0 h -42.275 c -0.74,0 -1.338,0.599 -1.338,1.337 0,0.74 0.598,1.338 1.338,1.338 H 0 C 0.739,2.675 1.338,2.077 1.338,1.337 1.338,0.599 0.739,0 0,0" /></g><g
           transform="translate(360.9186,293.7717)"
           id="g624"><path
             id="path626"
             style="fill:#ffffff;fill-opacity:1;fill-rule:nonzero;stroke:none"
             d="m 0,0 h -28.33 c -0.739,0 -1.338,0.599 -1.338,1.338 0,0.739 0.599,1.338 1.338,1.338 H 0 C 0.738,2.676 1.338,2.077 1.338,1.338 1.338,0.599 0.738,0 0,0" /></g><g
           transform="translate(327.8619,270.5236)"
           id="g628"><path
             id="path630"
             style="fill:#00aad0;fill-opacity:1;fill-rule:nonzero;stroke:none"
             d="m 0,0 c 0,-3.399 -2.756,-6.154 -6.154,-6.154 -3.399,0 -6.155,2.755 -6.155,6.154 0,3.398 2.756,6.154 6.155,6.154 C -2.756,6.154 0,3.398 0,0" /></g><g
           transform="translate(374.8639,273.11)"
           id="g632"><path
             id="path634"
             style="fill:#ffffff;fill-opacity:1;fill-rule:nonzero;stroke:none"
             d="m 0,0 h -42.275 c -0.74,0 -1.338,0.599 -1.338,1.338 0,0.739 0.598,1.337 1.338,1.337 H 0 C 0.739,2.675 1.338,2.077 1.338,1.338 1.338,0.599 0.739,0 0,0" /></g><g
           transform="translate(360.9186,268.6237)"
           id="g636"><path
             id="path638"
             style="fill:#ffffff;fill-opacity:1;fill-rule:nonzero;stroke:none"
             d="m 0,0 h -28.33 c -0.739,0 -1.338,0.599 -1.338,1.338 0,0.739 0.599,1.338 1.338,1.338 H 0 C 0.738,2.676 1.338,2.077 1.338,1.338 1.338,0.599 0.738,0 0,0" /></g><g
           transform="translate(327.8619,245.3757)"
           id="g640"><path
             id="path642"
             style="fill:#00aad0;fill-opacity:1;fill-rule:nonzero;stroke:none"
             d="m 0,0 c 0,-3.399 -2.756,-6.154 -6.154,-6.154 -3.399,0 -6.155,2.755 -6.155,6.154 0,3.398 2.756,6.154 6.155,6.154 C -2.756,6.154 0,3.398 0,0" /></g><g
           transform="translate(374.8639,247.9616)"
           id="g644"><path
             id="path646"
             style="fill:#ffffff;fill-opacity:1;fill-rule:nonzero;stroke:none"
             d="m 0,0 h -42.275 c -0.74,0 -1.338,0.6 -1.338,1.338 0,0.739 0.598,1.338 1.338,1.338 H 0 C 0.739,2.676 1.338,2.077 1.338,1.338 1.338,0.6 0.739,0 0,0" /></g><g
           transform="translate(360.9186,243.4763)"
           id="g648"><path
             id="path650"
             style="fill:#ffffff;fill-opacity:1;fill-rule:nonzero;stroke:none"
             d="m 0,0 h -28.33 c -0.739,0 -1.338,0.599 -1.338,1.337 0,0.739 0.599,1.338 1.338,1.338 H 0 C 0.738,2.675 1.338,2.076 1.338,1.337 1.338,0.599 0.738,0 0,0" /></g><g
           transform="translate(108.2687,204.78)"
           id="g652"><path
             id="path654"
             style="fill:#00cd8b;fill-opacity:1;fill-rule:nonzero;stroke:none"
             d="m 0,0 c 0.796,3.17 10.072,7.245 9.66,18.34 -0.413,11.094 -21.777,15.395 -18.38,24.938 3.396,9.544 8.603,22.835 5.561,29.574 -3.043,6.738 -12.014,9.337 -13.939,12.305 -1.925,2.967 -3.623,2.919 -2.264,15.133 1.359,12.214 -7.019,15.408 -12.906,15.516 -5.887,-0.108 -14.264,-3.302 -12.905,-15.516 1.358,-12.214 -0.34,-12.166 -2.265,-15.133 -1.925,-2.968 -10.895,-5.567 -13.938,-12.305 -3.043,-6.739 2.165,-20.03 5.561,-29.574 3.396,-9.543 -17.967,-13.844 -18.38,-24.938 -0.412,-11.095 8.863,-15.17 9.659,-18.34 0.796,-3.17 -12.259,-9.057 -10.826,-17.208 1.434,-8.151 23.623,-17.66 43.094,-18.113 19.472,0.453 41.661,9.962 43.094,18.113 C 12.259,-9.057 -0.796,-3.17 0,0" /></g><g
           id="g656"><g
             id="g658" /><g
             id="g686"><g
               style="opacity:0.80000299"
               id="g684"
               clip-path="url(#clipPath662)"><g
                 id="g666"
                 transform="translate(71.526,319.8976)"><path
                   id="path664"
                   style="fill:none;stroke:#ffffff;stroke-width:2;stroke-linecap:round;stroke-linejoin:miter;stroke-miterlimit:10;stroke-dasharray:none;stroke-opacity:1"
                   d="m 0,0 c 0,0 10.309,-13.092 9.032,-28.699 -1.278,-15.607 -11.29,-23.61 -11.907,-43.14 -0.619,-19.53 12.476,-26.078 9.185,-78.6" /></g><g
                 id="g670"
                 transform="translate(57.9606,287.509)"><path
                   id="path668"
                   style="fill:none;stroke:#ffffff;stroke-width:2;stroke-linecap:round;stroke-linejoin:miter;stroke-miterlimit:10;stroke-dasharray:none;stroke-opacity:1"
                   d="M 0,0 C 0,0 5.917,-3.99 6.959,-9.877 8,-15.765 14.223,-21.795 14.223,-21.795" /></g><g
                 id="g674"
                 transform="translate(68.9704,241.4841)"><path
                   id="path672"
                   style="fill:none;stroke:#ffffff;stroke-width:2;stroke-linecap:round;stroke-linejoin:miter;stroke-miterlimit:10;stroke-dasharray:none;stroke-opacity:1"
                   d="m 0,0 c 0,0 11.79,2.596 15.934,10.064 4.144,7.468 13.719,23.198 20.92,23.621" /></g><g
                 id="g678"
                 transform="translate(39.0485,231.7575)"><path
                   id="path676"
                   style="fill:none;stroke:#ffffff;stroke-width:2;stroke-linecap:round;stroke-linejoin:miter;stroke-miterlimit:10;stroke-dasharray:none;stroke-opacity:1"
                   d="m 0,0 c 0,0 13.281,2.099 18.912,-9.148 5.632,-11.248 8.966,-26.944 20.323,-31.38" /></g><g
                 id="g682"
                 transform="translate(78.2838,176.7253)"><path
                   id="path680"
                   style="fill:none;stroke:#ffffff;stroke-width:2;stroke-linecap:round;stroke-linejoin:miter;stroke-miterlimit:10;stroke-dasharray:none;stroke-opacity:1"
                   d="M 0,0 C 0,0 5.538,7.699 16.439,10.067 27.34,12.436 36.092,20.871 36.092,20.871" /></g></g></g></g><path
           id="path688"
           style="fill:#a5d5ef;fill-opacity:1;fill-rule:nonzero;stroke:none"
           d="m 107.026,166.323 h -62.05 v 10.402 h 62.05 z" /><g
           transform="translate(47.7335,166.3229)"
           id="g690"><path
             id="path692"
             style="fill:#a5d5ef;fill-opacity:1;fill-rule:nonzero;stroke:none"
             d="M 0,0 5.335,-22.055 H 52.29 L 56.535,0 Z" /></g><g
           transform="translate(70.8932,330.0373)"
           id="g694"><path
             id="path696"
             style="fill:#f4cb69;fill-opacity:1;fill-rule:nonzero;stroke:none"
             d="m 0,0 -0.471,-4.796 -4.381,-2.69 c -1.881,-1.155 -1.274,-4.033 0.914,-4.33 l 3.589,-0.488 0.467,-5.775 c 0.197,-2.438 3.523,-2.99 4.497,-0.748 l 0.566,1.302 c 1.382,-2.165 4.738,-0.86 4.295,1.671 l -0.95,5.412 3.365,2.134 c 2.023,1.284 1.053,4.416 -1.341,4.333 L 6.623,-4.113 4.488,0.72 C 3.512,2.93 0.236,2.405 0,0" /></g><g
           transform="translate(68.6505,290.5031)"
           id="g698"><path
             id="path700"
             style="fill:#e94e51;fill-opacity:1;fill-rule:nonzero;stroke:none"
             d="m 0,0 c 0,-3.185 -2.583,-5.767 -5.768,-5.767 -3.185,0 -5.767,2.582 -5.767,5.767 0,3.185 2.582,5.767 5.767,5.767 C -2.583,5.767 0,3.185 0,0" /></g><g
           transform="translate(77.8356,212.8376)"
           id="g702"><path
             id="path704"
             style="fill:#e94e51;fill-opacity:1;fill-rule:nonzero;stroke:none"
             d="m 0,0 c 0,-4.129 -3.347,-7.477 -7.476,-7.477 -4.129,0 -7.477,3.348 -7.477,7.477 0,4.129 3.348,7.477 7.477,7.477 C -3.347,7.477 0,4.129 0,0" /></g><g
           transform="translate(104.6246,251.548)"
           id="g706"><path
             id="path708"
             style="fill:#e94e51;fill-opacity:1;fill-rule:nonzero;stroke:none"
             d="m 0,0 c 0,-3.604 -2.921,-6.526 -6.526,-6.526 -3.604,0 -6.525,2.922 -6.525,6.526 0,3.604 2.921,6.526 6.525,6.526 C -2.921,6.526 0,3.604 0,0" /></g><g
           transform="translate(58.965,260.0788)"
           id="g710"><path
             id="path712"
             style="fill:#e94e51;fill-opacity:1;fill-rule:nonzero;stroke:none"
             d="m 0,0 c -6.203,0 -11.231,-5.028 -11.231,-11.231 0,-6.204 5.028,-11.232 11.231,-11.232 6.203,0 11.231,5.028 11.231,11.232 C 11.231,-5.028 6.203,0 0,0 m 0,-3.534 c 4.245,0 7.698,-3.453 7.698,-7.697 0,-4.245 -3.453,-7.699 -7.698,-7.699 -4.245,0 -7.698,3.454 -7.698,7.699 0,4.244 3.453,7.697 7.698,7.697" /></g><g
           transform="translate(102.0412,205.361)"
           id="g714"><path
             id="path716"
             style="fill:#e94e51;fill-opacity:1;fill-rule:nonzero;stroke:none"
             d="m 0,0 c -6.358,0 -11.513,-5.154 -11.513,-11.513 0,-6.358 5.155,-11.512 11.513,-11.512 6.358,0 11.513,5.154 11.513,11.512 C 11.513,-5.154 6.358,0 0,0 m 0,-3.533 c 4.4,0 7.979,-3.579 7.979,-7.98 0,-4.399 -3.579,-7.978 -7.979,-7.978 -4.4,0 -7.979,3.579 -7.979,7.978 0,4.401 3.579,7.98 7.979,7.98" /></g><g
           transform="translate(89.0368,299.1086)"
           id="g718"><path
             id="path720"
             style="fill:#e94e51;fill-opacity:1;fill-rule:nonzero;stroke:none"
             d="m 0,0 c -4.695,0 -8.502,-3.807 -8.502,-8.502 0,-4.696 3.807,-8.502 8.502,-8.502 4.696,0 8.502,3.806 8.502,8.502 C 8.502,-3.807 4.696,0 0,0 m 0,-3.534 c 2.74,0 4.969,-2.228 4.969,-4.968 0,-2.74 -2.229,-4.969 -4.969,-4.969 -2.739,0 -4.968,2.229 -4.968,4.969 0,2.74 2.229,4.968 4.968,4.968" /></g><g
           transform="translate(103.9098,164.4577)"
           id="g722"><path
             id="path724"
             style="fill:#00173a;fill-opacity:1;fill-rule:nonzero;stroke:none"
             d="m 0,0 -55.849,0.327 -0.327,1.538 H 0.358 Z" /></g><g
           transform="translate(317.3473,275.7971)"
           id="g726"><path
             id="path728"
             style="fill:#ef7f6d;fill-opacity:1;fill-rule:nonzero;stroke:none"
             d="M 0,0 C 0,0 -2.011,-8.751 -4.693,-17.348 -7.375,-25.944 -22.797,-66.175 -11.398,-80.591 0,-95.007 19.78,-104.394 39.226,-91.655 l 7.04,97.033 C 46.266,5.378 22.798,24.269 0,0" /></g><g
           transform="translate(302.9498,223.364)"
           id="g730"><path
             id="path732"
             style="fill:#e94e51;fill-opacity:1;fill-rule:nonzero;stroke:none"
             d="M 0,0 -4.712,5.367 8.362,31.038 Z" /></g><g
           transform="translate(301.9938,215.6599)"
           id="g734"><path
             id="path736"
             style="fill:none;stroke:#e94e51;stroke-width:1;stroke-linecap:round;stroke-linejoin:round;stroke-miterlimit:10;stroke-dasharray:none;stroke-opacity:1"
             d="M 0,0 C 0,0 9.266,-6.521 19.896,3.729" /></g><g
           transform="translate(320.0944,245.1315)"
           id="g738"><path
             id="path740"
             style="fill:#00173a;fill-opacity:1;fill-rule:nonzero;stroke:none"
             d="m 0,0 c 0,-1.118 -0.907,-2.025 -2.025,-2.025 -1.12,0 -2.026,0.907 -2.026,2.025 0,1.119 0.906,2.025 2.026,2.025 C -0.907,2.025 0,1.119 0,0" /></g><g
           transform="translate(317.9059,256.0305)"
           id="g742"><path
             id="path744"
             style="fill:none;stroke:#00173a;stroke-width:3;stroke-linecap:round;stroke-linejoin:miter;stroke-miterlimit:10;stroke-dasharray:none;stroke-opacity:1"
             d="M 0,0 C 0,0 5.713,-0.821 7.262,-8.083" /></g><g
           transform="translate(356.3873,219.3893)"
           id="g746"><path
             id="path748"
             style="fill:#e94e51;fill-opacity:1;fill-rule:nonzero;stroke:none"
             d="m 0,0 c 0,-8.935 -7.242,-16.177 -16.177,-16.177 -8.934,0 -16.177,7.242 -16.177,16.177 0,8.934 7.243,16.177 16.177,16.177 C -7.242,16.177 0,8.934 0,0" /></g><g
           transform="translate(356.5729,184.1423)"
           id="g750"><path
             id="path752"
             style="fill:#ef7f6d;fill-opacity:1;fill-rule:nonzero;stroke:none"
             d="m 0,0 c 0,0 6.515,-21.252 7.04,-28.012 0.525,-6.759 -0.062,-14.4 -16.814,-23.805 0,0 22.975,-4.788 56.133,0 33.159,4.788 35.855,9.698 35.855,9.698 0,0 -33.504,9.111 -37.912,20.573 C 39.894,-10.084 34.897,9.9 34.897,9.9 34.897,9.9 14.183,14.787 0,0" /></g><g
           transform="translate(346.7985,132.3249)"
           id="g754"><path
             id="path756"
             style="fill:#e94e51;fill-opacity:1;fill-rule:nonzero;stroke:none"
             d="m 0,0 c 0,0 -36.736,-19.396 -40.852,-29.095 -4.114,-9.699 -6.171,-88.608 -5.877,-103.23 h 189.267 c 0,0 -10.874,70.901 -15.576,96.177 C 122.26,-10.874 114.618,-2.938 109.916,0 105.214,2.939 91.988,9.698 91.988,9.698 Z" /></g><g
           transform="translate(314.9381,-3e-4)"
           id="g758"><path
             id="path760"
             style="fill:#f4b394;fill-opacity:1;fill-rule:nonzero;stroke:none"
             d="m 0,0 c 0,0 6.308,71.132 10.865,85.944 4.558,14.814 5.697,19.751 23.548,20.511 17.852,0.759 100.27,6.456 124.958,4.178 24.688,-2.279 23.168,-12.914 22.788,-25.447 C 181.779,72.651 174.398,0 174.398,0 Z" /></g><g
           id="g762"><g
             id="g764" /><g
             id="g776"><g
               style="opacity:0.19999701"
               id="g774"
               clip-path="url(#clipPath768)"><g
                 id="g772"
                 transform="translate(332.7067,-3e-4)"><path
                   id="path770"
                   style="fill:#ffffff;fill-opacity:1;fill-rule:nonzero;stroke:none"
                   d="m 0,0 c 0,0 8.669,63.156 10.568,74.171 1.899,11.015 3.437,23.548 13.113,24.308 9.675,0.759 48.036,3.417 78.8,4.177 30.765,0.76 54.301,1.717 60.195,-1.42 0,0 2.667,-2.393 1.715,-16.05 C 163.438,71.528 156.63,0 156.63,0 Z" /></g></g></g></g><g
           transform="translate(400.7194,310.5851)"
           id="g778"><path
             id="path780"
             style="fill:#00173a;fill-opacity:1;fill-rule:nonzero;stroke:none"
             d="m 0,0 c -8.746,6.929 -38.127,11.91 -59.657,0 -21.531,-11.91 -31.174,-18.388 -31.174,-18.388 0,0 1.346,-15.003 12.11,-24.672 l 16.149,10.9 -9.868,-19.249 c 0,0 4.709,-4.683 9.643,-5.805 0,0 -0.224,-66.385 -10.093,-114.156 0,0 9.196,-13.232 31.848,-17.269 C -18.391,-192.676 0,-182.36 0,-182.36 l -1.569,26.465 9.195,-24.67 c 0,0 47.995,0 61.676,49.116 0,0 -26.69,20.185 -28.932,54.723 -2.243,34.539 -11.663,54.988 -24.446,65.509 C 3.14,-0.696 0,0 0,0" /></g><g
           transform="translate(400.7194,310.5851)"
           id="g782"><path
             id="path784"
             style="fill:#00173a;fill-opacity:1;fill-rule:nonzero;stroke:none"
             d="M 0,0 C 0,0 14.858,10.396 24.245,7.184 33.633,3.972 0,0 0,0" /></g><g
           transform="translate(444.9508,246.1511)"
           id="g786"><path
             id="path788"
             style="fill:none;stroke:#ffffff;stroke-width:2;stroke-linecap:round;stroke-linejoin:miter;stroke-miterlimit:10;stroke-dasharray:none;stroke-opacity:1"
             d="M 0,0 C 0,0 6.489,-46.22 30.124,-58.99" /></g><g
           transform="translate(443.7125,254.402)"
           id="g790"><path
             id="path792"
             style="fill:none;stroke:#ffffff;stroke-width:2;stroke-linecap:round;stroke-linejoin:miter;stroke-miterlimit:10;stroke-dasharray:none;stroke-opacity:1"
             d="M 0,0 C 0,0 -1.919,14.294 -4.926,21.28" /></g><g
           transform="translate(469.3063,239.9401)"
           id="g794"><path
             id="path796"
             style="fill:none;stroke:#ffffff;stroke-width:2;stroke-linecap:round;stroke-linejoin:miter;stroke-miterlimit:10;stroke-dasharray:none;stroke-opacity:1"
             d="m 0,0 c 0,-3.743 -3.035,-6.778 -6.778,-6.778 -3.744,0 -6.78,3.035 -6.78,6.778 0,3.744 3.036,6.779 6.78,6.779 C -3.035,6.779 0,3.744 0,0 Z" /></g><g
           transform="translate(436.8746,301.0173)"
           id="g798"><path
             id="path800"
             style="fill:none;stroke:#ffffff;stroke-width:2;stroke-linecap:round;stroke-linejoin:miter;stroke-miterlimit:10;stroke-dasharray:none;stroke-opacity:1"
             d="M 0,0 V -10.411" /></g><g
           transform="translate(442.0797,295.8117)"
           id="g802"><path
             id="path804"
             style="fill:none;stroke:#ffffff;stroke-width:2;stroke-linecap:round;stroke-linejoin:miter;stroke-miterlimit:10;stroke-dasharray:none;stroke-opacity:1"
             d="M 0,0 H -10.411" /></g><g
           transform="translate(328.1862,175.8737)"
           id="g806"><path
             id="path808"
             style="fill:none;stroke:#ffffff;stroke-width:2;stroke-linecap:round;stroke-linejoin:miter;stroke-miterlimit:10;stroke-dasharray:none;stroke-opacity:1"
             d="M 0,0 -2.694,-17.233" /></g><g
           transform="translate(324.7623,154.4411)"
           id="g810"><path
             id="path812"
             style="fill:none;stroke:#ffffff;stroke-width:2;stroke-linecap:round;stroke-linejoin:miter;stroke-miterlimit:10;stroke-dasharray:none;stroke-opacity:1"
             d="M 0,0 -0.695,-7.022" /></g><g
           transform="translate(317.5709,156.5407)"
           id="g814"><path
             id="path816"
             style="fill:#ffffff;fill-opacity:1;fill-rule:nonzero;stroke:none"
             d="m 0,0 c 0,-1.159 -0.939,-2.1 -2.1,-2.1 -1.159,0 -2.099,0.941 -2.099,2.1 0,1.16 0.94,2.1 2.099,2.1 C -0.939,2.1 0,1.16 0,0" /></g><g
           transform="translate(453.3551,264.154)"
           id="g818"><path
             id="path820"
             style="fill:#ffffff;fill-opacity:1;fill-rule:nonzero;stroke:none"
             d="m 0,0 c 0,-1.148 -0.931,-2.079 -2.079,-2.079 -1.148,0 -2.079,0.931 -2.079,2.079 0,1.148 0.931,2.079 2.079,2.079 C -0.931,2.079 0,1.148 0,0" /></g><g
           transform="translate(294.4791,74.5749)"
           id="g822"><path
             id="path824"
             style="fill:none;stroke:#a8cdbd;stroke-width:2;stroke-linecap:round;stroke-linejoin:miter;stroke-miterlimit:10;stroke-dasharray:none;stroke-opacity:1"
             d="M 0,0 C 0,0 -0.952,-28.955 -1.839,-45.193" /></g><g
           transform="translate(292.4098,21.6579)"
           id="g826"><path
             id="path828"
             style="fill:none;stroke:#a8cdbd;stroke-width:2;stroke-linecap:round;stroke-linejoin:miter;stroke-miterlimit:10;stroke-dasharray:none;stroke-opacity:1"
             d="M 0,0 C 0,0 -0.239,-8.419 0,-13.976" /></g><g
           transform="translate(281.4489,18.0974)"
           id="g830"><path
             id="path832"
             style="fill:none;stroke:#a8cdbd;stroke-width:2;stroke-linecap:round;stroke-linejoin:miter;stroke-miterlimit:10;stroke-dasharray:none;stroke-opacity:1"
             d="m 0,0 c 0,-2.995 -2.428,-5.423 -5.423,-5.423 -2.995,0 -5.423,2.428 -5.423,5.423 0,2.995 2.428,5.424 5.423,5.424 C -2.428,5.424 0,2.995 0,0 Z" /></g><g
           transform="translate(281.4489,45.6198)"
           id="g834"><path
             id="path836"
             style="fill:none;stroke:#a8cdbd;stroke-width:2;stroke-linecap:round;stroke-linejoin:miter;stroke-miterlimit:10;stroke-dasharray:none;stroke-opacity:1"
             d="M 0,0 V -10.41" /></g><g
           transform="translate(286.6539,40.4147)"
           id="g838"><path
             id="path840"
             style="fill:none;stroke:#a8cdbd;stroke-width:2;stroke-linecap:round;stroke-linejoin:miter;stroke-miterlimit:10;stroke-dasharray:none;stroke-opacity:1"
             d="M 0,0 H -10.41" /></g><g
           transform="translate(300.0416,97.8493)"
           id="g842"><path
             id="path844"
             style="fill:#a8cdbd;fill-opacity:1;fill-rule:nonzero;stroke:none"
             d="m 0,0 c 0,-3.072 -2.49,-5.562 -5.562,-5.562 -3.073,0 -5.564,2.49 -5.564,5.562 0,3.072 2.491,5.563 5.564,5.563 C -2.49,5.563 0,3.072 0,0" /></g><g
           transform="translate(455.7487,142.0231)"
           id="g846"><path
             id="path848"
             style="fill:none;stroke:#a8cdbd;stroke-width:2;stroke-linecap:round;stroke-linejoin:miter;stroke-miterlimit:10;stroke-dasharray:none;stroke-opacity:1"
             d="M 0,0 C 0,0 14.114,-5.687 16.28,-15.164" /></g><g
           transform="translate(489.3365,121.1833)"
           id="g850"><path
             id="path852"
             style="fill:none;stroke:#a8cdbd;stroke-width:2;stroke-linecap:round;stroke-linejoin:miter;stroke-miterlimit:10;stroke-dasharray:none;stroke-opacity:1"
             d="m 0,0 c 0,-3.135 -2.541,-5.676 -5.676,-5.676 -3.135,0 -5.676,2.541 -5.676,5.676 0,3.135 2.541,5.676 5.676,5.676 C -2.541,5.676 0,3.135 0,0 Z" /></g><g
           transform="translate(75.7072,-3e-4)"
           id="g854"><path
             id="path856"
             style="fill:#f4cb69;fill-opacity:1;fill-rule:nonzero;stroke:none"
             d="M 0,0 H -10.696 L 20.623,118.262 H 31.319 Z" /></g><g
           transform="translate(89.0368,418.5461)"
           id="g858"><path
             id="path860"
             style="fill:none;stroke:#ffffff;stroke-width:2;stroke-linecap:round;stroke-linejoin:miter;stroke-miterlimit:10;stroke-dasharray:none;stroke-opacity:1"
             d="M 0,0 H 54.339" /></g><g
           transform="translate(149.8307,418.5461)"
           id="g862"><path
             id="path864"
             style="fill:none;stroke:#ffffff;stroke-width:2;stroke-linecap:round;stroke-linejoin:miter;stroke-miterlimit:10;stroke-dasharray:none;stroke-opacity:1"
             d="M 0,0 H 11.16" /></g><g
           transform="translate(148.5006,435.9308)"
           id="g866"><path
             id="path868"
             style="fill:none;stroke:#ffffff;stroke-width:2;stroke-linecap:round;stroke-linejoin:miter;stroke-miterlimit:10;stroke-dasharray:none;stroke-opacity:1"
             d="M 0,0 V -10.411" /></g><g
           transform="translate(153.7057,430.7258)"
           id="g870"><path
             id="path872"
             style="fill:none;stroke:#ffffff;stroke-width:2;stroke-linecap:round;stroke-linejoin:miter;stroke-miterlimit:10;stroke-dasharray:none;stroke-opacity:1"
             d="M 0,0 H -10.411" /></g><g
           transform="translate(166.8961,425.2849)"
           id="g874"><path
             id="path876"
             style="fill:#ffffff;fill-opacity:1;fill-rule:nonzero;stroke:none"
             d="m 0,0 c 0,-1.38 -1.118,-2.498 -2.498,-2.498 -1.379,0 -2.498,1.118 -2.498,2.498 0,1.379 1.119,2.498 2.498,2.498 C -1.118,2.498 0,1.379 0,0" /></g><g
           transform="translate(50.5973,288.1784)"
           id="g878"><path
             id="path880"
             style="fill:none;stroke:#a8cdbd;stroke-width:2;stroke-linecap:round;stroke-linejoin:miter;stroke-miterlimit:10;stroke-dasharray:none;stroke-opacity:1"
             d="M 0,0 C 0,0 -9.785,-3.788 -8.648,-14.449" /></g><g
           transform="translate(42.4181,269.7551)"
           id="g882"><path
             id="path884"
             style="fill:none;stroke:#a8cdbd;stroke-width:2;stroke-linecap:round;stroke-linejoin:miter;stroke-miterlimit:10;stroke-dasharray:none;stroke-opacity:1"
             d="M 0,0 C 0,0 0.85,-5.178 2.176,-8.083" /></g><g
           transform="translate(41.0221,261.6716)"
           id="g886"><path
             id="path888"
             style="fill:none;stroke:#a8cdbd;stroke-width:2;stroke-linecap:round;stroke-linejoin:miter;stroke-miterlimit:10;stroke-dasharray:none;stroke-opacity:1"
             d="M 0,0 V -10.411" /></g><g
           transform="translate(46.2272,256.466)"
           id="g890"><path
             id="path892"
             style="fill:none;stroke:#a8cdbd;stroke-width:2;stroke-linecap:round;stroke-linejoin:miter;stroke-miterlimit:10;stroke-dasharray:none;stroke-opacity:1"
             d="M 0,0 H -10.411" /></g><g
           transform="translate(45.4142,163.6638)"
           id="g894"><path
             id="path896"
             style="fill:none;stroke:#a8cdbd;stroke-width:2;stroke-linecap:round;stroke-linejoin:miter;stroke-miterlimit:10;stroke-dasharray:none;stroke-opacity:1"
             d="M 0,0 1.388,-4.559" /></g><g
           transform="translate(47.7335,156.1325)"
           id="g898"><path
             id="path900"
             style="fill:none;stroke:#a8cdbd;stroke-width:2;stroke-linecap:round;stroke-linejoin:miter;stroke-miterlimit:10;stroke-dasharray:none;stroke-opacity:1"
             d="M 0,0 2.636,-8.819" /></g><g
           transform="translate(37.9606,169.0173)"
           id="g902"><path
             id="path904"
             style="fill:none;stroke:#a8cdbd;stroke-width:2;stroke-linecap:round;stroke-linejoin:miter;stroke-miterlimit:10;stroke-dasharray:none;stroke-opacity:1"
             d="M 0,0 V -6.583" /></g><g
           transform="translate(41.2521,165.7253)"
           id="g906"><path
             id="path908"
             style="fill:none;stroke:#a8cdbd;stroke-width:2;stroke-linecap:round;stroke-linejoin:miter;stroke-miterlimit:10;stroke-dasharray:none;stroke-opacity:1"
             d="M 0,0 H -6.583" /></g><g
           transform="translate(189.7511,176.7253)"
           id="g910"><path
             id="path912"
             style="fill:none;stroke:#ffffff;stroke-width:2;stroke-linecap:round;stroke-linejoin:miter;stroke-miterlimit:10;stroke-dasharray:none;stroke-opacity:1"
             d="M 0,0 H 20.25" /></g><g
           transform="translate(183.7902,176.7253)"
           id="g914"><path
             id="path916"
             style="fill:none;stroke:#ffffff;stroke-width:2;stroke-linecap:round;stroke-linejoin:miter;stroke-miterlimit:10;stroke-dasharray:none;stroke-opacity:1"
             d="M 0,0 H -6.587" /></g><g
           transform="translate(172.1017,176.7292)"
           id="g918"><path
             id="path920"
             style="fill:none;stroke:#ffffff;stroke-width:2;stroke-linecap:round;stroke-linejoin:miter;stroke-miterlimit:10;stroke-dasharray:none;stroke-opacity:1"
             d="M 0,0 V -10.41" /></g><g
           transform="translate(177.3068,171.5241)"
           id="g922"><path
             id="path924"
             style="fill:none;stroke:#ffffff;stroke-width:2;stroke-linecap:round;stroke-linejoin:miter;stroke-miterlimit:10;stroke-dasharray:none;stroke-opacity:1"
             d="M 0,0 H -10.411" /></g><g
           transform="translate(181.4943,163.2448)"
           id="g926"><path
             id="path928"
             style="fill:#ffffff;fill-opacity:1;fill-rule:nonzero;stroke:none"
             d="m 0,0 c 0,-1.186 -0.96,-2.146 -2.146,-2.146 -1.185,0 -2.145,0.96 -2.145,2.146 0,1.185 0.96,2.146 2.145,2.146 C -0.96,2.146 0,1.185 0,0" /></g><g
           transform="translate(346.7535,418.5461)"
           id="g930"><path
             id="path932"
             style="fill:none;stroke:#ffffff;stroke-width:2;stroke-linecap:round;stroke-linejoin:miter;stroke-miterlimit:10;stroke-dasharray:none;stroke-opacity:1"
             d="M 0,0 H 52.423" /></g><g
           transform="translate(347.6989,425.8815)"
           id="g934"><path
             id="path936"
             style="fill:none;stroke:#ffffff;stroke-width:2;stroke-linecap:round;stroke-linejoin:miter;stroke-miterlimit:10;stroke-dasharray:none;stroke-opacity:1"
             d="m 0,0 c 0,-1.85 -1.5,-3.35 -3.35,-3.35 -1.85,0 -3.35,1.5 -3.35,3.35 0,1.85 1.5,3.35 3.35,3.35 C -1.5,3.35 0,1.85 0,0 Z" /></g><g
           transform="translate(173.0763,153.4616)"
           id="g938"><path
             id="path940"
             style="fill:none;stroke:#ffffff;stroke-width:2;stroke-linecap:round;stroke-linejoin:miter;stroke-miterlimit:10;stroke-dasharray:none;stroke-opacity:1"
             d="m 0,0 c 0,-3.337 -2.706,-6.043 -6.043,-6.043 -3.337,0 -6.043,2.706 -6.043,6.043 0,3.337 2.706,6.043 6.043,6.043 C -2.706,6.043 0,3.337 0,0 Z" /></g></g></g></g></svg>