<?xml version="1.0" encoding="UTF-8" standalone="no"?>
<svg
   xmlns:dc="http://purl.org/dc/elements/1.1/"
   xmlns:cc="http://creativecommons.org/ns#"
   xmlns:rdf="http://www.w3.org/1999/02/22-rdf-syntax-ns#"
   xmlns:svg="http://www.w3.org/2000/svg"
   xmlns="http://www.w3.org/2000/svg"
   viewBox="0 0 1000 666.66669"
   height="666.66669"
   width="1000"
   xml:space="preserve"
   id="svg2"
   version="1.1"><metadata
     id="metadata8"><rdf:RDF><cc:Work
         rdf:about=""><dc:format>image/svg+xml</dc:format><dc:type
           rdf:resource="http://purl.org/dc/dcmitype/StillImage" /></cc:Work></rdf:RDF></metadata><defs
     id="defs6"><clipPath
       id="clipPath20"
       clipPathUnits="userSpaceOnUse"><path
         id="path18"
         d="M 0,500 H 750 V 0 H 0 Z" /></clipPath><clipPath
       id="clipPath62"
       clipPathUnits="userSpaceOnUse"><path
         id="path60"
         d="m 198.175,352.847 -7.051,-58.328 h 110.13 l 7.051,58.328 z" /></clipPath><clipPath
       id="clipPath138"
       clipPathUnits="userSpaceOnUse"><path
         id="path136"
         d="M 0,500 H 750 V 0 H 0 Z" /></clipPath><clipPath
       id="clipPath462"
       clipPathUnits="userSpaceOnUse"><path
         id="path460"
         d="m 424.006,360.642 7.111,-58.828 h 111.074 l -7.111,58.828 z" /></clipPath><clipPath
       id="clipPath526"
       clipPathUnits="userSpaceOnUse"><path
         id="path524"
         d="M 0,500 H 750 V 0 H 0 Z" /></clipPath></defs><g
     transform="matrix(1.3333333,0,0,-1.3333333,0,666.66667)"
     id="g10"><path
       id="path12"
       d="M 0,0 H 0 V 0 H 0 Z" />
       <g
       id="g14"><g
         clip-path="url(#clipPath20)"
         id="g16"><g
           transform="translate(352.5869,86.0166)"
           id="g22"><path
             id="path24"
             style="fill:#ecf3fd;fill-opacity:1;fill-rule:nonzero;stroke:none"
             d="m 0,0 c 0,-19.025 -69.399,-34.447 -155.007,-34.447 -85.608,0 -155.007,15.422 -155.007,34.447 0,19.024 69.399,34.446 155.007,34.446 C -69.399,34.446 0,19.024 0,0" /></g><g
           transform="translate(78.3066,381.0054)"
           id="g26"><path
             id="path28"
             style="fill:#fcf2f0;fill-opacity:1;fill-rule:nonzero;stroke:none"
             d="m 0,0 c -23.936,-25.501 -30.827,-54.135 -30.104,-81.628 0.533,-20.286 5.23,-41.055 17.273,-57.387 15.296,-20.747 42.257,-32.243 67.817,-28.919 13.704,1.782 26.62,7.426 40.196,10.01 20.906,3.979 43.174,0.364 61.747,-10.025 10.841,-6.062 20.523,-14.368 32.194,-18.62 9.647,-3.514 20.091,-4.045 30.355,-4.334 9.242,-0.261 18.843,-0.285 27.252,3.56 11.922,5.45 48.852,33.452 33.138,71.287 -2.913,7.014 -8.022,12.85 -11.691,19.5 -8.079,14.645 -7.274,32.331 -9.905,48.849 -5.171,32.459 -25.348,62.515 -54.161,78.332 C 178.327,44.78 148.025,49.289 118.61,49.322 57.631,49.392 14.303,15.238 0,0" /></g><g
           transform="translate(315.2529,257.897)"
           id="g30"><path
             id="path32"
             style="fill:#737b91;fill-opacity:1;fill-rule:nonzero;stroke:none"
             d="m 0,0 v -149.328 c 0,-3.163 4.916,-3.168 4.916,0 V 0 C 4.916,3.163 0,3.168 0,0" /></g><g
           transform="translate(124.2471,257.897)"
           id="g34"><path
             id="path36"
             style="fill:#737b91;fill-opacity:1;fill-rule:nonzero;stroke:none"
             d="m 0,0 v -149.328 c 0,-3.163 4.916,-3.168 4.916,0 V 0 C 4.916,3.163 0,3.168 0,0" /></g><path
           id="path38"
           style="fill:#cf8352;fill-opacity:1;fill-rule:nonzero;stroke:none"
           d="M 329.493,256.405 H 116.529 v 6.159 h 212.964 z" /><g
           transform="translate(304.02,290.6514)"
           id="g40"><path
             id="path42"
             style="fill:#ffffff;fill-opacity:1;fill-rule:nonzero;stroke:none"
             d="m 0,0 h -116.645 l 8.034,66.063 H 8.034 Z" /></g><g
           transform="translate(301.2544,294.519)"
           id="g44"><path
             id="path46"
             style="fill:#83b29e;fill-opacity:1;fill-rule:nonzero;stroke:none"
             d="m 0,0 h -110.13 l 7.05,58.328 H 7.05 Z" /></g><path
           id="path48"
           style="fill:#d2e7e6;fill-opacity:1;fill-rule:nonzero;stroke:none"
           d="m 250.747,265.93 h -10.099 v 24.721 h 10.099 z" /><path
           id="path50"
           style="fill:#d2e7e6;fill-opacity:1;fill-rule:nonzero;stroke:none"
           d="m 222.14,265.93 h 47.115 v -3.367 H 222.14 Z" /><g
           transform="translate(288.7451,270.0391)"
           id="g52"><path
             id="path54"
             style="fill:#d2e7e6;fill-opacity:1;fill-rule:nonzero;stroke:none"
             d="M 0,0 H -0.779 C -4.908,0 -8.254,-3.347 -8.254,-7.476 H 7.476 C 7.476,-3.347 4.129,0 0,0" /></g></g></g><g
       id="g56"><g
         clip-path="url(#clipPath62)"
         id="g58"><g
           transform="translate(292.7319,294.5806)"
           id="g64"><path
             id="path66"
             style="fill:#ffffff;fill-opacity:1;fill-rule:nonzero;stroke:none"
             d="m 0,0 c 0,0 2.083,12.734 0,14.682 -2.083,1.949 -40.367,1.195 -43.018,1.081 -2.65,-0.115 -11.826,-15.825 -11.826,-15.825 z" /></g><g
           transform="translate(234.709,327.0283)"
           id="g68"><path
             id="path70"
             style="fill:#e05869;fill-opacity:1;fill-rule:nonzero;stroke:none"
             d="m 0,0 c 0.077,-3.964 1.069,-9.729 1.146,-13.693 11.374,-0.103 20.733,-2.811 31.274,1.46 -3.42,4.146 -3.076,10.105 -2.85,15.475 0.225,5.369 -0.215,11.541 -4.465,14.831 -2.641,2.045 -6.161,2.453 -9.489,2.741 C 12.673,21.069 10.625,20.503 7.825,19.562 0.016,16.937 -0.132,6.772 0,0" /></g><g
           transform="translate(240.6157,309.2031)"
           id="g72"><path
             id="path74"
             style="fill:#f2b172;fill-opacity:1;fill-rule:nonzero;stroke:none"
             d="m 0,0 c -1.981,-0.249 -8.426,-0.789 -10.244,-1.614 -4.776,-2.169 -9.395,-11.257 -11.21,-16.178 16.691,-0.201 38.779,-0.559 55.471,-0.76 -0.682,4.533 -3.022,12.978 -6.669,15.689 -1.918,1.426 -7.477,1.758 -9.766,2.517 C 9.964,2.183 7.576,0.954 0,0" /></g><g
           transform="translate(258.1978,308.8574)"
           id="g76"><path
             id="path78"
             style="fill:#fab2ae;fill-opacity:1;fill-rule:nonzero;stroke:none"
             d="m 0,0 c -6.535,-3.086 -14.36,-3.738 -17.582,0.346 1.303,0.592 2.678,1.246 3.442,2.455 0.751,1.189 0.764,2.683 0.753,4.09 -0.022,2.759 -0.044,5.518 -0.065,8.278 4.571,-0.133 9.804,2.018 10.465,-3.181 C -2.75,10.117 -3.927,2.616 0,0" /></g><g
           transform="translate(239.9346,323.5322)"
           id="g80"><path
             id="path82"
             style="fill:#fcc1c0;fill-opacity:1;fill-rule:nonzero;stroke:none"
             d="m 0,0 c 0.476,-1.221 2.177,-6.146 6.638,-6.154 5.22,-0.01 8.942,3.82 9.394,4.434 3.628,4.935 4.121,10.822 4.092,16.947 -0.007,1.481 -0.167,3.063 -1.092,4.22 -0.685,0.858 -1.706,1.371 -2.722,1.786 C 2.406,26.906 -4.475,11.479 0,0" /></g><g
           transform="translate(225.1143,315.3511)"
           id="g84"><path
             id="path86"
             style="fill:#fcc1c0;fill-opacity:1;fill-rule:nonzero;stroke:none"
             d="m 0,0 c 0.359,0.452 -1.417,3.788 -1.621,4.765 -1.068,5.127 -0.46,9.19 3.346,11.944 0.226,0.164 0.477,0.323 0.756,0.321 C 3.069,17.026 3.413,16.296 3.292,15.721 3.172,15.145 2.761,14.683 2.445,14.187 1.394,12.54 1.372,10.395 1.958,8.531 2.545,6.667 3.675,5.028 4.837,3.457 6.371,1.383 8.083,-1.126 7.227,-3.559 6.982,-4.255 6.542,-4.863 6.121,-5.469 2.81,-10.23 -0.571,-18.124 -2.103,-23.718 c -3.958,-0.721 -19.84,-4.138 -14.722,2.886 C -12.388,-14.743 -4.693,-5.911 0,0" /></g><g
           transform="translate(269.0073,313.9868)"
           id="g88"><path
             id="path90"
             style="fill:#fcc1c0;fill-opacity:1;fill-rule:nonzero;stroke:none"
             d="m 0,0 c -0.359,0.453 2.307,5.566 2.603,6.521 1.051,3.394 -0.152,8.798 -3.957,11.553 -0.226,0.163 -0.478,0.322 -0.756,0.32 -0.588,-0.003 -0.932,-0.733 -0.812,-1.309 0.121,-0.576 0.531,-1.038 0.848,-1.534 1.05,-1.647 1.073,-3.792 0.486,-5.655 C -2.175,8.031 -3.305,6.392 -4.467,4.821 -6,2.748 -7.713,0.238 -6.856,-2.195 -6.611,-2.891 -6.171,-3.499 -5.75,-4.104 -2.439,-8.866 1.101,-17.705 2.632,-23.298 6.59,-24.02 22.5,-26.517 17.382,-19.492 12.945,-13.403 4.693,-5.91 0,0" /></g><g
           transform="translate(244.7261,341.9883)"
           id="g92"><path
             id="path94"
             style="fill:#e05869;fill-opacity:1;fill-rule:nonzero;stroke:none"
             d="m 0,0 0.06,-6.722 c 1.459,-0.154 2.933,-0.17 4.395,-0.047 0.141,1.581 0.283,3.162 0.424,4.742 -0.03,-1.27 1.743,-4.847 2.135,-4.841 1.571,0.021 4.198,0.298 4.221,-0.008 0.266,-3.434 1.69,-6.283 1.37,-8.916 2.278,0.367 4.224,1.986 5.392,3.975 1.168,1.99 1.638,4.317 1.803,6.619 0.138,1.94 0.06,3.948 -0.709,5.734 -1.06,2.462 -3.351,4.24 -5.858,5.189 -2.506,0.948 -5.23,1.154 -7.91,1.18 -4.015,0.04 -8.335,-0.42 -11.38,-3.037 -1.431,-1.229 -2.47,-2.851 -3.339,-4.526 -1.391,-2.676 -1.548,-6.663 -1.143,-9.652 0.406,-2.989 1.699,-4.915 4.678,-5.392 C -5.98,-8.481 -2.714,-1.788 0,0" /></g><g
           transform="translate(260.4448,333.4185)"
           id="g96"><path
             id="path98"
             style="fill:#fcc1c0;fill-opacity:1;fill-rule:nonzero;stroke:none"
             d="m 0,0 c -1.511,0.582 -2.781,-1.839 -3.15,-3.416 0,0 -0.878,-4.426 0.834,-4.717 1.711,-0.291 3.442,0.949 4.061,2.571 C 2.363,-3.94 2.694,-1.038 0,0" /></g><g
           transform="translate(245.5977,331.8472)"
           id="g100"><path
             id="path102"
             style="fill:#e08c8c;fill-opacity:1;fill-rule:nonzero;stroke:none"
             d="m 0,0 c -0.663,-1.627 -1.445,-3.192 -2.334,-4.707 -0.126,-0.215 -0.064,-0.559 0.176,-0.673 0.649,-0.308 1.242,-0.453 1.963,-0.453 0.632,-10e-4 0.633,0.982 0,0.982 -0.534,0.001 -0.978,0.088 -1.467,0.32 0.059,-0.224 0.118,-0.448 0.177,-0.673 0.933,1.59 1.737,3.236 2.433,4.942 C 1.187,0.324 0.236,0.579 0,0" /></g><g
           transform="translate(244.0996,323.4282)"
           id="g104"><path
             id="path106"
             style="fill:#e08c8c;fill-opacity:1;fill-rule:nonzero;stroke:none"
             d="M 0,0 C 1.244,-0.377 2.497,-0.448 3.779,-0.254 4.403,-0.16 4.138,0.788 3.518,0.694 2.415,0.527 1.327,0.625 0.261,0.948 -0.345,1.132 -0.605,0.184 0,0" /></g><g
           transform="translate(245.1416,321.5986)"
           id="g108"><path
             id="path110"
             style="fill:#e08c8c;fill-opacity:1;fill-rule:nonzero;stroke:none"
             d="M 0,0 C 0.348,-0.087 0.695,-0.174 1.043,-0.261 1.657,-0.415 1.919,0.534 1.305,0.687 0.957,0.774 0.609,0.861 0.261,0.948 -0.353,1.102 -0.614,0.154 0,0" /></g><g
           transform="translate(249.6919,331.041)"
           id="g112"><path
             id="path114"
             style="fill:#e08c8c;fill-opacity:1;fill-rule:nonzero;stroke:none"
             d="M 0,0 C 0.511,0.287 1.091,0.306 1.614,0.035 2.175,-0.256 2.672,0.592 2.11,0.884 1.272,1.319 0.329,1.313 -0.497,0.849 -1.048,0.539 -0.553,-0.311 0,0" /></g><g
           transform="translate(241.876,331.4155)"
           id="g116"><path
             id="path118"
             style="fill:#e08c8c;fill-opacity:1;fill-rule:nonzero;stroke:none"
             d="M 0,0 C 0.46,0.219 0.992,0.233 1.459,0.026 2.032,-0.228 2.533,0.619 1.955,0.875 1.14,1.236 0.311,1.232 -0.496,0.849 -1.067,0.577 -0.569,-0.271 0,0" /></g><g
           transform="translate(241.1016,334.2354)"
           id="g120"><path
             id="path122"
             style="fill:#e05869;fill-opacity:1;fill-rule:nonzero;stroke:none"
             d="M 0,0 C 0.521,0.087 1.043,0.175 1.564,0.263 2.187,0.368 1.923,1.315 1.303,1.211 L -0.261,0.948 C -0.884,0.843 -0.62,-0.104 0,0" /></g><g
           transform="translate(250.4912,334.3701)"
           id="g124"><path
             id="path126"
             style="fill:#e05869;fill-opacity:1;fill-rule:nonzero;stroke:none"
             d="M 0,0 C 0.144,0.03 0.28,0.009 0.407,-0.063 0.975,-0.335 1.474,0.512 0.903,0.786 0.511,0.974 0.166,1.019 -0.261,0.948 -0.884,0.845 -0.62,-0.103 0,0" /></g><g
           transform="translate(259.7095,330.7144)"
           id="g128"><path
             id="path130"
             style="fill:#e08c8c;fill-opacity:1;fill-rule:nonzero;stroke:none"
             d="m 0,0 c 0.384,0.339 0.431,0.3 0.539,-0.18 0.093,-0.416 0.089,-0.866 0.04,-1.288 -0.074,-0.627 0.91,-0.621 0.983,0 C 1.641,-0.793 1.62,0.044 1.282,0.651 0.8,1.516 -0.079,1.24 -0.695,0.695 -1.17,0.275 -0.472,-0.418 0,0" /></g></g></g><g
       id="g132"><g
         clip-path="url(#clipPath138)"
         id="g134"><g
           transform="translate(95.3701,189.8799)"
           id="g140"><path
             id="path142"
             style="fill:#343d5a;fill-opacity:1;fill-rule:nonzero;stroke:none"
             d="m 0,0 v -99.054 c 0,-3.795 5.899,-3.801 5.899,0 V 0 C 5.899,3.796 0,3.802 0,0" /></g><g
           transform="translate(70.3672,87.877)"
           id="g144"><path
             id="path146"
             style="fill:#343d5a;fill-opacity:1;fill-rule:nonzero;stroke:none"
             d="M 0,0 C 9.546,0.388 18.288,5.282 27.953,5.291 37.855,5.3 46.853,0.388 56.637,0 c 3.796,-0.15 3.789,5.749 0,5.898 C 46.899,6.285 37.874,11.199 27.953,11.19 18.266,11.182 9.496,6.284 0,5.898 -3.783,5.745 -3.802,-0.154 0,0" /></g><g
           transform="translate(82.4189,86.9629)"
           id="g148"><path
             id="path150"
             style="fill:#343d5a;fill-opacity:1;fill-rule:nonzero;stroke:none"
             d="m 0,0 c 0,-2.271 -1.841,-4.112 -4.112,-4.112 -2.271,0 -4.112,1.841 -4.112,4.112 0,2.271 1.841,4.111 4.112,4.111 C -1.841,4.111 0,2.271 0,0" /></g><g
           transform="translate(123.2256,86.9629)"
           id="g152"><path
             id="path154"
             style="fill:#343d5a;fill-opacity:1;fill-rule:nonzero;stroke:none"
             d="m 0,0 c 0,-2.271 -1.841,-4.112 -4.112,-4.112 -2.271,0 -4.112,1.841 -4.112,4.112 0,2.271 1.841,4.111 4.112,4.111 C -1.841,4.111 0,2.271 0,0" /></g><g
           transform="translate(26.1084,299.2314)"
           id="g156"><path
             id="path158"
             style="fill:#f8c284;fill-opacity:1;fill-rule:nonzero;stroke:none"
             d="m 0,0 c -8.37,-10.481 3.756,-62.344 15.627,-96.58 2.719,-7.843 6.054,-16.106 12.932,-20.751 4.247,-2.869 9.394,-4.023 14.426,-4.992 16.28,-3.135 55.319,-4.518 58.328,-4.556 15.344,-0.196 26.335,11.809 35.094,17.405 2.52,1.611 13.269,10.618 15.068,13.007 1.799,2.389 -41.573,12.268 -57.587,16.59 -1.439,0.389 -2.95,0.818 -3.993,1.883 -1.007,1.027 -1.416,2.486 -1.74,3.888 -2.885,12.473 -1.926,25.459 -1.763,38.26 0.167,13.041 -2.926,30.35 -3.601,43.375 C 82.499,13.151 8.022,10.045 0,0" /></g><g
           transform="translate(32.7705,295.3467)"
           id="g160"><path
             id="path162"
             style="fill:#e8a96b;fill-opacity:1;fill-rule:nonzero;stroke:none"
             d="m 0,0 c 7.739,-1.015 7.926,-11.349 8.773,-17.243 0.947,-6.599 1.894,-13.198 2.842,-19.797 1.876,-13.064 3.666,-26.181 6.847,-39.007 1.525,-6.147 3.342,-12.26 5.699,-18.144 1.66,-4.145 3.872,-8.615 7.952,-10.857 2.269,-1.247 4.851,-1.597 7.371,-2.009 3.213,-0.525 6.421,-1.074 9.629,-1.624 6.468,-1.11 12.935,-2.225 19.431,-3.159 6.906,-0.993 13.849,-1.8 20.822,-2.112 6.676,-0.299 12.477,0.606 18.378,3.887 0.552,0.307 0.057,1.157 -0.497,0.848 -5.899,-3.279 -11.667,-4.05 -18.321,-3.732 -6.584,0.314 -13.142,1.062 -19.665,1.991 -6.351,0.904 -12.675,1.986 -18.996,3.072 -3.075,0.528 -6.148,1.058 -9.226,1.566 -3.049,0.503 -6.357,0.769 -9.024,2.476 -4.932,3.156 -6.932,9.652 -8.737,14.878 -2.095,6.065 -3.745,12.275 -5.115,18.54 -2.803,12.817 -4.481,25.855 -6.344,38.832 C 10.776,-24.33 9.958,-16.989 8.657,-9.767 7.779,-4.893 5.469,0.266 0,0.983 -0.625,1.065 -0.619,0.081 0,0" /></g><g
           transform="translate(95.5391,349.062)"
           id="g164"><path
             id="path166"
             style="fill:#8e205f;fill-opacity:1;fill-rule:nonzero;stroke:none"
             d="m 0,0 c 0.121,-2.121 0.024,-9.606 -1.352,-11.224 -6.45,-7.586 -13.377,-8.238 -15.115,-16.634 -1.014,-4.896 1.274,-8.23 -1.154,-12.602 -1.464,-2.637 -4.895,-5.729 -6.445,-8.317 -2.305,-3.847 -0.663,-9.724 2.482,-12.922 7.161,-7.284 24.143,-7.381 28.642,-1.726 1.681,2.114 2.606,4.832 4.646,6.602 6.024,5.228 17.472,-0.807 22.515,5.373 3.453,4.232 1.377,11.895 6.002,14.799 1.758,1.104 4.613,0.546 5.772,2.268 6.124,9.099 2.322,12.752 1.993,15.794 -0.6,5.545 1.668,2.266 3.268,8.757 1.178,4.782 -2.097,8.033 -0.274,13.617 0.639,1.956 0.631,7.03 -0.717,10.798 -1.188,3.321 -12.699,11.694 -19.07,13.01 C 13.297,31.288 -1.139,20.011 0,0" /></g><g
           transform="translate(82.2734,315.2446)"
           id="g168"><path
             id="path170"
             style="fill:#a02d74;fill-opacity:1;fill-rule:nonzero;stroke:none"
             d="M 0,0 C 0.059,-0.009 0.119,-0.019 0.178,-0.027 0.383,-0.06 0.63,-0.01 0.733,0.198 1.433,1.613 1.061,3.742 1.501,5.31 2.18,7.727 3.438,9.84 5.137,11.674 5.566,12.138 4.873,12.835 4.442,12.37 3.051,10.868 1.918,9.199 1.144,7.296 0.932,6.777 -0.881,1.125 0.261,0.948 -0.358,1.044 -0.625,0.097 0,0" /></g><g
           transform="translate(79.3154,304.2881)"
           id="g172"><path
             id="path174"
             style="fill:#a02d74;fill-opacity:1;fill-rule:nonzero;stroke:none"
             d="m 0,0 c -2.694,-3.172 -4.064,-7.026 -3.931,-11.189 0.021,-0.632 1.004,-0.634 0.984,0 -0.125,3.899 1.113,7.515 3.642,10.494 C 1.103,-0.215 0.41,0.483 0,0" /></g><g
           transform="translate(80.6914,299.0327)"
           id="g176"><path
             id="path178"
             style="fill:#a02d74;fill-opacity:1;fill-rule:nonzero;stroke:none"
             d="m 0,0 c -1.5,-2.733 -1.875,-5.774 -1.075,-8.787 0.162,-0.611 1.111,-0.352 0.948,0.261 -0.733,2.761 -0.398,5.527 0.976,8.03 C 1.154,0.059 0.305,0.555 0,0" /></g><g
           transform="translate(213.3101,273.6885)"
           id="g180"><path
             id="path182"
             style="fill:#fab2ae;fill-opacity:1;fill-rule:nonzero;stroke:none"
             d="M 0,0 C 1.627,4.28 5.089,3.94 5.089,7.442 3.734,9.846 -1.393,3.393 -3.605,3.393 c 2.033,4.567 4.593,5.659 7.924,9.388 1.98,2.216 1.888,3.166 0.597,3.768 -0.646,0.302 -7.625,-5.825 -8.065,-6.386 -6.246,-7.96 -3.651,-3.268 -8.126,-9.585 -1.267,-1.789 -3.908,-2.272 -5.009,-4.167 -1.33,-2.29 -2.137,-6.599 0.39,-7.389 C -8.925,-13.155 -2.949,-7.758 0,0" /></g><g
           transform="translate(162.7607,277.8521)"
           id="g184"><path
             id="path186"
             style="fill:#ea5c69;fill-opacity:1;fill-rule:nonzero;stroke:none"
             d="m 0,0 c 2.115,-1.229 35.403,-2.184 36.867,-2.689 3.279,-1.129 6.153,-8.873 2.771,-13.163 -13.745,-1.647 -48.721,-4.581 -54.385,2.247 -8.493,10.24 -15.347,30.983 -15.484,35.374 -0.31,9.938 5.841,22.928 8.848,23.231 C -8.37,46.307 -9.936,5.773 0,0" /></g><g
           transform="translate(197.0771,273.1025)"
           id="g188"><path
             id="path190"
             style="fill:#ce4e64;fill-opacity:1;fill-rule:nonzero;stroke:none"
             d="M 0,0 C 1.896,-2.292 2.596,-5.201 1.971,-8.105 1.839,-8.722 2.786,-8.986 2.919,-8.367 3.624,-5.092 2.829,-1.883 0.695,0.695 0.292,1.183 -0.401,0.484 0,0" /></g><g
           transform="translate(160.0371,277.5801)"
           id="g192"><path
             id="path194"
             style="fill:#ce4e64;fill-opacity:1;fill-rule:nonzero;stroke:none"
             d="m 0,0 c -2.052,-1.386 -4.105,-2.773 -6.157,-4.159 -0.522,-0.353 -0.03,-1.205 0.496,-0.849 2.052,1.386 4.105,2.773 6.157,4.159 C 1.018,-0.497 0.526,0.355 0,0" /></g><g
           transform="translate(160.125,275.4106)"
           id="g196"><path
             id="path198"
             style="fill:#ce4e64;fill-opacity:1;fill-rule:nonzero;stroke:none"
             d="m 0,0 c -1.41,-2.069 -2.739,-4.188 -3.988,-6.358 -0.316,-0.55 0.533,-1.046 0.849,-0.496 1.249,2.17 2.578,4.289 3.988,6.358 C 1.206,0.028 0.354,0.521 0,0" /></g><g
           transform="translate(193.1138,110.3994)"
           id="g200"><path
             id="path202"
             style="fill:#b2cec3;fill-opacity:1;fill-rule:nonzero;stroke:none"
             d="m 0,0 c 0.044,-1.111 -1.018,-7.826 -0.746,-8.905 0.46,-1.82 2.365,-3.644 3.246,-3.786 4.382,-0.71 7.652,0.296 11.47,0.328 3.177,0.025 6.961,-0.968 9.978,-1.004 11.487,-0.134 12.107,3.724 12.142,4.608 0.08,2.013 -7.674,2.847 -9.381,2.763 C 22.156,-6.22 14.067,2.929 13.971,3.53 13.296,7.737 11.533,22.937 9.943,33.427 6.967,33.665 -2.496,30.449 -5.365,31.059 -3.368,20.201 -0.267,6.783 0,0" /></g><g
           transform="translate(151.9761,83.2588)"
           id="g204"><path
             id="path206"
             style="fill:#b2cec3;fill-opacity:1;fill-rule:nonzero;stroke:none"
             d="m 0,0 c 1.031,-0.919 2.088,-1.855 3.363,-2.385 1.763,-0.73 3.747,-0.61 5.65,-0.477 2.28,0.158 6.647,-0.143 8.571,1.09 1.925,1.233 2.476,1.598 1.381,3.605 -1.032,1.002 -5.804,1.639 -8.098,2.949 -0.319,0.182 -6.991,9.334 -6.882,10.846 0.327,4.573 5.751,16.017 6.39,20.123 0.428,2.753 -11.777,5.642 -13.764,6.882 C -6.174,31.818 -6.212,27.315 -8.65,21.931 -11.001,16.737 -15.514,15.039 -10.354,9.234 -7.314,5.814 -3.417,3.047 0,0" /></g><g
           transform="translate(186.2739,215.3564)"
           id="g208"><path
             id="path210"
             style="fill:#5a78ba;fill-opacity:1;fill-rule:nonzero;stroke:none"
             d="m 0,0 c 9.497,-6.227 19.171,-65.051 22.014,-95.193 0.213,-2.266 -17.263,-4.148 -17.918,-1.809 -1.147,4.096 -7.229,26.086 -13.272,44.568 -2.699,8.253 -6.053,21.016 -8.7,29.286 -18.459,3.794 -36.611,9.082 -54.221,15.793 -2.478,0.945 -5.044,1.984 -6.8,3.972 -4.437,5.022 -1.749,13.699 1.492,18.591 7.66,6.445 15.339,5.702 27.715,3.707 C -39.754,17.312 -5.848,3.834 0,0" /></g><g
           transform="translate(85.415,200.4453)"
           id="g212"><path
             id="path214"
             style="fill:#6884cd;fill-opacity:1;fill-rule:nonzero;stroke:none"
             d="m 0,0 c 6.825,-4.659 24.612,-7.365 32.721,-8.959 14.008,-2.753 40.26,-5.302 39.791,-6.443 -8.357,-20.319 -5.604,-41.619 -14.747,-73.079 3.975,-2.875 14.716,-5.562 17.205,-4.637 5.68,13.129 6.827,20.249 14.583,37.407 7.966,17.622 17.821,55.809 2.615,62.819 -15.823,7.296 -23.455,8.56 -42.104,15.258 -9.857,3.541 -19.943,5.578 -29.869,8.944 -6.723,2.28 -29.214,14.323 -31.362,6.681 C -18.158,13.12 -9.056,6.183 0,0" /></g><g
           transform="translate(159.502,186.6777)"
           id="g216"><path
             id="path218"
             style="fill:#5a78ba;fill-opacity:1;fill-rule:nonzero;stroke:none"
             d="M 0,0 C 1.668,2.792 3.605,5.383 5.815,7.77 6.245,8.233 5.551,8.931 5.12,8.465 2.854,6.017 0.862,3.36 -0.849,0.496 -1.174,-0.049 -0.325,-0.544 0,0" /></g><g
           transform="translate(161.3804,185.3584)"
           id="g220"><path
             id="path222"
             style="fill:#5a78ba;fill-opacity:1;fill-rule:nonzero;stroke:none"
             d="M 0,0 C 2.147,2.156 4.581,3.923 7.292,5.301 7.856,5.588 7.359,6.437 6.796,6.149 4.011,4.734 1.508,2.908 -0.695,0.695 -1.142,0.246 -0.447,-0.449 0,0" /></g><g
           transform="translate(74.248,238.4365)"
           id="g224"><path
             id="path226"
             style="fill:#ea5c69;fill-opacity:1;fill-rule:nonzero;stroke:none"
             d="m 0,0 c -1.168,-2.701 17.109,-12.883 39.675,-11.518 15.182,0.918 23.151,5.373 22.661,7.353 -1.368,5.526 -2.58,12.545 -3.988,18.805 -2.077,9.232 2.719,19.465 2.719,19.465 3.113,-0.491 13.026,4.584 12.945,12.125 -0.072,6.599 -7.026,12.044 -7.128,17.467 -0.168,8.92 1.372,20.53 0.245,20.718 -1.052,0.176 -4.884,0.569 -5.816,0.832 -8.596,2.418 -24.822,3.942 -28.961,3.652 -3.991,-0.28 -16.345,-3.652 -18.229,-5.884 0,0 -1.364,-1.395 -1.348,-7.075 C 12.815,61.035 11.528,32.588 8.54,21.603 6.143,12.789 3.554,8.216 0,0" /></g><g
           transform="translate(142.4829,313.4819)"
           id="g228"><path
             id="path230"
             style="fill:#ce4e64;fill-opacity:1;fill-rule:nonzero;stroke:none"
             d="m 0,0 c -2.858,-6.401 -3.136,-13.474 -0.712,-20.061 0.216,-0.588 1.167,-0.334 0.947,0.262 -2.326,6.321 -2.136,13.144 0.614,19.303 C 1.104,0.077 0.258,0.577 0,0" /></g><g
           transform="translate(102.9307,264.4805)"
           id="g232"><path
             id="path234"
             style="fill:#ce4e64;fill-opacity:1;fill-rule:nonzero;stroke:none"
             d="m 0,0 c 4.953,-7.437 12.591,-12.613 21.35,-14.408 0.617,-0.127 0.881,0.821 0.261,0.948 C 13.102,-11.716 5.666,-6.737 0.849,0.496 0.5,1.021 -0.352,0.529 0,0" /></g><g
           transform="translate(104.9932,250.1455)"
           id="g236"><path
             id="path238"
             style="fill:#ce4e64;fill-opacity:1;fill-rule:nonzero;stroke:none"
             d="m 0,0 c 4.565,-1.96 9.27,-3.44 14.141,-4.423 0.617,-0.124 0.881,0.823 0.261,0.948 C 9.615,-2.51 4.984,-1.078 0.496,0.849 -0.079,1.096 -0.581,0.25 0,0" /></g><g
           transform="translate(110.5239,239.542)"
           id="g240"><path
             id="path242"
             style="fill:#ce4e64;fill-opacity:1;fill-rule:nonzero;stroke:none"
             d="m 0,0 c 2.411,-0.338 4.824,-0.513 7.259,-0.509 0.632,0.001 0.633,0.985 0,0.984 C 4.914,0.471 2.584,0.622 0.262,0.948 -0.357,1.035 -0.625,0.088 0,0" /></g><g
           transform="translate(117.373,308.915)"
           id="g244"><path
             id="path246"
             style="fill:#ce4e64;fill-opacity:1;fill-rule:nonzero;stroke:none"
             d="m 0,0 c 3.451,-3.176 7.757,-4.858 12.449,-4.847 0.633,0.002 0.634,0.985 0,0.984 C 8.009,-3.875 3.964,-2.313 0.695,0.695 0.23,1.123 -0.467,0.43 0,0" /></g><g
           transform="translate(121.7129,300.0547)"
           id="g248"><path
             id="path250"
             style="fill:#ce4e64;fill-opacity:1;fill-rule:nonzero;stroke:none"
             d="M 0,0 C 1.638,-0.901 3.277,-1.803 4.916,-2.704 5.47,-3.009 5.967,-2.16 5.412,-1.855 3.773,-0.954 2.135,-0.053 0.496,0.849 -0.059,1.154 -0.555,0.305 0,0" /></g><g
           transform="translate(110.7393,329.2407)"
           id="g252"><path
             id="path254"
             style="fill:#ef9d9c;fill-opacity:1;fill-rule:nonzero;stroke:none"
             d="m 0,0 c -0.657,-1.501 -4.14,-1.905 -4.14,-1.905 -1.082,-1.231 20.378,-16.277 29.985,-4.268 -2.493,1.25 -5.448,3.578 -5.448,3.578 C 19.46,-0.855 23.514,9.198 23.2,14.38 16.095,13.456 9.649,15.222 3.222,18.022 1.369,11.755 2.127,4.867 0,0" /></g><g
           transform="translate(129.9077,327.626)"
           id="g256"><path
             id="path258"
             style="fill:#fab2ae;fill-opacity:1;fill-rule:nonzero;stroke:none"
             d="M 0,0 C 5.162,0 10.931,11.121 11.838,18.303 12.482,23.4 14.467,29.708 11.154,34.667 8.3,38.939 7.342,38.851 3.575,42.345 -0.191,45.838 -4.481,44.245 -9.34,42.573 -23.196,37.804 -19.974,26.201 -16.988,14.429 -14.248,3.624 -3.051,0 0,0" /></g><g
           transform="translate(111.1465,347.2632)"
           id="g260"><path
             id="path262"
             style="fill:#8e205f;fill-opacity:1;fill-rule:nonzero;stroke:none"
             d="m 0,0 c 4.612,4.549 5.382,9.198 7.03,16.309 2.903,3.268 8.295,-2.175 13.463,-3.614 5.447,-1.516 15.801,-4.178 16.948,2.376 1.907,10.9 -6.065,8.662 -8.379,10.405 -1.776,1.338 -7.574,6.069 -9.645,6.882 -7.239,2.838 -16.622,1.086 -18.68,-3.195 l -7.25,-6.022 C -9.343,20.27 -12.516,15.678 -11.798,11.712 -11.076,7.734 -7.815,7.955 -7.633,3.934 -8.598,-3.737 -9.513,-9.382 0,0" /></g><g
           transform="translate(116.0093,348.3452)"
           id="g264"><path
             id="path266"
             style="fill:#fab2ae;fill-opacity:1;fill-rule:nonzero;stroke:none"
             d="m 0,0 c 0.653,3.049 -2.179,11.356 -6.478,5.901 -1.135,-2.463 -1.391,-5.206 -0.726,-7.787 0.428,-1.658 1.619,-3.502 3.632,-3.618 2.355,-0.137 3.86,2.269 3.607,4.241 z" /></g><g
           transform="translate(134.7524,338.4619)"
           id="g268"><path
             id="path270"
             style="fill:#ffffff;fill-opacity:1;fill-rule:nonzero;stroke:none"
             d="m 0,0 c 0,0 -6.554,-0.656 -8.685,0.819 0,0 0.492,-5.706 4.343,-6.376 C -0.492,-6.227 0,0 0,0" /></g><g
           transform="translate(132.3628,350.168)"
           id="g272"><path
             id="path274"
             style="fill:#e08c8c;fill-opacity:1;fill-rule:nonzero;stroke:none"
             d="m 0,0 c -0.858,-1.775 -0.478,-3.494 0.045,-5.315 0.141,-0.492 0.408,-1.124 0.438,-1.638 0.045,-0.772 -0.119,-0.671 -0.688,-0.734 -0.633,-0.071 -1.514,-0.17 -2.119,0.047 -0.596,0.215 -0.853,-0.735 -0.261,-0.947 0.881,-0.318 3.177,-0.411 3.83,0.451 0.43,0.568 0.21,1.372 0.058,1.994 -0.456,1.873 -1.369,3.754 -0.454,5.646 C 1.123,0.071 0.275,0.57 0,0" /></g><g
           transform="translate(127.3564,350.9541)"
           id="g276"><path
             id="path278"
             style="fill:#8e205f;fill-opacity:1;fill-rule:nonzero;stroke:none"
             d="M 0,0 C 0,-1.045 -0.577,-1.892 -1.289,-1.892 -2,-1.892 -2.577,-1.045 -2.577,0 -2.577,1.045 -2,1.893 -1.289,1.893 -0.577,1.893 0,1.045 0,0" /></g><g
           transform="translate(140.2661,349.9199)"
           id="g280"><path
             id="path282"
             style="fill:#8e205f;fill-opacity:1;fill-rule:nonzero;stroke:none"
             d="M 0,0 C 0,-1.045 -0.577,-1.893 -1.289,-1.893 -2,-1.893 -2.578,-1.045 -2.578,0 -2.578,1.045 -2,1.892 -1.289,1.892 -0.577,1.892 0,1.045 0,0" /></g><g
           transform="translate(121.4272,356.3862)"
           id="g284"><path
             id="path286"
             style="fill:#8e205f;fill-opacity:1;fill-rule:nonzero;stroke:none"
             d="M 0,0 C 1.55,1.297 3.524,1.778 5.229,0.45 5.722,0.065 6.423,0.756 5.924,1.145 3.772,2.822 1.315,2.377 -0.695,0.695 -1.181,0.289 -0.482,-0.403 0,0" /></g><g
           transform="translate(136.1855,355.0801)"
           id="g288"><path
             id="path290"
             style="fill:#8e205f;fill-opacity:1;fill-rule:nonzero;stroke:none"
             d="M 0,0 C 1.447,0.868 3.074,1.209 4.746,0.945 5.364,0.847 5.631,1.794 5.007,1.893 3.068,2.2 1.191,1.861 -0.496,0.849 -1.038,0.523 -0.544,-0.327 0,0" /></g><g
           transform="translate(113.0073,352.8188)"
           id="g292"><path
             id="path294"
             style="fill:#e08c8c;fill-opacity:1;fill-rule:nonzero;stroke:none"
             d="m 0,0 c -0.17,0.681 -0.774,1.114 -1.503,0.971 -1.1,-0.216 -1.367,-1.544 -1.507,-2.461 -0.269,-1.77 -0.527,-6.637 2.222,-6.718 0.633,-0.019 0.633,0.964 0,0.983 -1.311,0.038 -1.351,2.803 -1.373,3.624 -0.013,0.489 0,0.977 0.051,1.464 0.054,0.343 0.108,0.685 0.161,1.028 0.026,0.529 0.359,0.812 1.001,0.848 C -0.794,-0.875 0.154,-0.615 0,0" /></g><g
           transform="translate(121.9316,371.2183)"
           id="g296"><path
             id="path298"
             style="fill:#a02d74;fill-opacity:1;fill-rule:nonzero;stroke:none"
             d="m 0,0 c 4.055,-5.05 10.026,-7.982 16.496,-8.157 0.633,-0.017 0.632,0.967 0,0.984 C 10.271,-7.006 4.59,-4.156 0.695,0.695 0.299,1.188 -0.393,0.489 0,0" /></g><g
           transform="translate(124.8276,376.3398)"
           id="g300"><path
             id="path302"
             style="fill:#a02d74;fill-opacity:1;fill-rule:nonzero;stroke:none"
             d="M 0,0 C 3.205,-3.903 8.739,-9.164 14.261,-8.112 14.882,-7.994 14.619,-7.046 14,-7.165 8.927,-8.13 3.631,-2.881 0.695,0.695 0.293,1.185 -0.399,0.485 0,0" /></g><g
           transform="translate(113.5996,360.0708)"
           id="g304"><path
             id="path306"
             style="fill:#a02d74;fill-opacity:1;fill-rule:nonzero;stroke:none"
             d="M 0,0 C 0.621,2.662 1.735,5.076 3.35,7.28 3.724,7.792 2.871,8.282 2.5,7.777 0.841,5.512 -0.311,2.995 -0.948,0.261 -1.092,-0.354 -0.144,-0.617 0,0" /></g><g
           transform="translate(108.1694,358.356)"
           id="g308"><path
             id="path310"
             style="fill:#a02d74;fill-opacity:1;fill-rule:nonzero;stroke:none"
             d="M 0,0 C 1.033,3.209 2.501,6.179 4.409,8.957 4.768,9.479 3.916,9.972 3.56,9.453 1.607,6.61 0.108,3.542 -0.948,0.261 -1.143,-0.342 -0.193,-0.601 0,0" /></g><g
           transform="translate(101.8042,359.3325)"
           id="g312"><path
             id="path314"
             style="fill:#a02d74;fill-opacity:1;fill-rule:nonzero;stroke:none"
             d="M 0,0 C 0.842,3.443 2.359,6.566 4.574,9.335 4.965,9.824 4.274,10.524 3.878,10.03 1.558,7.129 -0.066,3.871 -0.948,0.261 -1.099,-0.353 -0.151,-0.615 0,0" /></g><g
           transform="translate(99.9341,352.1284)"
           id="g316"><path
             id="path318"
             style="fill:#a02d74;fill-opacity:1;fill-rule:nonzero;stroke:none"
             d="m 0,0 c -0.266,-5.589 1.272,-14.255 -5.413,-16.785 -0.586,-0.222 -0.332,-1.173 0.261,-0.948 C 2.099,-14.989 0.691,-6.126 0.983,0 1.013,0.633 0.03,0.631 0,0" /></g><g
           transform="translate(101.2764,334.6211)"
           id="g320"><path
             id="path322"
             style="fill:#a02d74;fill-opacity:1;fill-rule:nonzero;stroke:none"
             d="m 0,0 c 1.585,2.387 2.487,5.034 2.729,7.888 0.053,0.63 -0.931,0.627 -0.984,0 C 1.519,5.205 0.64,2.738 -0.849,0.496 -1.2,-0.033 -0.349,-0.525 0,0" /></g><g
           transform="translate(104.9775,333.1436)"
           id="g324"><path
             id="path326"
             style="fill:#a02d74;fill-opacity:1;fill-rule:nonzero;stroke:none"
             d="M 0,0 C 0.891,1.726 1.782,3.451 2.673,5.177 2.963,5.738 2.115,6.236 1.824,5.673 0.934,3.948 0.042,2.222 -0.849,0.496 -1.139,-0.065 -0.291,-0.563 0,0" /></g><g
           transform="translate(143.5312,343.3198)"
           id="g328"><path
             id="path330"
             style="fill:#a02d74;fill-opacity:1;fill-rule:nonzero;stroke:none"
             d="m 0,0 c 1.159,-3.029 -1.266,-4.081 -2.796,-6.106 -1.001,-1.327 -1.381,-2.9 -1.314,-4.539 0.025,-0.63 1.008,-0.633 0.983,0 -0.066,1.624 0.368,3.162 1.481,4.385 0.681,0.749 1.566,1.289 2.155,2.127 0.934,1.33 1.007,2.91 0.439,4.394 C 0.724,0.846 -0.227,0.592 0,0" /></g><g
           transform="translate(179.4805,322.5146)"
           id="g332"><path
             id="path334"
             style="fill:#fab2ae;fill-opacity:1;fill-rule:nonzero;stroke:none"
             d="m 0,0 c 3.596,-0.482 0.384,-3.332 -0.915,-5.559 -1.3,-2.226 -1.807,-1.91 -3.056,-4.166 -0.347,-0.627 -2.217,-3.002 -1.904,-3.648 0.198,-0.41 4.646,0.101 4.646,-2.958 0,-4.377 0.242,-8.241 -0.983,-9.351 -2.255,-2.043 -5.122,-3.105 -6.23,-2.94 -3.628,0.539 -7.035,-0.591 -10.162,-2.259 -6.633,7.999 -5.141,9.584 1.667,15.498 C -10.771,-10.025 -5.534,-5.448 0,0" /></g><g
           transform="translate(157.5254,304.2271)"
           id="g336"><path
             id="path338"
             style="fill:#ea5c69;fill-opacity:1;fill-rule:nonzero;stroke:none"
             d="m 0,0 c -11.899,-9.708 -16.872,-10.729 -28.146,-19.761 -4.414,7.263 -10.418,11.699 -14.832,18.962 -3.359,5.528 -10.584,15.327 -16.228,18.488 -5.607,3.141 -10.989,-0.76 -11.256,-1.758 -4.66,-5.915 -2.68,-12.277 -0.684,-18.902 2.166,-7.191 13.304,-18.284 18.665,-23.543 7.23,-7.092 11.026,-15.804 20.866,-18.203 6.619,-1.613 35.427,27.451 40.633,31.901 C 10.251,-11.762 5.921,-3.803 0,0" /></g><g
           transform="translate(127.9219,283.9561)"
           id="g340"><path
             id="path342"
             style="fill:#ce4e64;fill-opacity:1;fill-rule:nonzero;stroke:none"
             d="m 0,0 c -3.372,-3.226 -5.591,-7.268 -6.488,-11.848 -0.121,-0.618 0.826,-0.882 0.947,-0.261 0.869,4.428 2.975,8.294 6.236,11.414 C 1.153,-0.257 0.458,0.437 0,0" /></g><g
           transform="translate(156.2261,300.332)"
           id="g344"><path
             id="path346"
             style="fill:#ce4e64;fill-opacity:1;fill-rule:nonzero;stroke:none"
             d="M 0,0 C 2.429,-2.317 4.528,-4.903 6.291,-7.76 6.622,-8.298 7.473,-7.805 7.14,-7.264 5.334,-4.337 3.184,-1.679 0.695,0.695 0.237,1.132 -0.459,0.437 0,0" /></g><g
           transform="translate(127.874,281.9312)"
           id="g348"><path
             id="path350"
             style="fill:#ce4e64;fill-opacity:1;fill-rule:nonzero;stroke:none"
             d="m 0,0 c -0.622,-2.301 -0.952,-4.631 -0.995,-7.014 -0.011,-0.632 0.972,-0.632 0.983,0 0.042,2.295 0.361,4.537 0.96,6.752 C 1.113,0.35 0.165,0.611 0,0" /></g><g
           transform="translate(102.165,317.6475)"
           id="g352"><path
             id="path354"
             style="fill:#ce4e64;fill-opacity:1;fill-rule:nonzero;stroke:none"
             d="m 0,0 c 8.563,-11.578 17.659,-22.746 27.271,-33.469 0.132,-0.147 0.429,-0.198 0.595,-0.076 7.601,5.568 15.15,11.239 23.2,16.152 0.539,0.33 0.046,1.18 -0.496,0.85 -4.794,-2.926 -9.409,-6.124 -13.965,-9.405 -2.281,-1.644 -4.547,-3.308 -6.813,-4.972 -1.335,-0.98 -1.769,-1.637 -3.074,-0.458 -1.129,1.019 -2.094,2.363 -3.095,3.512 C 15.65,-18.725 8.061,-9.256 0.849,0.496 0.477,1 -0.377,0.51 0,0" /></g><g
           transform="translate(144.7236,271.6299)"
           id="g356"><path
             id="path358"
             style="fill:#ce4e64;fill-opacity:1;fill-rule:nonzero;stroke:none"
             d="m 0,0 c 2.292,1.96 4.542,3.968 6.817,5.946 2.268,1.971 4.747,3.669 6.975,5.685 0.47,0.425 -0.227,1.119 -0.695,0.695 C 10.871,10.312 8.39,8.611 6.123,6.641 3.846,4.664 1.596,2.655 -0.695,0.695 -1.177,0.283 -0.479,-0.409 0,0" /></g><g
           transform="translate(87.1733,298.1719)"
           id="g360"><path
             id="path362"
             style="fill:#ce4e64;fill-opacity:1;fill-rule:nonzero;stroke:none"
             d="m 0,0 c 7.15,-9.217 14.736,-18.125 22.971,-26.394 3.671,-3.686 7.443,-7.582 11.654,-10.659 2.829,-2.069 6.845,-3.045 9.254,0.147 0.381,0.505 -0.472,0.996 -0.849,0.496 -3.801,-5.037 -10.491,2.298 -13.363,4.936 -3.584,3.292 -7.024,6.739 -10.361,10.281 C 12.735,-14.22 6.567,-6.874 0.695,0.695 0.308,1.194 -0.383,0.494 0,0" /></g><g
           transform="translate(324.7314,160.499)"
           id="g364"><path
             id="path366"
             style="fill:#6aa085;fill-opacity:1;fill-rule:nonzero;stroke:none"
             d="M 0,0 C 0,26.381 4.762,39.78 4.762,63.615 -14.09,41.833 -17.734,10.288 -12.387,-18.019 c 0.392,-2.074 0.917,-4.258 2.416,-5.744 1.499,-1.486 4.289,-1.853 5.607,-0.206 1.514,1.891 2.65,6.446 3.923,8.818 C 1.935,-10.725 0,-5.004 0,0" /></g><g
           transform="translate(322.8667,208.1836)"
           id="g368"><path
             id="path370"
             style="fill:#95d8ba;fill-opacity:1;fill-rule:nonzero;stroke:none"
             d="m 0,0 c -5.633,-19.134 -9.33,-38.904 -9.135,-58.907 0.007,-0.633 0.989,-0.634 0.983,0 -0.194,19.922 3.491,39.591 9.1,58.645 C 1.127,0.347 0.178,0.606 0,0" /></g><g
           transform="translate(308.0195,193.0859)"
           id="g372"><path
             id="path374"
             style="fill:#83b29e;fill-opacity:1;fill-rule:nonzero;stroke:none"
             d="m 0,0 c -0.811,10.331 0.246,20.803 -1.432,31.028 -12.449,-16.616 -15.43,-39.861 -7.578,-59.082 4.972,-12.17 13.056,-22.721 12.834,-36.393 9.874,6.175 9.276,16.926 5.88,26.265 C 5.197,-25.79 1.039,-13.233 0,0" /></g><g
           transform="translate(303.52,210.9854)"
           id="g376"><path
             id="path378"
             style="fill:#6aa085;fill-opacity:1;fill-rule:nonzero;stroke:none"
             d="m 0,0 c -7.955,-22.905 2.968,-46.191 6.625,-68.769 0.102,-0.623 1.049,-0.359 0.948,0.261 C 3.945,-46.106 -6.943,-22.983 0.948,-0.261 1.156,0.338 0.207,0.596 0,0" /></g><g
           transform="translate(305.4463,166.5186)"
           id="g380"><path
             id="path382"
             style="fill:#95d8ba;fill-opacity:1;fill-rule:nonzero;stroke:none"
             d="m 0,0 c -7.43,14.987 -20.532,25.276 -28.888,39.775 0,-16.3 4.268,-22.068 7.823,-29.822 4.56,-9.947 11.102,-13.916 13.993,-24.471 1.604,-5.857 0.246,-12.119 1.056,-18.138 0.811,-6.019 5.407,-12.553 11.422,-11.718 -2.887,-0.4 0.206,18.233 0.328,20.362 C 6.195,-15.982 3.524,-7.109 0,0" /></g><g
           transform="translate(281.5605,191.8057)"
           id="g384"><path
             id="path386"
             style="fill:#83b29e;fill-opacity:1;fill-rule:nonzero;stroke:none"
             d="m 0,0 c 2.528,-9.153 9.025,-16.193 14.1,-23.98 2.887,-4.432 5.125,-9.123 6.188,-14.333 1.228,-6.015 1.133,-12.202 1.045,-18.311 -0.009,-0.633 0.974,-0.633 0.983,0 0.16,11.03 -0.321,21.58 -6.176,31.249 C 10.988,-16.869 3.656,-9.543 0.948,0.262 0.78,0.87 -0.169,0.611 0,0" /></g><g
           transform="translate(320.8677,175.0996)"
           id="g388"><path
             id="path390"
             style="fill:#95d8ba;fill-opacity:1;fill-rule:nonzero;stroke:none"
             d="M 0,0 C 7.181,13.812 17.606,19.546 22.766,40.034 27.437,27.158 24.928,18.357 20.417,8.769 18.725,5.172 16.339,1.956 14.164,-1.37 4.792,-15.698 0.352,-31.359 -1.883,-48.146 -10.289,-33.811 -7.486,-14.399 0,0" /></g><g
           transform="translate(341.5835,199.2363)"
           id="g392"><path
             id="path394"
             style="fill:#83b29e;fill-opacity:1;fill-rule:nonzero;stroke:none"
             d="m 0,0 c -5.778,-21.303 -29.827,-37.943 -24.829,-61.939 0.129,-0.62 1.077,-0.357 0.948,0.261 -4.918,23.614 19.122,40.377 24.829,61.416 C 1.114,0.35 0.166,0.61 0,0" /></g><g
           transform="translate(339.9897,175.4824)"
           id="g396"><path
             id="path398"
             style="fill:#83b29e;fill-opacity:1;fill-rule:nonzero;stroke:none"
             d="M 0,0 C 6.102,4.528 13.343,7.859 17.881,13.953 16.409,5.257 12.466,-3.007 6.633,-9.622 4.22,-12.36 1.499,-14.813 -0.953,-17.516 -9.685,-27.141 -13.561,-38.764 -17.037,-50.966 -27.485,-33.625 -14.153,-10.504 0,0" /></g><g
           transform="translate(349.4648,178.0635)"
           id="g400"><path
             id="path402"
             style="fill:#6aa085;fill-opacity:1;fill-rule:nonzero;stroke:none"
             d="m 0,0 c -9.422,-11.379 -23.717,-19.784 -27.573,-34.928 -0.156,-0.613 0.791,-0.875 0.948,-0.261 3.805,14.943 18.021,23.263 27.32,34.494 C 1.096,-0.211 0.404,0.488 0,0" /></g><g
           transform="translate(334.0713,83.0801)"
           id="g404"><path
             id="path406"
             style="fill:#77454a;fill-opacity:1;fill-rule:nonzero;stroke:none"
             d="m 0,0 h -34.482 l -4.916,66.192 H 4.916 Z" /></g><g
           transform="translate(301.6279,141.8984)"
           id="g408"><path
             id="path410"
             style="fill:#965760;fill-opacity:1;fill-rule:nonzero;stroke:none"
             d="m 0,0 h 29.985 c 0.633,0 0.634,0.983 0,0.983 H 0 C -0.633,0.983 -0.634,0 0,0" /></g><g
           transform="translate(302.6108,131.5752)"
           id="g412"><path
             id="path414"
             style="fill:#965760;fill-opacity:1;fill-rule:nonzero;stroke:none"
             d="m 0,0 h 17.205 c 0.632,0 0.633,0.983 0,0.983 H 0 C -0.632,0.983 -0.633,0 0,0" /></g><g
           transform="translate(317.3579,122.2363)"
           id="g416"><path
             id="path418"
             style="fill:#965760;fill-opacity:1;fill-rule:nonzero;stroke:none"
             d="m 0,0 h 10.323 c 0.633,0 0.634,0.982 0,0.982 H 0 C -0.632,0.982 -0.634,0 0,0" /></g><g
           transform="translate(311.459,112.4043)"
           id="g420"><path
             id="path422"
             style="fill:#965760;fill-opacity:1;fill-rule:nonzero;stroke:none"
             d="m 0,0 h 3.441 c 0.633,0 0.634,0.983 0,0.983 H 0 C -0.632,0.983 -0.633,0 0,0" /></g><g
           transform="translate(320.3071,105.0313)"
           id="g424"><path
             id="path426"
             style="fill:#965760;fill-opacity:1;fill-rule:nonzero;stroke:none"
             d="m 0,0 h 3.933 c 0.632,0 0.633,0.983 0,0.983 H 0 C -0.632,0.983 -0.633,0 0,0" /></g><g
           transform="translate(309.0015,97.166)"
           id="g428"><path
             id="path430"
             style="fill:#965760;fill-opacity:1;fill-rule:nonzero;stroke:none"
             d="m 0,0 h 9.34 c 0.632,0 0.633,0.983 0,0.983 H 0 C -0.633,0.983 -0.634,0 0,0" /></g><g
           transform="translate(310.9678,88.3184)"
           id="g432"><path
             id="path434"
             style="fill:#965760;fill-opacity:1;fill-rule:nonzero;stroke:none"
             d="m 0,0 h 17.205 c 0.632,0 0.633,0.982 0,0.982 H 0 C -0.633,0.982 -0.634,0 0,0" /></g><g
           transform="translate(693.4258,85.2041)"
           id="g436"><path
             id="path438"
             style="fill:#fcf2f0;fill-opacity:1;fill-rule:nonzero;stroke:none"
             d="m 0,0 c 0,-19.187 -71.658,-34.742 -160.054,-34.742 -88.394,0 -160.053,15.555 -160.053,34.742 0,19.187 71.659,34.742 160.053,34.742 C -71.658,34.742 0,19.187 0,0" /></g><g
           transform="translate(494.375,394.3257)"
           id="g440"><path
             id="path442"
             style="fill:#ecf3fd;fill-opacity:1;fill-rule:nonzero;stroke:none"
             d="m 0,0 c -10.849,-7.183 -23.549,-23.568 -29.159,-35.307 -5.123,-10.721 -6.054,-22.878 -7.487,-34.673 -2.333,-19.211 -6.79,-39.383 -20.241,-53.295 -10.588,-10.949 -14.213,-13.591 -26.074,-23.144 -38.479,-30.995 -1.978,-87.376 39.499,-93.024 23.14,-3.151 46.917,0.024 68.976,7.691 13.116,4.558 25.812,10.726 36.547,19.535 8.62,7.073 15.852,15.739 24.647,22.593 20.89,16.283 48.47,20.89 71.823,33.385 41.402,22.153 66.761,71.054 61.015,117.656 -1.229,9.967 -4.041,19.812 -9.218,28.417 C 184.435,32.88 85.851,56.85 0,0" /></g><g
           transform="translate(428.3271,297.9131)"
           id="g444"><path
             id="path446"
             style="fill:#6884cd;fill-opacity:1;fill-rule:nonzero;stroke:none"
             d="m 0,0 h 117.645 l -8.102,66.629 H -8.103 Z" /></g><g
           transform="translate(431.1172,301.814)"
           id="g448"><path
             id="path450"
             style="fill:#aecfc2;fill-opacity:1;fill-rule:nonzero;stroke:none"
             d="m 0,0 h 111.074 l -7.111,58.828 H -7.111 Z" /></g><path
           id="path452"
           style="fill:#6884cd;fill-opacity:1;fill-rule:nonzero;stroke:none"
           d="m 482.057,272.98 h 10.186 v 24.933 h -10.186 z" /><path
           id="path454"
           style="fill:#6884cd;fill-opacity:1;fill-rule:nonzero;stroke:none"
           d="M 510.909,272.98 H 463.39 v -3.396 h 47.519 z" /></g></g><g
       id="g456"><g
         clip-path="url(#clipPath462)"
         id="g458"><g
           transform="translate(436.8643,302.5474)"
           id="g464"><path
             id="path466"
             style="fill:#ffffff;fill-opacity:1;fill-rule:nonzero;stroke:none"
             d="m 0,0 c 0,0 -5.605,20.711 4.25,22.954 9.855,2.243 53.536,3.822 58.218,-0.772 4.682,-4.594 9.585,-15.28 10.246,-22.915 z" /></g><g
           transform="translate(462.7568,320.0059)"
           id="g468"><path
             id="path470"
             style="fill:#343d5a;fill-opacity:1;fill-rule:nonzero;stroke:none"
             d="m 0,0 c -18.853,0 -21.816,-12.759 -22.888,-20.621 20.025,0.019 46.617,0.443 66.643,0.462 1.243,3.528 1.646,4.914 -4.067,12.713 -0.597,0.814 -9.021,3.259 -10.459,3.489 C 21.117,-2.656 6.615,0 0,0" /></g><g
           transform="translate(462.7568,320.0059)"
           id="g472"><path
             id="path474"
             style="fill:#d88888;fill-opacity:1;fill-rule:nonzero;stroke:none"
             d="m 0,0 c 2.113,-2.834 8.361,-4.97 16.673,-5.895 3.514,-0.391 10.684,0.675 12.556,1.938 0,0 -5.089,2.597 -5.854,3.957 -0.628,1.118 0.415,5.953 0.904,10.569 C 18.88,10.258 11.359,14.081 6.81,16.778 6.587,13.457 5.418,5.78 4.819,3.289 4.622,2.467 0.588,-0.789 0,0" /></g><g
           transform="translate(472.8828,327.939)"
           id="g476"><path
             id="path478"
             style="fill:#ef9d9c;fill-opacity:1;fill-rule:nonzero;stroke:none"
             d="m 0,0 c 2.936,-2.964 7.703,-4.495 11.876,-4.502 3.006,-0.006 3.868,3.039 4.263,3.784 1.587,2.994 2.153,7.082 2.346,10.465 0.142,2.469 1.395,7.049 0.797,9.449 -0.597,2.401 -2.808,6.898 -9.263,7.429 C 3.295,27.177 -0.015,26.391 -2.892,23.176 -7.943,17.532 -4.784,4.832 0,0" /></g><g
           transform="translate(504.8145,321.0117)"
           id="g480"><path
             id="path482"
             style="fill:#ef9d9c;fill-opacity:1;fill-rule:nonzero;stroke:none"
             d="m 0,0 c -1.564,1.552 -1.888,4.396 -2.572,6.451 -0.537,1.612 -1.039,3.299 -1.874,4.94 3.756,1.06 5.037,-5.517 6.696,-5.129 0.724,1.399 1.199,2.502 1.835,3.944 0.635,1.441 1.576,3.305 3.124,3.596 1.549,0.291 2.477,-1.16 2.093,-2.688 0.371,1.187 1.929,1.64 3.007,1.018 1.077,-0.621 1.638,-1.806 0.795,-2.721 0.896,0.43 3.361,0 2.831,-2.742 0,0 2.916,-1.514 1.06,-4.386 C 16.09,0.88 14.229,-1.006 13.016,-2.112 12.579,-2.511 9.197,-4.426 8.948,-4.963 5.765,-11.819 1.26,-20.43 0.923,-20.479 c -4.69,-0.685 -12.715,-1.03 -17.442,-0.686 C -15.276,-21.255 -1.688,-4.467 0,0" /></g><g
           transform="translate(478.6299,347.9312)"
           id="g484"><path
             id="path486"
             style="fill:#8e205f;fill-opacity:1;fill-rule:nonzero;stroke:none"
             d="m 0,0 c -0.072,-1.563 -1.228,-2.533 -1.3,-4.096 3.738,0 8.134,0.989 10.129,2.449 0.238,-1.223 0.212,-2.497 -0.074,-3.709 1.301,0.456 2.551,1.057 3.72,1.788 -0.098,-2.228 -0.01,-4.464 0.263,-6.678 3.153,3.088 5.063,12.212 0.077,17.303 -2.932,2.994 -7.711,3.787 -11.897,3.583 -3.729,-0.182 -6.726,-0.532 -9.999,-2.325 -2.508,-1.374 -5.748,-3.098 -6.573,-7.167 -1.557,-7.68 1.887,-12.644 2.382,-13.384 1.026,-1.536 3.226,-2.154 4.902,-1.375 -0.404,3.098 -1.739,2.709 -0.272,5.341 C -7.474,-6.175 -4.769,-0.583 0,0" /></g><g
           transform="translate(469.8252,341.334)"
           id="g488"><path
             id="path490"
             style="fill:#ef9d9c;fill-opacity:1;fill-rule:nonzero;stroke:none"
             d="m 0,0 c -0.7,0.833 -2.026,1.321 -3.022,0.803 -0.98,-0.51 -1.22,-1.7 -1.238,-2.736 -0.029,-1.736 0.276,-3.478 0.896,-5.118 0.355,-0.94 0.963,-1.961 2.023,-2.152 1.124,-0.202 2.198,0.704 2.499,1.721 C 1.46,-6.465 0.699,-0.833 0,0" /></g><g
           transform="translate(482.6172,339.8652)"
           id="g492"><path
             id="path494"
             style="fill:#d17d7d;fill-opacity:1;fill-rule:nonzero;stroke:none"
             d="M 0,0 C 0.049,-0.945 0.161,-1.882 0.39,-2.802 0.499,-3.238 0.629,-3.67 0.781,-4.094 0.883,-4.376 0.994,-4.655 1.115,-4.929 1.371,-5.282 1.362,-5.649 1.088,-6.028 0.57,-5.653 0.075,-6.513 0.587,-6.885 1.405,-7.479 2.313,-6.776 2.376,-5.881 2.434,-5.056 1.841,-4.177 1.592,-3.404 1.235,-2.296 1.052,-1.161 0.991,0 0.959,0.635 -0.033,0.639 0,0" /></g><g
           transform="translate(478.9912,330.8901)"
           id="g496"><path
             id="path498"
             style="fill:#d17d7d;fill-opacity:1;fill-rule:nonzero;stroke:none"
             d="m 0,0 c 1.633,-0.622 3.314,-0.94 5.06,-0.975 0.638,-0.013 0.638,0.979 0,0.992 C 3.4,0.049 1.813,0.366 0.264,0.957 -0.333,1.184 -0.591,0.226 0,0" /></g><g
           transform="translate(476.3525,338.6416)"
           id="g500"><path
             id="path502"
             style="fill:#d17d7d;fill-opacity:1;fill-rule:nonzero;stroke:none"
             d="M 0,0 C 0.705,0.349 1.488,0.483 2.269,0.367 2.893,0.275 3.162,1.23 2.532,1.323 1.468,1.481 0.466,1.334 -0.501,0.856 -1.072,0.573 -0.57,-0.282 0,0" /></g><g
           transform="translate(486.9229,338.6836)"
           id="g504"><path
             id="path506"
             style="fill:#d17d7d;fill-opacity:1;fill-rule:nonzero;stroke:none"
             d="M 0,0 C 0.458,0.619 1.276,0.77 1.967,0.5 2.562,0.267 2.819,1.226 2.23,1.456 1.097,1.899 -0.149,1.456 -0.856,0.5 -1.236,-0.013 -0.376,-0.508 0,0" /></g><g
           transform="translate(475.5146,341.7998)"
           id="g508"><path
             id="path510"
             style="fill:#8e205f;fill-opacity:1;fill-rule:nonzero;stroke:none"
             d="M 0,0 C 1.231,0.484 2.51,0.638 3.817,0.406 4.441,0.295 4.71,1.25 4.081,1.362 2.602,1.625 1.139,1.507 -0.264,0.956 -0.852,0.726 -0.596,-0.234 0,0" /></g><g
           transform="translate(485.7744,342.146)"
           id="g512"><path
             id="path514"
             style="fill:#8e205f;fill-opacity:1;fill-rule:nonzero;stroke:none"
             d="M 0,0 C 1.196,0.364 2.404,0.447 3.636,0.218 4.259,0.103 4.526,1.058 3.899,1.174 2.493,1.435 1.106,1.373 -0.263,0.956 -0.872,0.771 -0.612,-0.187 0,0" /></g><g
           transform="translate(467.9141,340.5918)"
           id="g516"><path
             id="path518"
             style="fill:#d17d7d;fill-opacity:1;fill-rule:nonzero;stroke:none"
             d="m 0,0 c -1.116,-0.947 -1.173,-2.475 -0.939,-3.826 0.188,-1.091 0.765,-3.372 2.21,-3.286 0.634,0.037 0.639,1.029 0,0.991 -0.866,-0.051 -1.268,2.462 -1.314,3.037 -0.07,0.893 0.022,1.77 0.744,2.383 C 1.187,-0.288 0.483,0.411 0,0" /></g></g></g><g
       id="g520"><g
         clip-path="url(#clipPath526)"
         id="g522"><path
           id="path528"
           style="fill:#6884cd;fill-opacity:1;fill-rule:nonzero;stroke:none"
           d="m 579.402,273.866 h -50.165 v -4.179 h 50.165 z" /><g
           transform="translate(597.7109,279.229)"
           id="g530"><path
             id="path532"
             style="fill:#6884cd;fill-opacity:1;fill-rule:nonzero;stroke:none"
             d="M 0,0 C -4.854,0 -8.788,-3.934 -8.788,-8.788 V -9.542 H 8.788 v 0.754 C 8.788,-3.934 4.854,0 0,0" /></g><g
           transform="translate(421.8252,263.4404)"
           id="g534"><path
             id="path536"
             style="fill:#737b91;fill-opacity:1;fill-rule:nonzero;stroke:none"
             d="m 0,0 v -168.234 c 0,-3.191 4.958,-3.196 4.958,0 V 0 C 4.958,3.19 0,3.195 0,0" /></g><g
           transform="translate(659.7998,263.4404)"
           id="g538"><path
             id="path540"
             style="fill:#737b91;fill-opacity:1;fill-rule:nonzero;stroke:none"
             d="m 0,0 v -168.234 c 0,-3.191 4.958,-3.196 4.958,0 V 0 C 4.958,3.19 0,3.195 0,0" /></g><path
           id="path542"
           style="fill:#343d5a;fill-opacity:1;fill-rule:nonzero;stroke:none"
           d="m 671.182,261.399 h -254.81 v 8.288 h 254.81 z" /><g
           transform="translate(448.6006,306.9687)"
           id="g544"><path
             id="path546"
             style="fill:#83b29e;fill-opacity:1;fill-rule:nonzero;stroke:none"
             d="m 0,0 -0.846,13.53 h 1.249 v 3.497 H -7.591 V 13.53 h 1.249 L -7.187,0 c -0.078,-1.234 -0.814,-2.291 -1.875,-2.926 -1.961,-1.178 -3.276,-3.323 -3.276,-5.778 v -26.514 c 0,-1.085 0.88,-1.965 1.966,-1.965 H 3.185 c 1.086,0 1.965,0.88 1.965,1.965 v 26.514 c 0,2.455 -1.314,4.6 -3.276,5.778 C 0.813,-2.291 0.077,-1.234 0,0" /></g><g
           transform="translate(443.6396,320.0415)"
           id="g548"><path
             id="path550"
             style="fill:#aecfc2;fill-opacity:1;fill-rule:nonzero;stroke:none"
             d="m 0,0 h 1.735 c 0.638,0 0.64,0.992 0,0.992 H 0 C -0.638,0.992 -0.639,0 0,0" /></g><g
           transform="translate(445.3604,310.3721)"
           id="g552"><path
             id="path554"
             style="fill:#aecfc2;fill-opacity:1;fill-rule:nonzero;stroke:none"
             d="m 0,0 c 0.192,-2.007 -0.436,-4.252 0.302,-6.181 0.857,-2.242 4.665,-3.342 4.094,-6.037 -0.132,-0.622 0.823,-0.888 0.956,-0.263 0.379,1.79 -0.517,3.018 -1.853,4.163 -1.39,1.19 -2.368,2.165 -2.531,4.127 C 0.853,-2.796 1.126,-1.405 0.991,0 0.931,0.63 -0.062,0.636 0,0" /></g><g
           transform="translate(438.2129,279.1392)"
           id="g556"><path
             id="path558"
             style="fill:#aecfc2;fill-opacity:1;fill-rule:nonzero;stroke:none"
             d="m 0,0 c -0.111,-1.691 -0.568,-5.259 1.086,-6.437 0.867,-0.618 2.201,-0.611 3.228,-0.704 1.805,-0.162 3.599,-0.114 5.399,0.075 0.628,0.066 0.635,1.058 0,0.991 C 7.651,-6.291 4.661,-6.663 2.657,-5.946 1.306,-5.462 1.085,-4.547 0.979,-3.206 0.894,-2.137 0.921,-1.068 0.991,0 1.033,0.637 0.042,0.635 0,0" /></g><g
           transform="translate(450.5029,288.0068)"
           id="g560"><path
             id="path562"
             style="fill:#f8c284;fill-opacity:1;fill-rule:nonzero;stroke:none"
             d="m 0,0 c 0,-4.685 -2.461,-8.483 -5.496,-8.483 -3.035,0 -5.496,3.798 -5.496,8.483 0,4.685 2.461,8.483 5.496,8.483 C -2.461,8.483 0,4.685 0,0" /></g><g
           transform="translate(394.1064,137.5127)"
           id="g564"><path
             id="path566"
             style="fill:#aecfc2;fill-opacity:1;fill-rule:nonzero;stroke:none"
             d="m 0,0 v -55.63 c 0,-2.131 1.728,-3.858 3.858,-3.858 h 44.957 c 2.131,0 3.859,1.727 3.859,3.858 V 0 Z" /></g><path
           id="path568"
           style="fill:#6aa085;fill-opacity:1;fill-rule:nonzero;stroke:none"
           d="m 448.102,146.191 h -55.316 v -8.679 h 55.316 z" /><g
           transform="translate(442.1982,167.4629)"
           id="g570"><path
             id="path572"
             style="fill:#83b29e;fill-opacity:1;fill-rule:nonzero;stroke:none"
             d="m 0,0 c -0.289,2.188 -2.357,3.838 -4.813,3.838 h -33.883 c -2.456,0 -4.525,-1.65 -4.814,-3.838 l -2.808,-21.271 H 2.809 Z" /></g><path
           id="path574"
           style="fill:#aecfc2;fill-opacity:1;fill-rule:nonzero;stroke:none"
           d="m 437.385,146.052 h -33.883 v 25.249 h 33.883 z" /><path
           id="path576"
           style="fill:#83b29e;fill-opacity:1;fill-rule:nonzero;stroke:none"
           d="m 434.49,109.9 h -28.094 v 13.022 h 28.094 z" /><g
           transform="translate(399.8457,82.8115)"
           id="g578"><path
             id="path580"
             style="fill:#83b29e;fill-opacity:1;fill-rule:nonzero;stroke:none"
             d="m 0,0 h 39.663 c 0.638,0 0.639,0.991 0,0.991 H 0 C -0.638,0.991 -0.639,0 0,0" /></g><g
           transform="translate(403.4814,89.752)"
           id="g582"><path
             id="path584"
             style="fill:#83b29e;fill-opacity:1;fill-rule:nonzero;stroke:none"
             d="m 0,0 h 10.577 c 0.638,0 0.639,0.992 0,0.992 H 0 C -0.638,0.992 -0.639,0 0,0" /></g><g
           transform="translate(403.8125,96.6934)"
           id="g586"><path
             id="path588"
             style="fill:#83b29e;fill-opacity:1;fill-rule:nonzero;stroke:none"
             d="m 0,0 h 3.305 c 0.638,0 0.639,0.991 0,0.991 H 0 C -0.639,0.991 -0.64,0 0,0" /></g><g
           transform="translate(420.999,133.7109)"
           id="g590"><path
             id="path592"
             style="fill:#83b29e;fill-opacity:1;fill-rule:nonzero;stroke:none"
             d="m 0,0 h 18.179 c 0.638,0 0.639,0.992 0,0.992 H 0 C -0.638,0.992 -0.639,0 0,0" /></g><g
           transform="translate(406.624,166.9277)"
           id="g594"><path
             id="path596"
             style="fill:#83b29e;fill-opacity:1;fill-rule:nonzero;stroke:none"
             d="m 0,0 c -0.001,-2.904 -0.002,-5.81 -0.004,-8.715 -0.001,-2.804 -0.537,-6.177 0.009,-8.919 0.426,-2.139 3.514,-0.762 5.13,-0.933 0.634,-0.068 0.63,0.924 0,0.991 -1.099,0.116 -2.197,-0.226 -3.281,-0.138 -1.003,0.081 -0.633,-0.165 -0.87,0.768 -0.249,0.984 0.001,2.372 0.002,3.389 C 0.988,-9.038 0.99,-4.519 0.992,0 0.992,0.639 0.001,0.64 0,0" /></g><g
           transform="translate(430.2539,129.084)"
           id="g598"><path
             id="path600"
             style="fill:#83b29e;fill-opacity:1;fill-rule:nonzero;stroke:none"
             d="m 0,0 h 7.602 c 0.638,0 0.639,0.992 0,0.992 H 0 C -0.638,0.992 -0.639,0 0,0" /></g><g
           transform="translate(411.4141,117.5156)"
           id="g602"><path
             id="path604"
             style="fill:#ffffff;fill-opacity:1;fill-rule:nonzero;stroke:none"
             d="m 0,0 h 14.874 c 0.638,0 0.639,0.992 0,0.992 H 0 C -0.638,0.992 -0.639,0 0,0" /></g><g
           transform="translate(414.7197,113.8799)"
           id="g606"><path
             id="path608"
             style="fill:#ffffff;fill-opacity:1;fill-rule:nonzero;stroke:none"
             d="m 0,0 h 6.61 c 0.638,0 0.639,0.992 0,0.992 H 0 C -0.639,0.992 -0.64,0 0,0" /></g><g
           transform="translate(612.6416,182.7266)"
           id="g610"><path
             id="path612"
             style="fill:#343d5a;fill-opacity:1;fill-rule:nonzero;stroke:none"
             d="m 0,0 v -95.937 c 0,-3.828 5.949,-3.834 5.949,0 V 0 C 5.949,3.828 0,3.834 0,0" /></g><g
           transform="translate(587.4238,83.8154)"
           id="g614"><path
             id="path616"
             style="fill:#343d5a;fill-opacity:1;fill-rule:nonzero;stroke:none"
             d="M 0,0 C 9.629,0.391 18.444,5.327 28.192,5.336 38.18,5.346 47.254,0.391 57.122,0 c 3.829,-0.152 3.822,5.798 0,5.949 -9.82,0.389 -18.923,5.346 -28.93,5.337 C 18.423,11.277 9.578,6.338 0,5.949 -3.814,5.794 -3.835,-0.155 0,0" /></g><g
           transform="translate(599.5791,82.8926)"
           id="g618"><path
             id="path620"
             style="fill:#343d5a;fill-opacity:1;fill-rule:nonzero;stroke:none"
             d="m 0,0 c 0,-2.29 -1.856,-4.146 -4.147,-4.146 -2.29,0 -4.148,1.856 -4.148,4.146 0,2.291 1.858,4.147 4.148,4.147 C -1.856,4.147 0,2.291 0,0" /></g><g
           transform="translate(640.7354,82.8926)"
           id="g622"><path
             id="path624"
             style="fill:#343d5a;fill-opacity:1;fill-rule:nonzero;stroke:none"
             d="m 0,0 c 0,-2.29 -1.856,-4.146 -4.146,-4.146 -2.291,0 -4.148,1.856 -4.148,4.146 0,2.291 1.857,4.147 4.148,4.147 C -1.856,4.147 0,2.291 0,0" /></g><g
           transform="translate(695.6143,294.4482)"
           id="g626"><path
             id="path628"
             style="fill:#6884cd;fill-opacity:1;fill-rule:nonzero;stroke:none"
             d="m 0,0 c -5.412,-29.667 -11.195,-59.265 -17.346,-88.787 -1.462,-7.021 -3.088,-14.341 -7.668,-19.859 -3.986,-4.803 -9.763,-7.69 -15.366,-10.441 -7.846,-3.852 -15.69,-7.706 -23.536,-11.559 -8.615,-4.23 -17.455,-8.529 -26.999,-9.552 -19.781,-2.123 -37.985,9.954 -54.204,21.475 -7.611,5.409 -15.619,11.311 -18.979,20.023 20.932,8.826 41.863,17.653 62.794,26.479 2.764,1.165 5.607,2.385 7.697,4.536 2.209,2.274 3.348,5.357 4.346,8.367 4.202,12.676 6.939,25.838 8.168,39.136 0.615,6.648 0.858,13.334 0.71,20.01 -0.162,7.366 -2.502,11.987 6.547,11.805 C -67.013,11.496 -0.486,-2.666 0,0" /></g><g
           transform="translate(612.3125,165.4961)"
           id="g630"><path
             id="path632"
             style="fill:#5a78ba;fill-opacity:1;fill-rule:nonzero;stroke:none"
             d="m 0,0 c 8.221,3.886 16.426,7.799 24.464,12.054 4.447,2.354 8.795,4.885 13.226,7.267 3.763,2.024 7.598,3.976 11.005,6.577 7.39,5.644 9.604,13.813 11.54,22.507 1.666,7.477 3.636,14.844 5.002,22.39 1.866,10.308 3.259,20.698 4.666,31.076 0.085,0.624 -0.87,0.894 -0.956,0.263 C 66.767,86.054 64.683,69.881 60.597,54.149 58.242,45.083 57.364,34.954 50.021,28.282 46.737,25.299 42.786,23.176 38.9,21.093 34.68,18.831 30.533,16.437 26.317,14.167 17.525,9.433 8.525,5.122 -0.5,0.856 -1.077,0.584 -0.574,-0.271 0,0" /></g><g
           transform="translate(498.9189,209.9785)"
           id="g634"><path
             id="path636"
             style="fill:#aecfc2;fill-opacity:1;fill-rule:nonzero;stroke:none"
             d="m 0,0 c -2.173,-2.826 -2.496,-4.124 -5.526,-6.249 -3.109,-2.181 -6.244,-4.41 -7.116,-8.376 -1.112,-5.055 -1.026,-2.815 -3.222,-5.557 -3.719,-4.64 -0.3,-7.512 1.627,-6.33 4.15,2.549 7.793,6.33 11.014,7.858 2.862,1.356 6.994,2.556 10.122,3.037 5.424,0.834 18.256,-7.348 23.419,-9.205 1.344,-0.484 3.213,14.949 4.387,17.137 -3.344,1.884 -20.232,1.008 -23.659,5.538 C 7.062,3.12 1.983,1.126 0,0" /></g><g
           transform="translate(499.3203,94.9795)"
           id="g638"><path
             id="path640"
             style="fill:#b2cec3;fill-opacity:1;fill-rule:nonzero;stroke:none"
             d="m 0,0 c -0.408,-1.044 1.027,-7.894 0.752,-8.981 -0.464,-1.835 -2.384,-3.674 -3.273,-3.819 -4.419,-0.716 -7.717,0.299 -11.568,0.331 -3.204,0.026 -9.004,-0.976 -12.048,-1.012 -11.585,-0.136 -13.395,3.199 -13.43,4.091 -0.081,2.03 8.925,3.427 10.646,3.343 4.592,-0.225 14.581,9.046 14.83,9.608 2.26,5.093 7.245,23.258 11.954,34.016 C 0.865,37.816 11.826,31.838 14.72,32.452 12.706,21.502 3.639,9.295 0,0" /></g><g
           transform="translate(524.3818,189.7969)"
           id="g642"><path
             id="path644"
             style="fill:#6c3a3d;fill-opacity:1;fill-rule:nonzero;stroke:none"
             d="m 0,0 c -11.687,-13.637 -30.094,-59.266 -38.104,-82.028 3.249,-6.151 15.616,-7.358 19.541,-6.366 12.333,23.793 23.502,36.984 37.959,67.322 3.185,6.686 23.6,7.539 30.004,11.259 14.208,8.254 24.143,9.668 37.444,19.318 1.952,1.416 4.025,3.035 4.606,5.377 0.992,3.993 -3.007,7.652 -7.025,8.54 -4.019,0.887 -8.236,0.079 -12.304,0.701 C 61.06,25.814 63.008,35.349 52.623,29.202 44.221,24.23 6.176,7.206 0,0" /></g><g
           transform="translate(608.7676,171.3008)"
           id="g646"><path
             id="path648"
             style="fill:#77454a;fill-opacity:1;fill-rule:nonzero;stroke:none"
             d="m 0,0 c -2.644,-1.665 -9.844,-5.623 -14.143,-7.651 -9.602,-4.531 -17.62,-4.118 -30.646,1.185 -2.115,0.862 12.768,24.168 18.226,29.761 5.096,5.224 11.381,9.824 16.479,15.049 6.14,6.294 12.959,11.915 21.999,8.128 5.396,-2.26 30.344,-9.224 27.619,-14.471 C 31.212,15.975 13.928,8.77 0,0" /></g><g
           transform="translate(515.8418,206.5332)"
           id="g650"><path
             id="path652"
             style="fill:#77454a;fill-opacity:1;fill-rule:nonzero;stroke:none"
             d="m 0,0 c -3.627,-1.655 -5.806,-15.195 -3.041,-16.736 7.827,-4.363 16.962,-7.897 24.789,-12.259 11.766,-6.558 23.971,-14.563 37.432,-14.08 6.669,0.239 16.163,4.538 19.751,10.165 8.524,13.368 -8.566,19.532 -17.768,21.399 C 43.731,-7.974 5.14,2.345 0,0" /></g><g
           transform="translate(584.958,192.502)"
           id="g654"><path
             id="path656"
             style="fill:#6c3a3d;fill-opacity:1;fill-rule:nonzero;stroke:none"
             d="M 0,0 C 2.906,-1.267 5.373,-3.174 7.329,-5.667 7.723,-6.169 8.42,-5.463 8.03,-4.966 6.026,-2.412 3.477,-0.44 0.5,0.855 -0.079,1.108 -0.584,0.254 0,0" /></g><g
           transform="translate(587.2822,194.1172)"
           id="g658"><path
             id="path660"
             style="fill:#6c3a3d;fill-opacity:1;fill-rule:nonzero;stroke:none"
             d="M 0,0 C 2.581,-0.419 4.939,-1.428 6.992,-3.056 7.487,-3.448 8.193,-2.751 7.693,-2.354 5.506,-0.62 3.023,0.508 0.264,0.956 -0.361,1.058 -0.63,0.103 0,0" /></g><g
           transform="translate(534.9307,175.4941)"
           id="g662"><path
             id="path664"
             style="fill:#77454a;fill-opacity:1;fill-rule:nonzero;stroke:none"
             d="M 0,0 C 2.713,-1.285 4.966,-3.215 6.62,-5.723 6.971,-6.253 7.83,-5.757 7.477,-5.222 5.731,-2.577 3.366,-0.501 0.5,0.855 -0.073,1.127 -0.577,0.272 0,0" /></g><g
           transform="translate(533.1221,172.3613)"
           id="g666"><path
             id="path668"
             style="fill:#77454a;fill-opacity:1;fill-rule:nonzero;stroke:none"
             d="m 0,0 5.977,-3.674 c 0.544,-0.336 1.044,0.522 0.5,0.856 C 4.484,-1.593 2.493,-0.368 0.501,0.856 -0.045,1.191 -0.543,0.334 0,0" /></g><g
           transform="translate(580.4746,335.792)"
           id="g670"><path
             id="path672"
             style="fill:#ef9d9c;fill-opacity:1;fill-rule:nonzero;stroke:none"
             d="m 0,0 c -2.184,6.941 10.596,10.423 13.752,11.108 12.544,2.725 19.787,4.298 32.331,7.022 3.262,0.709 6.625,1.421 9.913,0.839 3.287,-0.581 6.521,-2.78 7.28,-6.031 C 63.693,11.152 63.242,9.097 61.848,7.905 60.756,6.972 57.394,7.851 56.023,7.417 46.093,4.278 28.916,-2.921 22.795,-2.483 21.591,-2.397 34.714,-15.849 35.511,-25.446 35.59,-26.399 21.954,-42.105 16.889,-35.009 8.448,-23.187 2.708,-8.605 0,0" /></g><g
           transform="translate(701.2793,323.9961)"
           id="g674"><path
             id="path676"
             style="fill:#fab2ae;fill-opacity:1;fill-rule:nonzero;stroke:none"
             d="m 0,0 c -8.929,2.911 -28.037,16.902 -42.709,14.681 -3.238,-0.49 -8.538,0.415 -11.497,1.818 -2.455,1.164 -4.101,3.856 -4.017,6.571 0.122,3.917 3.587,7.101 7.369,8.131 3.781,1.028 7.798,0.361 11.629,-0.466 6.938,-1.498 13.755,-3.499 20.566,-5.498 7.52,-2.207 17.088,-3.789 24.609,-5.996 7.416,-2.177 18.379,-6.892 21.153,-14.107 2.786,-7.246 -4.131,-17.364 -15.039,-27.316 -4.173,-3.808 -27.242,-19.128 -30.47,-20.195 -3.229,-1.068 -12.782,25.215 -9.742,26.514 C -7.372,-6.994 0,0 0,0" /></g><g
           transform="translate(604.1416,285.4468)"
           id="g678"><path
             id="path680"
             style="fill:#f8c284;fill-opacity:1;fill-rule:nonzero;stroke:none"
             d="m 0,0 c -0.716,-8.134 -0.949,-17.549 -4.331,-24.981 -7.703,-16.929 -14.047,-29.086 -22.806,-41.467 13.834,-11.611 22.964,-6.984 36.161,-7.914 12.179,-0.858 29.3,-10.616 33.169,-11.151 19.379,-2.682 23.364,53.405 31.959,83.623 C 76.083,4.898 72.3,15.398 67.695,20.748 63.902,21.259 57.323,21.033 52.518,21.253 40.729,21.794 31.631,22.04 22.181,22.614 17.955,22.87 19.236,21.917 15.83,22.944 10.684,24.496 1.222,14.505 0,0" /></g><g
           transform="translate(688.7197,317.6196)"
           id="g682"><path
             id="path684"
             style="fill:#f8c284;fill-opacity:1;fill-rule:nonzero;stroke:none"
             d="m 0,0 c 4.297,-2.663 13.55,-17.065 15.521,-27.407 -5.599,-4.006 -14.6,-10.966 -20.981,-13.551 -6.381,-2.587 -12.903,-7.792 -19.644,-6.392 -2.047,8.825 -9.262,33.189 0.978,36.287 C -17.538,-9.07 -2.487,1.542 0,0" /></g><g
           transform="translate(613.166,321.3066)"
           id="g686"><path
             id="path688"
             style="fill:#f8c284;fill-opacity:1;fill-rule:nonzero;stroke:none"
             d="m 0,0 c -1.959,2.809 -24.378,-9.332 -24.924,-10.961 -0.362,-1.082 10.053,-19.411 17.022,-29.884 0.528,-0.794 18.97,25.27 16.526,27.764 C 5.153,-9.541 2.572,-3.687 0,0" /></g><g
           transform="translate(661.8457,287.3159)"
           id="g690"><path
             id="path692"
             style="fill:#e8a96b;fill-opacity:1;fill-rule:nonzero;stroke:none"
             d="m 0,0 c 2.246,-4.899 5.701,-8.961 10.146,-12.001 0.529,-0.361 1.026,0.498 0.501,0.856 C 6.341,-8.201 3.029,-4.238 0.856,0.5 0.591,1.08 -0.264,0.577 0,0" /></g><g
           transform="translate(661.335,280.8647)"
           id="g694"><path
             id="path696"
             style="fill:#e8a96b;fill-opacity:1;fill-rule:nonzero;stroke:none"
             d="m 0,0 c 1.715,-3.979 4.48,-7.263 8.08,-9.667 0.532,-0.355 1.029,0.503 0.5,0.856 C 5.119,-6.499 2.502,-3.319 0.855,0.5 0.604,1.084 -0.251,0.58 0,0" /></g><g
           transform="translate(607.627,284.106)"
           id="g698"><path
             id="path700"
             style="fill:#e8a96b;fill-opacity:1;fill-rule:nonzero;stroke:none"
             d="M 0,0 C 0.422,5.253 1.649,10.322 3.65,15.195 3.893,15.785 2.934,16.042 2.693,15.458 0.658,10.501 -0.562,5.339 -0.991,0 -1.043,-0.636 -0.051,-0.633 0,0" /></g><g
           transform="translate(606.2217,286.5767)"
           id="g702"><path
             id="path704"
             style="fill:#e8a96b;fill-opacity:1;fill-rule:nonzero;stroke:none"
             d="M 0,0 C 0.039,3.824 0.548,7.568 1.528,11.264 1.692,11.881 0.736,12.145 0.572,11.528 -0.433,7.742 -0.951,3.917 -0.992,0 -0.999,-0.638 -0.007,-0.639 0,0" /></g><g
           transform="translate(613.6455,275.5015)"
           id="g706"><path
             id="path708"
             style="fill:#e8a96b;fill-opacity:1;fill-rule:nonzero;stroke:none"
             d="m 0,0 c -4.604,-7.165 1.75,-17.173 6.108,-22.892 5.538,-7.266 12.729,-13.041 19.976,-18.511 0.51,-0.384 1.004,0.477 0.501,0.857 -6.524,4.923 -12.981,10.099 -18.228,16.412 C 3.714,-18.547 -3.86,-7.839 0.855,-0.5 1.202,0.038 0.344,0.536 0,0" /></g><g
           transform="translate(606.6543,249.7129)"
           id="g710"><path
             id="path712"
             style="fill:#e8a96b;fill-opacity:1;fill-rule:nonzero;stroke:none"
             d="m 0,0 c 4.141,-10.358 12.391,-18.522 22.795,-22.549 0.595,-0.23 0.853,0.728 0.264,0.956 C 13.013,-17.705 4.955,-9.739 0.956,0.264 0.723,0.849 -0.237,0.593 0,0" /></g><g
           transform="translate(622.1201,273.3848)"
           id="g714"><path
             id="path716"
             style="fill:#e8a96b;fill-opacity:1;fill-rule:nonzero;stroke:none"
             d="m 0,0 c 3.176,-4.241 6.619,-8.676 11.729,-10.633 5.495,-2.104 10.139,0.108 14.722,3.172 0.528,0.353 0.031,1.212 -0.501,0.856 C 21.616,-9.503 17.224,-11.716 11.993,-9.677 7.152,-7.79 3.868,-3.521 0.855,0.5 0.478,1.005 -0.384,0.511 0,0" /></g><g
           transform="translate(703.208,324.019)"
           id="g718"><path
             id="path720"
             style="fill:#ef9d9c;fill-opacity:1;fill-rule:nonzero;stroke:none"
             d="m 0,0 c 2.204,0.947 4.52,1.342 6.913,1.227 0.638,-0.031 0.636,0.961 0,0.992 C 4.335,2.343 1.868,1.874 -0.501,0.856 -1.085,0.605 -0.581,-0.25 0,0" /></g><g
           transform="translate(598.5176,336.5981)"
           id="g722"><path
             id="path724"
             style="fill:#e08c8c;fill-opacity:1;fill-rule:nonzero;stroke:none"
             d="M 0,0 2.616,-2.591 C 3.07,-3.041 3.771,-2.34 3.317,-1.89 2.445,-1.026 1.573,-0.163 0.701,0.701 0.248,1.15 -0.454,0.45 0,0" /></g><g
           transform="translate(626.3223,308.0605)"
           id="g726"><path
             id="path728"
             style="fill:#ef9d9c;fill-opacity:1;fill-rule:nonzero;stroke:none"
             d="m 0,0 c -0.463,-0.34 -3.943,-2.297 -4.4,-2.645 -3.262,-2.477 3.39,-3.238 4.826,-3.602 9.238,-2.339 16.305,-0.694 29.911,4.887 -0.365,7.97 -0.075,14.453 0,22.43 C 26.664,20.888 21.23,16.663 17.578,16.234 13.925,15.805 9.545,14.685 7.531,17.762 7.531,13.065 3.834,2.816 0,0" /></g><g
           transform="translate(630.2051,354.6372)"
           id="g730"><path
             id="path732"
             style="fill:#fab2ae;fill-opacity:1;fill-rule:nonzero;stroke:none"
             d="m 0,0 c -1.764,-4.875 -5.34,-17.739 -5.275,-22.923 0.065,-5.183 1.392,-12.251 5.784,-13.408 4.317,-1.137 12.016,-1.241 17.682,2.685 1.84,1.275 5.044,4.243 7.395,10.723 2.284,6.297 7.088,16.312 4.773,22.597 C 28.044,5.959 21.225,10.917 14.734,9.263 4.787,6.727 3.396,9.394 0,0" /></g><g
           transform="translate(625.5908,367.2231)"
           id="g734"><path
             id="path736"
             style="fill:#3c3c70;fill-opacity:1;fill-rule:nonzero;stroke:none"
             d="m 0,0 c -1.065,-2.819 -1.553,-8.611 0.731,-10.577 1.415,-1.217 2.016,-2.042 3.883,-2.009 l 10.052,0.176 c 2.106,0.037 4.287,0.06 6.22,-0.777 2.885,-1.249 4.768,-4.492 4.424,-7.617 -0.247,-2.228 -0.914,-5.323 -0.964,-7.564 -0.027,-1.18 2.856,-2.071 3.418,-2.83 1.684,-2.277 1.94,-2.242 0.991,-5.655 1.699,-1.553 7.435,1.877 8.413,3.961 0.913,1.945 1.229,3.712 2.256,5.599 2.469,4.541 3.213,5.94 2.883,11.098 -0.167,2.601 -1.984,6.61 -5.139,7.436 -0.813,0.213 -1.781,2.313 -2.298,2.975 -2.794,3.58 -4.958,4.627 -10.577,6.941 C 16.101,4.53 2.81,7.437 0,0" /></g><g
           transform="translate(661.0244,340.606)"
           id="g738"><path
             id="path740"
             style="fill:#fab2ae;fill-opacity:1;fill-rule:nonzero;stroke:none"
             d="m 0,0 c -0.6,1.847 -1.442,2.81 -3.373,2.604 -3.607,-0.386 -4.883,-3.24 -5.949,-7.185 0,0 -1.887,-6.558 1.982,-7.803 2.064,-0.664 3.184,0.304 4.793,1.757 1.61,1.452 1.695,2.808 2.285,4.894 C 0.267,-3.865 0.601,-1.847 0,0" /></g><g
           transform="translate(633.9102,343.1147)"
           id="g742"><path
             id="path744"
             style="fill:#e08c8c;fill-opacity:1;fill-rule:nonzero;stroke:none"
             d="m 0,0 c 0.319,-2.515 -2.873,-4.373 -4.891,-5.06 -0.336,-0.114 -0.508,-0.561 -0.218,-0.828 1.293,-1.189 2.586,-2.379 3.88,-3.568 0.468,-0.431 1.171,0.268 0.701,0.702 -1.294,1.189 -2.587,2.378 -3.88,3.567 -0.073,-0.276 -0.146,-0.552 -0.219,-0.829 2.435,0.829 6,3.011 5.618,6.016 C 0.912,0.625 -0.08,0.632 0,0" /></g><g
           transform="translate(630.4609,333.0757)"
           id="g746"><path
             id="path748"
             style="fill:#e08c8c;fill-opacity:1;fill-rule:nonzero;stroke:none"
             d="m 0,0 c -0.973,-0.4 -1.897,-0.591 -2.958,-0.588 -0.432,0.002 -0.651,-0.542 -0.351,-0.846 2.949,-2.98 7.399,-3.676 11.13,-1.784 0.57,0.288 0.069,1.144 -0.5,0.856 -3.34,-1.694 -7.3,-1.028 -9.928,1.629 -0.118,-0.282 -0.234,-0.564 -0.351,-0.846 1.157,-0.004 2.143,0.179 3.222,0.622 C 0.846,-0.717 0.591,0.243 0,0" /></g><g
           transform="translate(631.5732,326.9175)"
           id="g750"><path
             id="path752"
             style="fill:#e08c8c;fill-opacity:1;fill-rule:nonzero;stroke:none"
             d="m 0,0 c 1.089,-0.155 2.173,-0.223 3.272,-0.183 0.636,0.023 0.639,1.015 0,0.992 C 2.266,0.772 1.262,0.814 0.264,0.957 -0.36,1.045 -0.63,0.09 0,0" /></g><g
           transform="translate(638.5186,342.2295)"
           id="g754"><path
             id="path756"
             style="fill:#e08c8c;fill-opacity:1;fill-rule:nonzero;stroke:none"
             d="M 0,0 C 1.152,0.868 2.727,0.732 3.688,-0.355 4.112,-0.834 4.812,-0.131 4.39,0.346 3.163,1.733 0.985,1.975 -0.501,0.856 -1.004,0.477 -0.511,-0.384 0,0" /></g><g
           transform="translate(628.124,342.7085)"
           id="g758"><path
             id="path760"
             style="fill:#e08c8c;fill-opacity:1;fill-rule:nonzero;stroke:none"
             d="M 0,0 C 0.43,0.374 1.08,0.318 1.474,-0.074 1.927,-0.524 2.628,0.177 2.175,0.627 1.381,1.418 0.135,1.427 -0.7,0.701 -1.183,0.282 -0.479,-0.417 0,0" /></g><g
           transform="translate(628.5635,348.3994)"
           id="g762"><path
             id="path764"
             style="fill:#3c3c70;fill-opacity:1;fill-rule:nonzero;stroke:none"
             d="M 0,0 C 1.16,0.116 2.313,0.107 3.471,-0.027 4.104,-0.1 4.099,0.892 3.471,0.965 2.313,1.099 1.16,1.107 0,0.992 -0.629,0.929 -0.635,-0.063 0,0" /></g><g
           transform="translate(638.3184,347.7021)"
           id="g766"><path
             id="path768"
             style="fill:#3c3c70;fill-opacity:1;fill-rule:nonzero;stroke:none"
             d="M 0,0 C 2.21,0.222 4.353,-0.104 6.377,-1.027 6.954,-1.29 7.458,-0.436 6.878,-0.171 4.692,0.825 2.393,1.232 0,0.992 -0.629,0.928 -0.636,-0.064 0,0" /></g><g
           transform="translate(654.9824,337.3394)"
           id="g770"><path
             id="path772"
             style="fill:#e08c8c;fill-opacity:1;fill-rule:nonzero;stroke:none"
             d="M 0,0 C 0.373,0.396 1.354,1.863 1.862,1.979 3.5,2.354 3.191,0.418 3.141,-0.458 3.077,-1.539 2.063,-7.047 -0.142,-5.185 -0.626,-4.776 -1.331,-5.474 -0.843,-5.886 2.241,-8.49 3.936,-2.828 4.106,-0.757 4.202,0.398 4.344,2.5 3.107,3.206 1.632,4.049 0.089,1.541 -0.701,0.701 -1.138,0.237 -0.437,-0.466 0,0" /></g><g
           transform="translate(628.1045,366.6704)"
           id="g774"><path
             id="path776"
             style="fill:#4d4d87;fill-opacity:1;fill-rule:nonzero;stroke:none"
             d="M 0,0 C -1.807,-2.774 -1.699,-6.357 0.306,-9 0.686,-9.501 1.548,-9.008 1.161,-8.499 -0.647,-6.114 -0.781,-3.015 0.856,-0.5 1.205,0.036 0.348,0.533 0,0" /></g><g
           transform="translate(634.4316,367.0679)"
           id="g778"><path
             id="path780"
             style="fill:#4d4d87;fill-opacity:1;fill-rule:nonzero;stroke:none"
             d="m 0,0 c -1.2,-3.021 -1.104,-6.197 0.179,-9.171 0.252,-0.584 1.106,-0.08 0.855,0.5 -1.179,2.733 -1.172,5.653 -0.078,8.407 C 1.191,0.33 0.233,0.587 0,0" /></g><g
           transform="translate(640.4854,365.0156)"
           id="g782"><path
             id="path784"
             style="fill:#4d4d87;fill-opacity:1;fill-rule:nonzero;stroke:none"
             d="m 0,0 c -0.893,-2.114 -1.11,-4.301 -0.617,-6.546 0.137,-0.623 1.093,-0.36 0.956,0.263 -0.43,1.96 -0.265,3.93 0.516,5.783 C 1.102,0.081 0.247,0.586 0,0" /></g><g
           transform="translate(646.7041,357.3101)"
           id="g786"><path
             id="path788"
             style="fill:#4d4d87;fill-opacity:1;fill-rule:nonzero;stroke:none"
             d="M 0,0 C 0.105,1.32 0.496,2.552 1.152,3.7 1.47,4.255 0.613,4.755 0.296,4.2 -0.448,2.898 -0.872,1.494 -0.992,0 -1.043,-0.636 -0.051,-0.632 0,0" /></g><g
           transform="translate(652.4687,356.522)"
           id="g790"><path
             id="path792"
             style="fill:#4d4d87;fill-opacity:1;fill-rule:nonzero;stroke:none"
             d="M 0,0 C 0.208,1.095 0.67,2.069 1.416,2.901 1.841,3.375 1.142,4.078 0.715,3.602 -0.14,2.649 -0.717,1.523 -0.956,0.264 -1.074,-0.36 -0.119,-0.627 0,0" /></g><g
           transform="translate(655.4639,352.3857)"
           id="g794"><path
             id="path796"
             style="fill:#4d4d87;fill-opacity:1;fill-rule:nonzero;stroke:none"
             d="M 0,0 C 0.199,1.438 0.993,2.639 2.267,3.348 2.824,3.658 2.325,4.515 1.767,4.204 0.293,3.384 -0.725,1.938 -0.956,0.264 -1.042,-0.36 -0.087,-0.63 0,0" /></g><g
           transform="translate(657.4873,349.1948)"
           id="g798"><path
             id="path800"
             style="fill:#4d4d87;fill-opacity:1;fill-rule:nonzero;stroke:none"
             d="m 0,0 c 1.102,0.117 2.202,0.234 3.304,0.351 0.628,0.066 0.634,1.059 0,0.991 C 2.202,1.225 1.102,1.108 0,0.992 -0.628,0.925 -0.635,-0.067 0,0" /></g><g
           transform="translate(658.3496,346.1074)"
           id="g802"><path
             id="path804"
             style="fill:#4d4d87;fill-opacity:1;fill-rule:nonzero;stroke:none"
             d="M 0,0 1.813,-0.35 C 2.438,-0.471 2.704,0.485 2.077,0.606 L 0.264,0.956 C -0.36,1.077 -0.627,0.121 0,0" /></g></g></g></g></svg>